GeoramaExtraCondensed-Bold.ufo
<glyph name="exclam" format="2">
  <advance width="174.2"/>
  <unicode hex="0021"/>
  <outline>
    <contour>
      <point x="30.200000000000003" y="260.5" type="line"/>
      <point x="142.6" y="260.5" type="line"/>
      <point x="153.8" y="740.0" type="line"/>
      <point x="21.1" y="740.0" type="line"/>
    </contour>
    <contour>
      <point x="17.8" y="80.0" type="curve" smooth="yes"/>
      <point x="17.8" y="20.599999999999998"/>
      <point x="37.7" y="-7.0"/>
      <point x="87.1" y="-7.0" type="curve" smooth="yes"/>
      <point x="136.8" y="-7.0"/>
      <point x="156.39999999999998" y="20.599999999999998"/>
      <point x="156.39999999999998" y="80.0" type="curve" smooth="yes"/>
      <point x="156.39999999999998" y="140.1"/>
      <point x="136.8" y="167.7"/>
      <point x="87.1" y="167.7" type="curve" smooth="yes"/>
      <point x="37.4" y="167.7"/>
      <point x="17.8" y="140.1"/>
    </contour>
  </outline>
</glyph>
<glyph name="numbersign" format="2">
  <advance width="369.0"/>
  <unicode hex="0023"/>
  <outline>
    <contour>
      <point x="34.8" y="417.2" type="line"/>
      <point x="76.0" y="417.2" type="line"/>
      <point x="63.6" y="274.7" type="line"/>
      <point x="20.299999999999997" y="274.7" type="line"/>
      <point x="20.299999999999997" y="157.4" type="line"/>
      <point x="57.4" y="157.4" type="line"/>
      <point x="45.3" y="0.0" type="line"/>
      <point x="138.8" y="0.0" type="line"/>
      <point x="150.89999999999998" y="157.4" type="line"/>
      <point x="194.0" y="157.4" type="line"/>
      <point x="181.9" y="0.0" type="line"/>
      <point x="275.4" y="0.0" type="line"/>
      <point x="287.5" y="157.4" type="line"/>
      <point x="334.2" y="157.4" type="line"/>
      <point x="334.2" y="274.7" type="line"/>
      <point x="293.7" y="274.7" type="line"/>
      <point x="306.1" y="417.2" type="line"/>
      <point x="348.7" y="417.2" type="line"/>
      <point x="348.7" y="535.9" type="line"/>
      <point x="312.6" y="535.9" type="line"/>
      <point x="325.4" y="700.0" type="line"/>
      <point x="231.9" y="700.0" type="line"/>
      <point x="219.1" y="535.9" type="line"/>
      <point x="176.0" y="535.9" type="line"/>
      <point x="188.8" y="700.0" type="line"/>
      <point x="95.3" y="700.0" type="line"/>
      <point x="82.5" y="535.9" type="line"/>
      <point x="34.8" y="535.9" type="line"/>
    </contour>
    <contour>
      <point x="169.5" y="417.2" type="line"/>
      <point x="212.6" y="417.2" type="line"/>
      <point x="200.2" y="274.7" type="line"/>
      <point x="157.1" y="274.7" type="line"/>
    </contour>
  </outline>
</glyph>
<glyph name="dollar" format="2">
  <advance width="369.0"/>
  <unicode hex="0024"/>
  <outline>
    <contour>
      <point x="159.7" y="-10.0" type="curve" smooth="yes"/>
      <point x="251.1" y="-10.0"/>
      <point x="345.29999999999995" y="39.8"/>
      <point x="345.29999999999995" y="181.4" type="curve" smooth="yes"/>
      <point x="345.29999999999995" y="298.2"/>
      <point x="284.4" y="352.9"/>
      <point x="231.89999999999998" y="399.5" type="curve" smooth="yes"/>
      <point x="192.3" y="437.8"/>
      <point x="156.89999999999998" y="472.9"/>
      <point x="156.89999999999998" y="524.5" type="curve" smooth="yes"/>
      <point x="156.89999999999998" y="563.0"/>
      <point x="175.89999999999998" y="582.8"/>
      <point x="216.89999999999998" y="582.8" type="curve" smooth="yes"/>
      <point x="247.39999999999998" y="582.8"/>
      <point x="276.5" y="576.4"/>
      <point x="304.6" y="564.5" type="curve"/>
      <point x="330.79999999999995" y="680.6" type="line"/>
      <point x="302.5" y="697.3"/>
      <point x="248.5" y="710.0"/>
      <point x="192.4" y="710.0" type="curve" smooth="yes"/>
      <point x="92.5" y="710.0"/>
      <point x="29.8" y="637.0"/>
      <point x="29.8" y="524.5" type="curve" smooth="yes"/>
      <point x="29.8" y="417.5"/>
      <point x="80.5" y="355.6"/>
      <point x="129.5" y="307.3" type="curve" smooth="yes"/>
      <point x="176.1" y="261.0"/>
      <point x="221.0" y="226.2"/>
      <point x="221.0" y="175.6" type="curve" smooth="yes"/>
      <point x="221.0" y="137.6"/>
      <point x="196.7" y="113.3"/>
      <point x="155.6" y="113.3" type="curve" smooth="yes"/>
      <point x="126.3" y="113.3"/>
      <point x="92.9" y="121.5"/>
      <point x="48.9" y="138.89999999999998" type="curve"/>
      <point x="23.700000000000003" y="24.299999999999997" type="line"/>
      <point x="58.6" y="4.799999999999999"/>
      <point x="112.5" y="-10.0"/>
    </contour>
    <contour>
      <point x="123.5" y="-105.0" type="line"/>
      <point x="242.2" y="-105.0" type="line"/>
      <point x="242.2" y="17.099999999999998" type="line"/>
      <point x="123.5" y="7.199999999999999" type="line"/>
    </contour>
    <contour>
      <point x="123.5" y="682.0" type="line"/>
      <point x="242.2" y="693.8" type="line"/>
      <point x="242.2" y="803.6" type="line"/>
      <point x="123.5" y="803.6" type="line"/>
    </contour>
  </outline>
</glyph>
<glyph name="ampersand" format="2">
  <advance width="463.6"/>
  <unicode hex="0026"/>
  <outline>
    <contour>
      <point x="330.8" y="-4.800000000000001" type="line"/>
      <point x="463.99999999999994" y="-1.8000000000000003" type="line"/>
      <point x="214.2" y="426.8" type="line" smooth="yes"/>
      <point x="191.6" y="466.2"/>
      <point x="181.2" y="498.0"/>
      <point x="181.2" y="523.6" type="curve" smooth="yes"/>
      <point x="181.2" y="564.0"/>
      <point x="193.79999999999998" y="583.2"/>
      <point x="217.39999999999998" y="583.2" type="curve" smooth="yes"/>
      <point x="241.6" y="583.2"/>
      <point x="251.4" y="561.4000000000001"/>
      <point x="251.4" y="523.1999999999999" type="curve" smooth="yes"/>
      <point x="251.4" y="497.2"/>
      <point x="250.0" y="476.8"/>
      <point x="236.0" y="460.6" type="curve"/>
      <point x="280.0" y="388.0" type="line"/>
      <point x="329.6" y="419.2"/>
      <point x="359.6" y="472.40000000000003"/>
      <point x="359.6" y="551.4000000000001" type="curve" smooth="yes"/>
      <point x="359.6" y="658.0"/>
      <point x="307.2" y="710.0"/>
      <point x="216.0" y="710.0" type="curve" smooth="yes"/>
      <point x="109.8" y="710.0"/>
      <point x="54.800000000000004" y="643.8"/>
      <point x="54.800000000000004" y="529.6" type="curve" smooth="yes"/>
      <point x="54.800000000000004" y="471.20000000000005"/>
      <point x="78.0" y="413.20000000000005"/>
      <point x="111.6" y="357.0" type="curve" smooth="yes"/>
    </contour>
    <contour>
      <point x="184.4" y="-10.0" type="curve" smooth="yes"/>
      <point x="245.2" y="-10.0"/>
      <point x="287.2" y="15.799999999999997"/>
      <point x="317.4" y="63.80000000000001" type="curve"/>
      <point x="265.6" y="150.2" type="line"/>
      <point x="252.79999999999998" y="121.0"/>
      <point x="236.2" y="103.39999999999999"/>
      <point x="199.79999999999998" y="103.39999999999999" type="curve" smooth="yes"/>
      <point x="158.6" y="103.39999999999999"/>
      <point x="129.8" y="142.2"/>
      <point x="129.8" y="196.0" type="curve" smooth="yes"/>
      <point x="129.8" y="244.59999999999997"/>
      <point x="143.79999999999998" y="272.40000000000003"/>
      <point x="172.39999999999998" y="301.4" type="curve"/>
      <point x="118.2" y="396.2" type="line"/>
      <point x="41.0" y="341.8"/>
      <point x="11.400000000000002" y="272.2"/>
      <point x="11.400000000000002" y="182.4" type="curve" smooth="yes"/>
      <point x="11.400000000000002" y="66.60000000000001"/>
      <point x="80.19999999999999" y="-10.0"/>
    </contour>
    <contour>
      <point x="376.4" y="124.60000000000001" type="line"/>
      <point x="403.59999999999997" y="178.79999999999998"/>
      <point x="420.4" y="237.79999999999998"/>
      <point x="420.4" y="302.6" type="curve" smooth="yes"/>
      <point x="420.4" y="324.2"/>
      <point x="419.4" y="344.0"/>
      <point x="416.8" y="363.40000000000003" type="curve"/>
      <point x="317.8" y="362.8" type="line"/>
      <point x="319.4" y="350.8"/>
      <point x="320.4" y="338.6"/>
      <point x="320.4" y="322.59999999999997" type="curve" smooth="yes"/>
      <point x="320.4" y="289.40000000000003"/>
      <point x="315.0" y="261.8"/>
      <point x="308.6" y="240.39999999999998" type="curve"/>
    </contour>
  </outline>
</glyph>
<glyph name="quotesingle" format="2">
  <advance width="171.5"/>
  <unicode hex="0027"/>
  <outline>
    <contour>
      <point x="30.400000000000002" y="427.0" type="line"/>
      <point x="139.0" y="427.0" type="line"/>
      <point x="146.8" y="700.0" type="line"/>
      <point x="24.700000000000003" y="700.0" type="line"/>
    </contour>
  </outline>
</glyph>
<glyph name="parenleft" format="2">
  <advance width="218.6"/>
  <unicode hex="0028"/>
  <outline>
    <contour>
      <point x="24.8" y="265.0" type="curve" smooth="yes"/>
      <point x="24.8" y="-17.6"/>
      <point x="80.9" y="-196.4"/>
      <point x="211.5" y="-220.3" type="curve"/>
      <point x="211.5" y="-102.2" type="line"/>
      <point x="157.3" y="-69.60000000000001"/>
      <point x="129.4" y="14.299999999999999"/>
      <point x="129.4" y="265.0" type="curve" smooth="yes"/>
      <point x="129.4" y="515.7"/>
      <point x="157.3" y="599.6"/>
      <point x="211.5" y="632.2" type="curve"/>
      <point x="211.5" y="750.3" type="line"/>
      <point x="80.9" y="726.4"/>
      <point x="24.8" y="547.6"/>
    </contour>
  </outline>
</glyph>
<glyph name="parenright" format="2">
  <advance width="218.6"/>
  <unicode hex="0029"/>
  <outline>
    <contour>
      <point x="7.1" y="-102.2" type="curve"/>
      <point x="7.1" y="-220.3" type="line"/>
      <point x="137.7" y="-196.4"/>
      <point x="193.8" y="-17.6"/>
      <point x="193.8" y="265.0" type="curve" smooth="yes"/>
      <point x="193.8" y="547.6"/>
      <point x="137.7" y="726.4"/>
      <point x="7.1" y="750.3" type="curve"/>
      <point x="7.1" y="632.2" type="line"/>
      <point x="61.3" y="599.6"/>
      <point x="89.2" y="515.7"/>
      <point x="89.2" y="265.0" type="curve" smooth="yes"/>
      <point x="89.2" y="14.299999999999999"/>
      <point x="61.3" y="-69.60000000000001"/>
    </contour>
  </outline>
</glyph>
<glyph name="asterisk" format="2">
  <advance width="292.6"/>
  <unicode hex="002A"/>
  <outline>
    <contour>
      <point x="89.19999999999999" y="419.0" type="line"/>
      <point x="146.3" y="490.6" type="line"/>
      <point x="203.39999999999998" y="419.0" type="line"/>
      <point x="254.1" y="454.2" type="line"/>
      <point x="209.7" y="536.1" type="line"/>
      <point x="288.4" y="576.3" type="line"/>
      <point x="268.8" y="635.0" type="line"/>
      <point x="185.39999999999998" y="611.5" type="line"/>
      <point x="177.7" y="706.7" type="line"/>
      <point x="114.9" y="706.7" type="line"/>
      <point x="107.2" y="611.5" type="line"/>
      <point x="23.799999999999997" y="635.0" type="line"/>
      <point x="4.199999999999999" y="576.3" type="line"/>
      <point x="82.9" y="536.1" type="line"/>
      <point x="38.5" y="454.2" type="line"/>
    </contour>
  </outline>
</glyph>
<glyph name="plus" format="2">
  <advance width="405.0"/>
  <unicode hex="002B"/>
  <outline>
    <contour>
      <point x="143.5" y="135.7" type="line"/>
      <point x="261.5" y="135.7" type="line"/>
      <point x="261.5" y="259.4" type="line"/>
      <point x="363.9" y="259.4" type="line"/>
      <point x="363.9" y="377.4" type="line"/>
      <point x="261.5" y="377.4" type="line"/>
      <point x="261.5" y="501.1" type="line"/>
      <point x="143.5" y="501.1" type="line"/>
      <point x="143.5" y="377.4" type="line"/>
      <point x="41.1" y="377.4" type="line"/>
      <point x="41.1" y="259.4" type="line"/>
      <point x="143.5" y="259.4" type="line"/>
    </contour>
  </outline>
</glyph>
<glyph name="comma" format="2">
  <advance width="167.0"/>
  <unicode hex="002C"/>
  <outline>
    <contour>
      <point x="20.1" y="87.9" type="line"/>
      <point x="26.4" y="53.199999999999996"/>
      <point x="27.6" y="22.499999999999996"/>
      <point x="27.6" y="8.299999999999997" type="curve" smooth="yes"/>
      <point x="27.6" y="-43.2"/>
      <point x="9.900000000000002" y="-104.2"/>
      <point x="-20.8" y="-155.1" type="curve"/>
      <point x="74.19999999999999" y="-185.1" type="line"/>
      <point x="126.8" y="-118.80000000000001"/>
      <point x="148.39999999999998" y="-56.1"/>
      <point x="148.39999999999998" y="11.799999999999997" type="curve" smooth="yes"/>
      <point x="148.39999999999998" y="44.0"/>
      <point x="143.3" y="69.1"/>
      <point x="137.7" y="90.69999999999999" type="curve"/>
    </contour>
  </outline>
</glyph>
<glyph name="hyphen" format="2">
  <advance width="275.9"/>
  <unicode hex="002D"/>
  <outline>
    <contour>
      <point x="27.299999999999997" y="240.3" type="line"/>
      <point x="248.6" y="240.3" type="line"/>
      <point x="248.6" y="368.1" type="line"/>
      <point x="27.299999999999997" y="368.1" type="line"/>
    </contour>
  </outline>
</glyph>
<glyph name="period" format="2">
  <advance width="167.0"/>
  <unicode hex="002E"/>
  <outline>
    <contour>
      <point x="14.200000000000003" y="82.1" type="curve" smooth="yes"/>
      <point x="14.200000000000003" y="22.7"/>
      <point x="34.1" y="-4.8999999999999995"/>
      <point x="83.5" y="-4.8999999999999995" type="curve" smooth="yes"/>
      <point x="133.2" y="-4.8999999999999995"/>
      <point x="152.8" y="22.7"/>
      <point x="152.8" y="82.1" type="curve" smooth="yes"/>
      <point x="152.8" y="142.2"/>
      <point x="133.2" y="169.79999999999998"/>
      <point x="83.5" y="169.79999999999998" type="curve" smooth="yes"/>
      <point x="33.8" y="169.79999999999998"/>
      <point x="14.200000000000003" y="142.2"/>
    </contour>
  </outline>
</glyph>
<glyph name="zero" format="2">
  <advance width="369.0"/>
  <unicode hex="0030"/>
  <outline>
    <contour>
      <point x="15.0" y="350.0" type="curve" smooth="yes"/>
      <point x="15.0" y="79.8"/>
      <point x="58.5" y="-10.0"/>
      <point x="184.5" y="-10.0" type="curve" smooth="yes"/>
      <point x="308.4" y="-10.0"/>
      <point x="354.0" y="82.6"/>
      <point x="354.0" y="350.0" type="curve" smooth="yes"/>
      <point x="354.0" y="618.4"/>
      <point x="318.9" y="710.0"/>
      <point x="184.5" y="710.0" type="curve" smooth="yes"/>
      <point x="56.4" y="710.0"/>
      <point x="15.0" y="624.0"/>
    </contour>
    <contour>
      <point x="144.89999999999998" y="340.9" type="curve" smooth="yes"/>
      <point x="144.89999999999998" y="565.3"/>
      <point x="155.1" y="587.8"/>
      <point x="184.5" y="587.8" type="curve" smooth="yes"/>
      <point x="213.9" y="587.8"/>
      <point x="224.1" y="566.0"/>
      <point x="224.1" y="340.9" type="curve" smooth="yes"/>
      <point x="224.1" y="139.2"/>
      <point x="216.0" y="112.19999999999999"/>
      <point x="184.5" y="112.19999999999999" type="curve" smooth="yes"/>
      <point x="153.0" y="112.19999999999999"/>
      <point x="144.89999999999998" y="138.5"/>
    </contour>
  </outline>
</glyph>
<glyph name="one" format="2">
  <advance width="369.0"/>
  <unicode hex="0031"/>
  <outline>
    <contour>
      <point x="46.8" y="0.0" type="line"/>
      <point x="343.5" y="0.0" type="line"/>
      <point x="343.5" y="118.0" type="line"/>
      <point x="265.1" y="118.0" type="line"/>
      <point x="265.1" y="700.0" type="line"/>
      <point x="199.2" y="700.0" type="line"/>
      <point x="30.0" y="629.0" type="line"/>
      <point x="52.5" y="495.3" type="line"/>
      <point x="135.9" y="535.5" type="line"/>
      <point x="135.9" y="118.0" type="line"/>
      <point x="46.8" y="118.0" type="line"/>
    </contour>
  </outline>
</glyph>
<glyph name="two" format="2">
  <advance width="369.0"/>
  <unicode hex="0032"/>
  <outline>
    <contour>
      <point x="39.0" y="106.6" type="curve"/>
      <point x="40.5" y="0.0" type="line"/>
      <point x="337.3" y="0.0" type="line"/>
      <point x="337.3" y="118.0" type="line"/>
      <point x="182.1" y="118.0" type="line"/>
      <point x="289.1" y="304.9"/>
      <point x="322.7" y="395.5"/>
      <point x="322.7" y="514.2" type="curve" smooth="yes"/>
      <point x="322.7" y="645.1"/>
      <point x="270.3" y="710.0"/>
      <point x="170.7" y="710.0" type="curve" smooth="yes"/>
      <point x="112.9" y="710.0"/>
      <point x="64.9" y="692.1"/>
      <point x="18.4" y="652.1" type="curve"/>
      <point x="66.4" y="519.7" type="line"/>
      <point x="91.1" y="541.8"/>
      <point x="111.0" y="550.3"/>
      <point x="137.8" y="550.3" type="curve" smooth="yes"/>
      <point x="171.9" y="550.3"/>
      <point x="193.1" y="526.2"/>
      <point x="193.1" y="465.0" type="curve" smooth="yes"/>
      <point x="193.1" y="395.5"/>
      <point x="136.5" y="273.9"/>
    </contour>
  </outline>
</glyph>
<glyph name="three" format="2">
  <advance width="369.0"/>
  <unicode hex="0033"/>
  <outline>
    <contour>
      <point x="12.399999999999999" y="36.5" type="line"/>
      <point x="62.099999999999994" y="2.6"/>
      <point x="99.1" y="-10.0"/>
      <point x="154.9" y="-10.0" type="curve" smooth="yes"/>
      <point x="266.6" y="-10.0"/>
      <point x="333.0" y="69.8"/>
      <point x="333.0" y="203.6" type="curve" smooth="yes"/>
      <point x="333.0" y="281.4"/>
      <point x="303.7" y="342.1"/>
      <point x="250.0" y="373.5" type="curve"/>
      <point x="295.8" y="409.8"/>
      <point x="323.2" y="471.5"/>
      <point x="323.2" y="536.1" type="curve" smooth="yes"/>
      <point x="323.2" y="642.4"/>
      <point x="262.2" y="710.0"/>
      <point x="159.1" y="710.0" type="curve" smooth="yes"/>
      <point x="102.9" y="710.0"/>
      <point x="51.5" y="692.4"/>
      <point x="13.2" y="658.8" type="curve"/>
      <point x="56.7" y="546.4" type="line"/>
      <point x="74.4" y="558.8"/>
      <point x="102.4" y="566.8"/>
      <point x="127.6" y="566.8" type="curve" smooth="yes"/>
      <point x="172.2" y="566.8"/>
      <point x="195.4" y="536.6"/>
      <point x="195.4" y="488.5" type="curve" smooth="yes"/>
      <point x="195.4" y="443.7"/>
      <point x="175.0" y="411.9"/>
      <point x="140.8" y="411.9" type="curve" smooth="yes"/>
      <point x="92.1" y="411.9" type="line"/>
      <point x="92.1" y="300.2" type="line"/>
      <point x="136.4" y="300.2" type="line" smooth="yes"/>
      <point x="180.2" y="300.2"/>
      <point x="204.5" y="270.4"/>
      <point x="204.5" y="214.8" type="curve" smooth="yes"/>
      <point x="204.5" y="159.1"/>
      <point x="178.0" y="124.8"/>
      <point x="135.6" y="124.8" type="curve" smooth="yes"/>
      <point x="107.6" y="124.8"/>
      <point x="87.69999999999999" y="132.3"/>
      <point x="60.3" y="150.7" type="curve"/>
    </contour>
  </outline>
</glyph>
<glyph name="four" format="2">
  <advance width="369.0"/>
  <unicode hex="0034"/>
  <outline>
    <contour>
      <point x="19.400000000000002" y="111.19999999999999" type="line"/>
      <point x="176.20000000000002" y="111.19999999999999" type="line"/>
      <point x="176.20000000000002" y="0.0" type="line"/>
      <point x="307.6" y="0.0" type="line"/>
      <point x="307.6" y="111.19999999999999" type="line"/>
      <point x="358.59999999999997" y="111.19999999999999" type="line"/>
      <point x="358.59999999999997" y="228.79999999999998" type="line"/>
      <point x="307.6" y="228.79999999999998" type="line"/>
      <point x="307.6" y="699.4" type="line"/>
      <point x="153.6" y="701.1999999999999" type="line"/>
      <point x="17.599999999999998" y="235.4" type="line"/>
    </contour>
    <contour>
      <point x="102.0" y="228.79999999999998" type="line"/>
      <point x="183.2" y="523.6" type="line"/>
      <point x="183.2" y="228.79999999999998" type="line"/>
    </contour>
  </outline>
</glyph>
<glyph name="five" format="2">
  <advance width="369.0"/>
  <unicode hex="0035"/>
  <outline>
    <contour>
      <point x="25.6" y="31.7" type="line"/>
      <point x="64.4" y="4.2"/>
      <point x="102.4" y="-10.0"/>
      <point x="156.0" y="-10.0" type="curve" smooth="yes"/>
      <point x="269.5" y="-10.0"/>
      <point x="348.7" y="73.8"/>
      <point x="348.7" y="224.2" type="curve" smooth="yes"/>
      <point x="348.7" y="348.4"/>
      <point x="296.2" y="411.9"/>
      <point x="212.3" y="416.8" type="curve" smooth="yes"/>
      <point x="182.39999999999998" y="418.2" type="line"/>
      <point x="191.89999999999998" y="577.1" type="line"/>
      <point x="332.9" y="577.1" type="line"/>
      <point x="332.9" y="700.0" type="line"/>
      <point x="87.5" y="700.0" type="line"/>
      <point x="56.0" y="321.0" type="line"/>
      <point x="64.6" y="308.6" type="line"/>
      <point x="137.8" y="308.6" type="line" smooth="yes"/>
      <point x="191.2" y="308.6"/>
      <point x="218.1" y="279.4"/>
      <point x="218.1" y="218.6" type="curve" smooth="yes"/>
      <point x="218.1" y="161.39999999999998"/>
      <point x="194.5" y="123.39999999999999"/>
      <point x="138.5" y="123.39999999999999" type="curve" smooth="yes"/>
      <point x="101.3" y="123.39999999999999"/>
      <point x="75.1" y="134.7"/>
      <point x="53.5" y="148.7" type="curve"/>
    </contour>
  </outline>
</glyph>
<glyph name="six" format="2">
  <advance width="369.0"/>
  <unicode hex="0036"/>
  <outline>
    <contour>
      <point x="188.5" y="-10.0" type="curve" smooth="yes"/>
      <point x="300.6" y="-10.0"/>
      <point x="357.3" y="73.0"/>
      <point x="357.3" y="234.6" type="curve" smooth="yes"/>
      <point x="357.3" y="366.0"/>
      <point x="310.9" y="444.3"/>
      <point x="232.89999999999998" y="444.3" type="curve" smooth="yes"/>
      <point x="192.3" y="444.3"/>
      <point x="160.89999999999998" y="424.0"/>
      <point x="139.89999999999998" y="388.5" type="curve"/>
      <point x="136.8" y="282.5" type="line"/>
      <point x="148.8" y="316.7"/>
      <point x="165.89999999999998" y="337.8"/>
      <point x="188.5" y="337.8" type="curve" smooth="yes"/>
      <point x="213.2" y="337.8"/>
      <point x="228.1" y="300.5"/>
      <point x="228.1" y="229.5" type="curve" smooth="yes"/>
      <point x="228.1" y="146.0"/>
      <point x="213.4" y="108.1"/>
      <point x="191.0" y="108.1" type="curve" smooth="yes"/>
      <point x="161.6" y="108.1"/>
      <point x="152.5" y="142.0"/>
      <point x="152.5" y="352.0" type="curve" smooth="yes"/>
      <point x="152.5" y="504.8"/>
      <point x="158.89999999999998" y="583.5"/>
      <point x="246.1" y="583.5" type="curve" smooth="yes"/>
      <point x="270.7" y="583.5"/>
      <point x="293.5" y="573.9"/>
      <point x="309.7" y="559.4" type="curve"/>
      <point x="351.4" y="672.1" type="line"/>
      <point x="324.79999999999995" y="694.1"/>
      <point x="270.8" y="710.0"/>
      <point x="224.3" y="710.0" type="curve" smooth="yes"/>
      <point x="88.5" y="710.0"/>
      <point x="17.7" y="585.8"/>
      <point x="17.7" y="325.6" type="curve" smooth="yes"/>
      <point x="17.7" y="89.4"/>
      <point x="70.4" y="-10.0"/>
    </contour>
  </outline>
</glyph>
<glyph name="seven" format="2">
  <advance width="369.0"/>
  <unicode hex="0037"/>
  <outline>
    <contour>
      <point x="83.1" y="0.0" type="curve"/>
      <point x="221.39999999999998" y="0.0" type="line"/>
      <point x="221.7" y="126.2"/>
      <point x="236.0" y="215.8"/>
      <point x="274.2" y="350.2" type="curve" smooth="yes"/>
      <point x="345.7" y="605.3" type="line"/>
      <point x="345.7" y="700.0" type="line"/>
      <point x="22.3" y="700.0" type="line"/>
      <point x="22.3" y="578.5" type="line"/>
      <point x="210.3" y="578.5" type="line"/>
      <point x="144.0" y="381.4" type="line" smooth="yes"/>
      <point x="99.8" y="248.5"/>
      <point x="83.1" y="137.6"/>
    </contour>
  </outline>
</glyph>
<glyph name="eight" format="2">
  <advance width="369.0"/>
  <unicode hex="0038"/>
  <outline>
    <contour>
      <point x="177.3" y="401.9" type="curve"/>
      <point x="241.39999999999998" y="349.9" type="line"/>
      <point x="311.5" y="406.1"/>
      <point x="341.9" y="467.0"/>
      <point x="341.9" y="539.6" type="curve" smooth="yes"/>
      <point x="341.9" y="645.4"/>
      <point x="283.9" y="710.0"/>
      <point x="189.0" y="710.0" type="curve" smooth="yes"/>
      <point x="83.6" y="710.0"/>
      <point x="24.9" y="644.0"/>
      <point x="24.9" y="524.2" type="curve" smooth="yes"/>
      <point x="24.9" y="313.0"/>
      <point x="230.7" y="320.6"/>
      <point x="230.7" y="176.7" type="curve" smooth="yes"/>
      <point x="230.7" y="130.8"/>
      <point x="214.5" y="105.19999999999999"/>
      <point x="186.9" y="105.19999999999999" type="curve" smooth="yes"/>
      <point x="156.6" y="105.19999999999999"/>
      <point x="139.3" y="133.5"/>
      <point x="139.3" y="187.8" type="curve" smooth="yes"/>
      <point x="139.3" y="244.1"/>
      <point x="156.1" y="277.8"/>
      <point x="191.5" y="312.7" type="curve"/>
      <point x="120.1" y="373.0" type="line"/>
      <point x="49.0" y="324.3"/>
      <point x="15.7" y="259.7"/>
      <point x="15.7" y="178.5" type="curve" smooth="yes"/>
      <point x="15.7" y="58.2"/>
      <point x="76.4" y="-10.0"/>
      <point x="182.4" y="-10.0" type="curve" smooth="yes"/>
      <point x="293.0" y="-10.0"/>
      <point x="354.3" y="57.9"/>
      <point x="354.3" y="181.3" type="curve" smooth="yes"/>
      <point x="354.3" y="411.4"/>
      <point x="145.7" y="389.3"/>
      <point x="145.7" y="526.8" type="curve" smooth="yes"/>
      <point x="145.7" y="566.5"/>
      <point x="161.0" y="592.3"/>
      <point x="184.1" y="592.3" type="curve" smooth="yes"/>
      <point x="211.7" y="592.3"/>
      <point x="226.7" y="566.5"/>
      <point x="226.7" y="517.6" type="curve" smooth="yes"/>
      <point x="226.7" y="466.2"/>
      <point x="215.7" y="434.8"/>
    </contour>
  </outline>
</glyph>
<glyph name="nine" format="2">
  <advance width="369.0"/>
  <unicode hex="0039"/>
  <outline>
    <contour>
      <point x="151.9" y="-10.0" type="curve" smooth="yes"/>
      <point x="287.7" y="-10.0"/>
      <point x="357.3" y="114.2"/>
      <point x="357.3" y="374.4" type="curve" smooth="yes"/>
      <point x="357.3" y="610.6"/>
      <point x="304.6" y="710.0"/>
      <point x="186.5" y="710.0" type="curve" smooth="yes"/>
      <point x="74.4" y="710.0"/>
      <point x="17.7" y="627.0"/>
      <point x="17.7" y="465.4" type="curve" smooth="yes"/>
      <point x="17.7" y="334.0"/>
      <point x="64.1" y="255.7"/>
      <point x="142.1" y="255.7" type="curve" smooth="yes"/>
      <point x="182.7" y="255.7"/>
      <point x="214.1" y="276.6"/>
      <point x="235.1" y="312.1" type="curve"/>
      <point x="240.0" y="421.1" type="line"/>
      <point x="227.1" y="383.0"/>
      <point x="209.1" y="362.2"/>
      <point x="186.5" y="362.2" type="curve" smooth="yes"/>
      <point x="161.8" y="362.2"/>
      <point x="146.89999999999998" y="399.5"/>
      <point x="146.89999999999998" y="470.5" type="curve" smooth="yes"/>
      <point x="146.89999999999998" y="554.0"/>
      <point x="161.6" y="591.9"/>
      <point x="185.39999999999998" y="591.9" type="curve" smooth="yes"/>
      <point x="213.4" y="591.9"/>
      <point x="222.5" y="558.0"/>
      <point x="222.5" y="348.0" type="curve" smooth="yes"/>
      <point x="222.5" y="195.2"/>
      <point x="217.3" y="116.5"/>
      <point x="130.1" y="116.5" type="curve" smooth="yes"/>
      <point x="105.5" y="116.5"/>
      <point x="81.5" y="126.1"/>
      <point x="65.3" y="140.6" type="curve"/>
      <point x="23.6" y="27.9" type="line"/>
      <point x="50.2" y="5.8999999999999995"/>
      <point x="105.4" y="-10.0"/>
    </contour>
  </outline>
</glyph>
<glyph name="less" format="2">
  <advance width="405.0"/>
  <unicode hex="003C"/>
  <outline>
    <contour>
      <point x="378.3" y="102.3" type="line"/>
      <point x="378.3" y="208.89999999999998" type="line"/>
      <point x="147.5" y="305.4" type="line"/>
      <point x="378.3" y="402.9" type="line"/>
      <point x="378.3" y="508.2" type="line"/>
      <point x="26.700000000000003" y="363.7" type="line"/>
      <point x="26.700000000000003" y="247.1" type="line"/>
    </contour>
  </outline>
</glyph>
<glyph name="equal" format="2">
  <advance width="391.0"/>
  <unicode hex="003D"/>
  <outline>
    <contour>
      <point x="349.9" y="255.8" type="line"/>
      <point x="41.1" y="255.8" type="line"/>
      <point x="41.1" y="137.8" type="line"/>
      <point x="349.9" y="137.8" type="line"/>
    </contour>
    <contour>
      <point x="349.9" y="474.0" type="line"/>
      <point x="41.1" y="474.0" type="line"/>
      <point x="41.1" y="356.0" type="line"/>
      <point x="349.9" y="356.0" type="line"/>
    </contour>
  </outline>
</glyph>
<glyph name="greater" format="2">
  <advance width="405.0"/>
  <unicode hex="003E"/>
  <outline>
    <contour>
      <point x="378.3" y="246.8" type="line"/>
      <point x="378.3" y="363.4" type="line"/>
      <point x="26.700000000000003" y="508.2" type="line"/>
      <point x="26.700000000000003" y="402.3" type="line"/>
      <point x="257.5" y="305.1" type="line"/>
      <point x="26.700000000000003" y="208.3" type="line"/>
      <point x="26.700000000000003" y="102.3" type="line"/>
    </contour>
  </outline>
</glyph>
<glyph name="question" format="2">
  <advance width="322.4"/>
  <unicode hex="003F"/>
  <outline>
    <contour>
      <point x="92.3" y="260.5" type="line"/>
      <point x="205.39999999999998" y="260.5" type="line"/>
      <point x="205.39999999999998" y="335.0" type="line"/>
      <point x="279.7" y="385.9"/>
      <point x="311.9" y="458.3"/>
      <point x="311.9" y="557.7" type="curve" smooth="yes"/>
      <point x="311.9" y="682.7"/>
      <point x="248.39999999999998" y="749.3"/>
      <point x="138.3" y="749.3" type="curve" smooth="yes"/>
      <point x="86.9" y="749.3"/>
      <point x="39.6" y="729.0"/>
      <point x="6.6" y="699.8" type="curve"/>
      <point x="54.3" y="579.7" type="line"/>
      <point x="81.9" y="603.6"/>
      <point x="99.0" y="607.8"/>
      <point x="118.0" y="607.8" type="curve" smooth="yes"/>
      <point x="156.0" y="607.8"/>
      <point x="178.2" y="576.1"/>
      <point x="178.2" y="531.7" type="curve" smooth="yes"/>
      <point x="178.2" y="484.5"/>
      <point x="162.6" y="440.7"/>
      <point x="89.5" y="392.3" type="curve"/>
    </contour>
    <contour>
      <point x="79.6" y="80.0" type="curve" smooth="yes"/>
      <point x="79.6" y="20.599999999999998"/>
      <point x="99.4" y="-7.0"/>
      <point x="149.2" y="-7.0" type="curve" smooth="yes"/>
      <point x="197.89999999999998" y="-7.0"/>
      <point x="218.5" y="20.599999999999998"/>
      <point x="218.5" y="80.0" type="curve" smooth="yes"/>
      <point x="218.5" y="140.1"/>
      <point x="197.89999999999998" y="167.7"/>
      <point x="149.2" y="167.7" type="curve" smooth="yes"/>
      <point x="98.8" y="167.7"/>
      <point x="79.6" y="140.1"/>
    </contour>
  </outline>
</glyph>
<glyph name="at" format="2">
  <advance width="680.8"/>
  <unicode hex="0040"/>
  <outline>
    <contour>
      <point x="350.6" y="-124.39999999999999" type="curve" smooth="yes"/>
      <point x="403.4" y="-124.39999999999999"/>
      <point x="474.4" y="-105.0"/>
      <point x="507.59999999999997" y="-79.99999999999999" type="curve"/>
      <point x="487.99999999999994" y="-28.000000000000004" type="line"/>
      <point x="447.6" y="-47.80000000000001"/>
      <point x="399.59999999999997" y="-61.20000000000001"/>
      <point x="350.2" y="-61.20000000000001" type="curve" smooth="yes"/>
      <point x="201.0" y="-61.20000000000001"/>
      <point x="94.0" y="19.2"/>
      <point x="94.0" y="263.8" type="curve" smooth="yes"/>
      <point x="94.0" y="491.2"/>
      <point x="177.6" y="650.6"/>
      <point x="354.4" y="650.6" type="curve" smooth="yes"/>
      <point x="532.6" y="650.6"/>
      <point x="593.8" y="540.4000000000001"/>
      <point x="593.8" y="338.2" type="curve" smooth="yes"/>
      <point x="593.8" y="221.0"/>
      <point x="562.0" y="132.2"/>
      <point x="524.6" y="132.2" type="curve" smooth="yes"/>
      <point x="496.4" y="132.2"/>
      <point x="475.0" y="153.4"/>
      <point x="481.59999999999997" y="247.20000000000002" type="curve" smooth="yes"/>
      <point x="503.4" y="525.8000000000001" type="line"/>
      <point x="454.6" y="547.6"/>
      <point x="415.4" y="557.8000000000001"/>
      <point x="357.8" y="557.8000000000001" type="curve" smooth="yes"/>
      <point x="227.6" y="557.8000000000001"/>
      <point x="174.2" y="424.59999999999997"/>
      <point x="174.2" y="257.2" type="curve" smooth="yes"/>
      <point x="174.2" y="100.2"/>
      <point x="221.79999999999998" y="49.800000000000004"/>
      <point x="279.8" y="49.800000000000004" type="curve" smooth="yes"/>
      <point x="330.0" y="49.800000000000004"/>
      <point x="358.2" y="82.8"/>
      <point x="387.59999999999997" y="149.60000000000002" type="curve"/>
      <point x="400.2" y="79.4"/>
      <point x="433.2" y="42.800000000000004"/>
      <point x="499.4" y="42.800000000000004" type="curve" smooth="yes"/>
      <point x="603.2" y="42.800000000000004"/>
      <point x="661.4" y="172.8"/>
      <point x="661.4" y="350.8" type="curve" smooth="yes"/>
      <point x="661.4" y="594.6"/>
      <point x="542.8" y="710.0"/>
      <point x="365.6" y="710.0" type="curve" smooth="yes"/>
      <point x="132.0" y="710.0"/>
      <point x="20.799999999999997" y="531.0"/>
      <point x="20.799999999999997" y="273.59999999999997" type="curve" smooth="yes"/>
      <point x="20.799999999999997" y="-5.400000000000002"/>
      <point x="149.0" y="-124.39999999999999"/>
    </contour>
    <contour>
      <point x="330.4" y="174.79999999999998" type="curve" smooth="yes"/>
      <point x="317.4" y="174.79999999999998"/>
      <point x="304.8" y="193.39999999999998"/>
      <point x="304.8" y="250.2" type="curve" smooth="yes"/>
      <point x="304.8" y="350.0"/>
      <point x="323.59999999999997" y="467.40000000000003"/>
      <point x="359.59999999999997" y="467.40000000000003" type="curve" smooth="yes"/>
      <point x="367.0" y="467.40000000000003"/>
      <point x="375.4" y="463.40000000000003"/>
      <point x="382.59999999999997" y="459.6" type="curve"/>
      <point x="366.59999999999997" y="286.0" type="line" smooth="yes"/>
      <point x="356.8" y="188.8"/>
      <point x="349.59999999999997" y="174.79999999999998"/>
    </contour>
  </outline>
</glyph>
<glyph name="A" format="2">
  <advance width="393.9"/>
  <unicode hex="0041"/>
  <anchor x="386.5" y="0.0" name="ogonek"/>
  <anchor x="196.2" y="0.0" name="bottom"/>
  <anchor x="196.2" y="700.0" name="top"/>
  <outline>
    <contour>
      <point x="7.4" y="0.0" type="line"/>
      <point x="136.6" y="0.0" type="line"/>
      <point x="152.0" y="130.0" type="line"/>
      <point x="239.4" y="130.0" type="line"/>
      <point x="255.9" y="0.0" type="line"/>
      <point x="386.5" y="0.0" type="line"/>
      <point x="287.5" y="703.0" type="line"/>
      <point x="103.5" y="703.0" type="line"/>
    </contour>
    <contour>
      <point x="163.39999999999998" y="268.7" type="line"/>
      <point x="196.2" y="600.4" type="line"/>
      <point x="228.0" y="268.7" type="line"/>
    </contour>
  </outline>
</glyph>
<glyph name="B" format="2">
  <advance width="380.2"/>
  <unicode hex="0042"/>
  <anchor x="186.39999999999998" y="700.0" name="top"/>
  <anchor x="186.39999999999998" y="0.0" name="bottom"/>
  <outline>
    <contour>
      <point x="28.3" y="1.6999999999999993" type="line"/>
      <point x="114.0" y="-8.3"/>
      <point x="121.8" y="-10.0"/>
      <point x="181.2" y="-10.0" type="curve" smooth="yes"/>
      <point x="310.8" y="-10.0"/>
      <point x="369.1" y="55.9"/>
      <point x="369.1" y="203.4" type="curve" smooth="yes"/>
      <point x="369.1" y="283.7"/>
      <point x="338.6" y="349.1"/>
      <point x="286.6" y="380.1" type="curve"/>
      <point x="286.6" y="381.8" type="line"/>
      <point x="325.6" y="411.2"/>
      <point x="348.9" y="467.9"/>
      <point x="348.9" y="535.4" type="curve" smooth="yes"/>
      <point x="348.9" y="653.6"/>
      <point x="294.5" y="710.0"/>
      <point x="181.2" y="710.0" type="curve" smooth="yes"/>
      <point x="141.2" y="710.0"/>
      <point x="90.1" y="705.9"/>
      <point x="28.3" y="697.7" type="curve"/>
    </contour>
    <contour>
      <point x="157.5" y="406.0" type="line"/>
      <point x="157.5" y="580.9" type="line"/>
      <point x="165.6" y="583.9"/>
      <point x="174.0" y="584.9"/>
      <point x="184.3" y="584.9" type="curve" smooth="yes"/>
      <point x="217.9" y="584.9"/>
      <point x="234.4" y="555.3"/>
      <point x="234.4" y="494.1" type="curve" smooth="yes"/>
      <point x="234.4" y="438.7"/>
      <point x="217.4" y="406.0"/>
      <point x="185.3" y="406.0" type="curve" smooth="yes"/>
    </contour>
    <contour>
      <point x="157.5" y="117.69999999999999" type="curve"/>
      <point x="157.5" y="297.1" type="line"/>
      <point x="184.1" y="297.1" type="line" smooth="yes"/>
      <point x="223.0" y="297.1"/>
      <point x="242.0" y="265.7"/>
      <point x="242.0" y="207.2" type="curve" smooth="yes"/>
      <point x="242.0" y="142.6"/>
      <point x="224.9" y="114.69999999999999"/>
      <point x="184.1" y="114.69999999999999" type="curve" smooth="yes"/>
      <point x="176.2" y="114.69999999999999"/>
      <point x="169.0" y="115.69999999999999"/>
    </contour>
  </outline>
</glyph>
<glyph name="C" format="2">
  <advance width="329.6"/>
  <unicode hex="0043"/>
  <anchor x="194.7" y="700.0" name="top"/>
  <anchor x="200.7" y="0.0" name="bottom"/>
  <outline>
    <contour>
      <point x="14.700000000000001" y="345.8" type="curve" smooth="yes"/>
      <point x="14.700000000000001" y="79.2"/>
      <point x="72.9" y="-10.0"/>
      <point x="205.8" y="-10.0" type="curve" smooth="yes"/>
      <point x="246.6" y="-10.0"/>
      <point x="287.4" y="-3.1000000000000005"/>
      <point x="319.4" y="12.0" type="curve"/>
      <point x="297.2" y="134.6" type="line"/>
      <point x="279.0" y="126.8"/>
      <point x="249.2" y="120.69999999999999"/>
      <point x="230.6" y="120.69999999999999" type="curve" smooth="yes"/>
      <point x="168.89999999999998" y="120.69999999999999"/>
      <point x="144.6" y="166.0"/>
      <point x="144.6" y="342.3" type="curve" smooth="yes"/>
      <point x="144.6" y="531.6"/>
      <point x="170.3" y="579.7"/>
      <point x="229.7" y="579.7" type="curve" smooth="yes"/>
      <point x="252.0" y="579.7"/>
      <point x="270.1" y="575.6"/>
      <point x="295.4" y="566.1" type="curve"/>
      <point x="321.1" y="687.0" type="line"/>
      <point x="293.8" y="701.7"/>
      <point x="251.7" y="710.0"/>
      <point x="210.5" y="710.0" type="curve" smooth="yes"/>
      <point x="73.3" y="710.0"/>
      <point x="14.700000000000001" y="612.9"/>
    </contour>
  </outline>
</glyph>
<glyph name="D" format="2">
  <advance width="390.6"/>
  <unicode hex="0044"/>
  <anchor x="189.2" y="700.0" name="top"/>
  <outline>
    <contour>
      <point x="168.8" y="-10.0" type="curve" smooth="yes"/>
      <point x="318.6" y="-10.0"/>
      <point x="375.9" y="92.1"/>
      <point x="375.9" y="352.8" type="curve" smooth="yes"/>
      <point x="375.9" y="606.8"/>
      <point x="328.4" y="710.0"/>
      <point x="171.9" y="710.0" type="curve" smooth="yes"/>
      <point x="117.7" y="710.0"/>
      <point x="75.2" y="707.3"/>
      <point x="28.3" y="699.8" type="curve"/>
      <point x="28.3" y="-1.8000000000000007" type="line"/>
      <point x="67.2" y="-7.6"/>
      <point x="115.6" y="-10.0"/>
    </contour>
    <contour>
      <point x="182.0" y="113.69999999999999" type="curve" smooth="yes"/>
      <point x="171.39999999999998" y="113.69999999999999"/>
      <point x="165.39999999999998" y="114.69999999999999"/>
      <point x="156.8" y="116.0" type="curve"/>
      <point x="156.8" y="581.6" type="line"/>
      <point x="164.8" y="583.6"/>
      <point x="174.8" y="584.6"/>
      <point x="182.89999999999998" y="584.6" type="curve" smooth="yes"/>
      <point x="229.8" y="584.6"/>
      <point x="242.2" y="542.2"/>
      <point x="242.2" y="350.0" type="curve" smooth="yes"/>
      <point x="242.2" y="165.5"/>
      <point x="229.0" y="113.69999999999999"/>
    </contour>
  </outline>
</glyph>
<glyph name="E" format="2">
  <advance width="325.1"/>
  <unicode hex="0045"/>
  <anchor x="313.4" y="0.0" name="ogonek"/>
  <anchor x="170.3" y="0.0" name="bottom"/>
  <anchor x="168.8" y="700.0" name="top"/>
  <outline>
    <contour>
      <point x="28.3" y="0.0" type="line"/>
      <point x="313.4" y="0.0" type="line"/>
      <point x="313.4" y="130.6" type="line"/>
      <point x="157.5" y="130.6" type="line"/>
      <point x="157.5" y="291.0" type="line"/>
      <point x="282.1" y="291.0" type="line"/>
      <point x="282.1" y="414.3" type="line"/>
      <point x="157.5" y="414.3" type="line"/>
      <point x="157.5" y="565.9" type="line"/>
      <point x="302.7" y="565.9" type="line"/>
      <point x="302.7" y="700.0" type="line"/>
      <point x="28.3" y="700.0" type="line"/>
    </contour>
  </outline>
</glyph>
<glyph name="F" format="2">
  <advance width="311.6"/>
  <unicode hex="0046"/>
  <outline>
    <contour>
      <point x="28.3" y="0.0" type="line"/>
      <point x="158.2" y="0.0" type="line"/>
      <point x="158.2" y="250.60000000000002" type="line"/>
      <point x="276.4" y="250.60000000000002" type="line"/>
      <point x="276.4" y="384.4" type="line"/>
      <point x="156.8" y="384.4" type="line"/>
      <point x="156.8" y="565.9" type="line"/>
      <point x="302.0" y="565.9" type="line"/>
      <point x="302.0" y="700.0" type="line"/>
      <point x="28.3" y="700.0" type="line"/>
    </contour>
  </outline>
</glyph>
<glyph name="G" format="2">
  <advance width="370.9"/>
  <unicode hex="0047"/>
  <anchor x="198.2" y="700.0" name="top"/>
  <anchor x="198.8" y="0.0" name="bottom"/>
  <outline>
    <contour>
      <point x="14.700000000000001" y="347.2" type="curve" smooth="yes"/>
      <point x="14.700000000000001" y="99.9"/>
      <point x="69.2" y="-10.0"/>
      <point x="194.6" y="-10.0" type="curve" smooth="yes"/>
      <point x="256.2" y="-10.0"/>
      <point x="305.9" y="3.5"/>
      <point x="349.1" y="33.0" type="curve"/>
      <point x="349.1" y="392.2" type="line"/>
      <point x="185.6" y="392.2" type="line"/>
      <point x="185.6" y="266.8" type="line"/>
      <point x="230.4" y="266.8" type="line"/>
      <point x="230.4" y="120.5" type="line"/>
      <point x="223.6" y="116.1"/>
      <point x="212.4" y="113.69999999999999"/>
      <point x="198.4" y="113.69999999999999" type="curve" smooth="yes"/>
      <point x="158.3" y="113.69999999999999"/>
      <point x="143.2" y="171.0"/>
      <point x="143.2" y="337.4" type="curve" smooth="yes"/>
      <point x="143.2" y="511.9"/>
      <point x="167.39999999999998" y="581.1"/>
      <point x="228.3" y="581.1" type="curve" smooth="yes"/>
      <point x="254.1" y="581.1"/>
      <point x="289.0" y="574.2"/>
      <point x="310.8" y="565.4" type="curve"/>
      <point x="333.7" y="687.7" type="line"/>
      <point x="307.3" y="700.0"/>
      <point x="251.2" y="710.0"/>
      <point x="212.6" y="710.0" type="curve" smooth="yes"/>
      <point x="74.0" y="710.0"/>
      <point x="14.700000000000001" y="598.8"/>
    </contour>
  </outline>
</glyph>
<glyph name="H" format="2">
  <advance width="395.5"/>
  <unicode hex="0048"/>
  <anchor x="198.1" y="700.0" name="top"/>
  <outline>
    <contour>
      <point x="28.3" y="0.0" type="line"/>
      <point x="156.8" y="0.0" type="line"/>
      <point x="156.8" y="246.9" type="line"/>
      <point x="238.7" y="246.9" type="line"/>
      <point x="238.7" y="0.0" type="line"/>
      <point x="367.2" y="0.0" type="line"/>
      <point x="367.2" y="700.0" type="line"/>
      <point x="238.7" y="700.0" type="line"/>
      <point x="238.7" y="382.1" type="line"/>
      <point x="156.8" y="382.1" type="line"/>
      <point x="156.8" y="700.0" type="line"/>
      <point x="28.3" y="700.0" type="line"/>
    </contour>
  </outline>
</glyph>
<glyph name="I" format="2">
  <advance width="185.1"/>
  <unicode hex="0049"/>
  <anchor x="156.8" y="0.0" name="ogonek"/>
  <anchor x="92.9" y="0.0" name="bottom"/>
  <anchor x="92.9" y="700.0" name="top"/>
  <outline>
    <contour>
      <point x="28.3" y="0.0" type="line"/>
      <point x="156.8" y="0.0" type="line"/>
      <point x="156.8" y="700.0" type="line"/>
      <point x="28.3" y="700.0" type="line"/>
    </contour>
  </outline>
</glyph>
<glyph name="J" format="2">
  <advance width="278.3"/>
  <unicode hex="004A"/>
  <anchor x="147.5" y="700.0" name="top"/>
  <outline>
    <contour>
      <point x="1.5" y="15.899999999999999" type="line"/>
      <point x="29.6" y="1.799999999999999"/>
      <point x="66.4" y="-10.0"/>
      <point x="114.3" y="-10.0" type="curve" smooth="yes"/>
      <point x="207.8" y="-10.0"/>
      <point x="252.89999999999998" y="54.9"/>
      <point x="252.89999999999998" y="168.9" type="curve" smooth="yes"/>
      <point x="252.89999999999998" y="700.0" type="line"/>
      <point x="33.9" y="700.0" type="line"/>
      <point x="33.9" y="566.9" type="line"/>
      <point x="124.4" y="566.9" type="line"/>
      <point x="124.4" y="219.1" type="line" smooth="yes"/>
      <point x="124.4" y="137.2"/>
      <point x="106.5" y="118.89999999999999"/>
      <point x="66.0" y="118.89999999999999" type="curve" smooth="yes"/>
      <point x="54.5" y="118.89999999999999"/>
      <point x="37.5" y="122.69999999999999"/>
      <point x="23.299999999999997" y="127.69999999999999" type="curve"/>
    </contour>
  </outline>
</glyph>
<glyph name="K" format="2">
  <advance width="399.59999999999997"/>
  <unicode hex="004B"/>
  <anchor x="202.2" y="700.0" name="top"/>
  <anchor x="214.79999999999998" y="0.0" name="bottom"/>
  <outline>
    <contour>
      <point x="361.2" y="-10.0" type="curve" smooth="yes"/>
      <point x="368.4" y="-10.0"/>
      <point x="375.2" y="-10.0"/>
      <point x="385.0" y="-8.0" type="curve"/>
      <point x="385.0" y="154.8" type="line"/>
      <point x="381.99999999999994" y="154.79999999999998"/>
      <point x="378.59999999999997" y="154.79999999999998"/>
      <point x="375.6" y="154.79999999999998" type="curve" smooth="yes"/>
      <point x="362.59999999999997" y="154.79999999999998"/>
      <point x="344.19999999999993" y="162.0"/>
      <point x="300.4" y="232.2" type="curve" smooth="yes"/>
      <point x="157.8" y="460.2" type="line"/>
      <point x="157.8" y="700.0" type="line"/>
      <point x="28.6" y="700.0" type="line"/>
      <point x="28.6" y="0.0" type="line"/>
      <point x="157.8" y="0.0" type="line"/>
      <point x="157.8" y="231.20000000000005" type="line"/>
      <point x="254.2" y="67.60000000000001" type="line" smooth="yes"/>
      <point x="284.2" y="17.0"/>
      <point x="315.79999999999995" y="-10.0"/>
    </contour>
    <contour>
      <point x="231.59999999999997" y="274.2" type="line"/>
      <point x="314.2" y="377.8"/>
      <point x="371.4" y="504.8"/>
      <point x="394.4" y="673.8" type="curve"/>
      <point x="276.2" y="700.6" type="line"/>
      <point x="258.0" y="559.0"/>
      <point x="200.6" y="440.79999999999995"/>
      <point x="161.8" y="382.0" type="curve"/>
    </contour>
  </outline>
</glyph>
<glyph name="L" format="2">
  <advance width="303.9"/>
  <unicode hex="004C"/>
  <anchor x="152.3" y="350.0" name="center"/>
  <anchor x="92.9" y="700.0" name="top"/>
  <anchor x="200.7" y="700.0" name="topright"/>
  <anchor x="162.4" y="0.0" name="bottom"/>
  <outline>
    <contour>
      <point x="28.3" y="0.0" type="line"/>
      <point x="295.7" y="0.0" type="line"/>
      <point x="295.7" y="130.3" type="line"/>
      <point x="157.5" y="130.3" type="line"/>
      <point x="157.5" y="700.0" type="line"/>
      <point x="28.3" y="700.0" type="line"/>
    </contour>
  </outline>
</glyph>
<glyph name="M" format="2">
  <advance width="476.29999999999995"/>
  <unicode hex="004D"/>
  <outline>
    <contour>
      <point x="28.3" y="0.0" type="line"/>
      <point x="144.2" y="0.0" type="line"/>
      <point x="144.2" y="452.20000000000005" type="line"/>
      <point x="203.7" y="174.10000000000002" type="line"/>
      <point x="270.9" y="174.10000000000002" type="line"/>
      <point x="332.1" y="451.9" type="line"/>
      <point x="332.1" y="0.0" type="line"/>
      <point x="448.0" y="0.0" type="line"/>
      <point x="448.0" y="700.0" type="line"/>
      <point x="313.6" y="700.0" type="line"/>
      <point x="240.39999999999998" y="387.3" type="line"/>
      <point x="167.2" y="700.0" type="line"/>
      <point x="28.3" y="700.0" type="line"/>
    </contour>
  </outline>
</glyph>
<glyph name="N" format="2">
  <advance width="407.3"/>
  <unicode hex="004E"/>
  <anchor x="203.8" y="700.0" name="top"/>
  <anchor x="203.8" y="0.0" name="bottom"/>
  <outline>
    <contour>
      <point x="28.3" y="0.0" type="line"/>
      <point x="142.1" y="0.0" type="line"/>
      <point x="142.1" y="383.70000000000005" type="line"/>
      <point x="244.6" y="0.0" type="line"/>
      <point x="379.0" y="0.0" type="line"/>
      <point x="379.0" y="700.0" type="line"/>
      <point x="265.2" y="700.0" type="line"/>
      <point x="265.2" y="294.1" type="line"/>
      <point x="163.39999999999998" y="700.0" type="line"/>
      <point x="28.3" y="700.0" type="line"/>
    </contour>
  </outline>
</glyph>
<glyph name="O" format="2">
  <advance width="385.0"/>
  <unicode hex="004F"/>
  <anchor x="265.40000000000003" y="8.399999999999999" name="ogonek"/>
  <anchor x="192.39999999999998" y="700.0" name="top"/>
  <anchor x="293.59999999999997" y="697.0" name="topright"/>
  <anchor x="192.0" y="0.0" name="bottom"/>
  <outline>
    <contour>
      <point x="192.39999999999998" y="115.4" type="curve" smooth="yes"/>
      <point x="156.0" y="115.4"/>
      <point x="147.0" y="155.0"/>
      <point x="147.0" y="349.0" type="curve" smooth="yes"/>
      <point x="147.0" y="544.2"/>
      <point x="156.4" y="585.2"/>
      <point x="192.39999999999998" y="585.2" type="curve" smooth="yes"/>
      <point x="229.4" y="585.2"/>
      <point x="238.4" y="545.6"/>
      <point x="238.4" y="350.40000000000003" type="curve" smooth="yes"/>
      <point x="238.4" y="156.39999999999998"/>
      <point x="229.0" y="115.4"/>
    </contour>
    <contour>
      <point x="192.0" y="-10.0" type="curve" smooth="yes"/>
      <point x="316.2" y="-10.0"/>
      <point x="370.0" y="72.19999999999999"/>
      <point x="370.0" y="351.4" type="curve" smooth="yes"/>
      <point x="370.0" y="629.1999999999999"/>
      <point x="317.2" y="710.0"/>
      <point x="192.39999999999998" y="710.0" type="curve" smooth="yes"/>
      <point x="68.2" y="710.0"/>
      <point x="15.000000000000004" y="627.8000000000001"/>
      <point x="15.000000000000004" y="348.6" type="curve" smooth="yes"/>
      <point x="15.000000000000004" y="70.8"/>
      <point x="67.8" y="-10.0"/>
    </contour>
  </outline>
</glyph>
<glyph name="P" format="2">
  <advance width="379.6"/>
  <unicode hex="0050"/>
  <outline>
    <contour>
      <point x="28.3" y="0.0" type="line"/>
      <point x="157.5" y="0.0" type="line"/>
      <point x="157.5" y="198.4" type="line"/>
      <point x="180.1" y="195.3"/>
      <point x="187.39999999999998" y="195.3"/>
      <point x="207.6" y="195.3" type="curve" smooth="yes"/>
      <point x="318.2" y="195.3"/>
      <point x="368.5" y="280.4"/>
      <point x="368.5" y="460.2" type="curve" smooth="yes"/>
      <point x="368.5" y="632.9"/>
      <point x="321.7" y="710.0"/>
      <point x="180.5" y="710.0" type="curve" smooth="yes"/>
      <point x="157.3" y="710.0"/>
      <point x="105.5" y="708.7"/>
      <point x="28.3" y="702.6" type="curve"/>
    </contour>
    <contour>
      <point x="158.2" y="583.7" type="line"/>
      <point x="170.7" y="586.7"/>
      <point x="182.2" y="587.0"/>
      <point x="189.2" y="587.0" type="curve" smooth="yes"/>
      <point x="228.7" y="587.0"/>
      <point x="239.3" y="551.4"/>
      <point x="239.3" y="467.7" type="curve" smooth="yes"/>
      <point x="239.3" y="356.1"/>
      <point x="222.9" y="316.8"/>
      <point x="184.8" y="316.8" type="curve" smooth="yes"/>
      <point x="173.7" y="316.8"/>
      <point x="166.3" y="316.8"/>
      <point x="158.2" y="318.5" type="curve"/>
    </contour>
  </outline>
</glyph>
<glyph name="Q" format="2">
  <advance width="385.0"/>
  <unicode hex="0051"/>
  <outline>
    <contour>
      <point x="281.2" y="41.8" type="curve"/>
      <point x="187.2" y="9.4" type="line"/>
      <point x="202.2" y="-121.39999999999999"/>
      <point x="227.2" y="-175.0"/>
      <point x="299.6" y="-175.0" type="curve" smooth="yes"/>
      <point x="321.4" y="-175.0"/>
      <point x="343.99999999999994" y="-169.6"/>
      <point x="362.0" y="-162.6" type="curve"/>
      <point x="347.59999999999997" y="-32.60000000000001" type="line"/>
      <point x="339.2" y="-36.80000000000001"/>
      <point x="329.4" y="-40.400000000000006"/>
      <point x="320.4" y="-40.400000000000006" type="curve" smooth="yes"/>
      <point x="299.0" y="-40.400000000000006"/>
      <point x="291.2" y="-15.600000000000023"/>
    </contour>
    <component base="O"/>
  </outline>
</glyph>
<glyph name="R" format="2">
  <advance width="391.4"/>
  <unicode hex="0052"/>
  <anchor x="196.2" y="700.0" name="top"/>
  <anchor x="198.6" y="0.0" name="bottom"/>
  <outline>
    <contour>
      <point x="338.59999999999997" y="-10.0" type="curve" smooth="yes"/>
      <point x="360.4" y="-10.0"/>
      <point x="372.4" y="-7.4"/>
      <point x="381.59999999999997" y="-5.0" type="curve"/>
      <point x="379.8" y="139.8" type="line"/>
      <point x="377.6" y="139.8"/>
      <point x="371.59999999999997" y="139.8"/>
      <point x="369.4" y="139.8" type="curve" smooth="yes"/>
      <point x="340.8" y="139.8"/>
      <point x="322.79999999999995" y="156.6"/>
      <point x="289.8" y="278.8" type="curve"/>
      <point x="344.0" y="307.0"/>
      <point x="367.79999999999995" y="388.59999999999997"/>
      <point x="367.79999999999995" y="490.8" type="curve" smooth="yes"/>
      <point x="367.79999999999995" y="643.4"/>
      <point x="303.79999999999995" y="709.6"/>
      <point x="191.0" y="709.6" type="curve" smooth="yes"/>
      <point x="129.6" y="709.6"/>
      <point x="79.60000000000001" y="706.1999999999999"/>
      <point x="28.6" y="700.8" type="curve"/>
      <point x="28.6" y="0.0" type="line"/>
      <point x="155.8" y="0.0" type="line"/>
      <point x="155.8" y="232.8" type="line"/>
      <point x="159.2" y="232.2"/>
      <point x="164.6" y="232.2"/>
      <point x="169.79999999999998" y="232.2" type="curve" smooth="yes"/>
      <point x="173.2" y="232.2"/>
      <point x="177.4" y="232.8"/>
      <point x="180.8" y="233.40000000000003" type="curve"/>
      <point x="243.79999999999998" y="0.0"/>
      <point x="278.8" y="-10.0"/>
    </contour>
    <contour>
      <point x="182.0" y="340.40000000000003" type="curve" smooth="yes"/>
      <point x="170.8" y="340.40000000000003"/>
      <point x="164.2" y="341.4"/>
      <point x="155.8" y="342.4" type="curve"/>
      <point x="155.8" y="583.0" type="line"/>
      <point x="168.6" y="586.0"/>
      <point x="179.8" y="587.0"/>
      <point x="186.8" y="587.0" type="curve" smooth="yes"/>
      <point x="226.6" y="587.0"/>
      <point x="238.0" y="551.4000000000001"/>
      <point x="238.0" y="469.20000000000005" type="curve" smooth="yes"/>
      <point x="238.0" y="382.8"/>
      <point x="220.2" y="340.40000000000003"/>
    </contour>
  </outline>
</glyph>
<glyph name="S" format="2">
  <advance width="354.2"/>
  <unicode hex="0053"/>
  <anchor x="180.1" y="700.0" name="top"/>
  <anchor x="172.2" y="0.0" name="bottom"/>
  <outline>
    <contour>
      <point x="327.9" y="680.6" type="line"/>
      <point x="304.2" y="694.9"/>
      <point x="243.7" y="710.0"/>
      <point x="193.6" y="710.0" type="curve" smooth="yes"/>
      <point x="56.400000000000006" y="710.0"/>
      <point x="13.600000000000001" y="615.1"/>
      <point x="13.600000000000001" y="524.5" type="curve" smooth="yes"/>
      <point x="13.600000000000001" y="422.0"/>
      <point x="62.6" y="360.4"/>
      <point x="112.3" y="312.4" type="curve" smooth="yes"/>
      <point x="163.8" y="262.6"/>
      <point x="216.3" y="227.9"/>
      <point x="216.3" y="174.9" type="curve" smooth="yes"/>
      <point x="216.3" y="133.0"/>
      <point x="186.0" y="113.6"/>
      <point x="144.5" y="113.6" type="curve" smooth="yes"/>
      <point x="112.9" y="113.6"/>
      <point x="77.6" y="121.5"/>
      <point x="31.9" y="138.8" type="curve"/>
      <point x="5.700000000000001" y="24.2" type="line"/>
      <point x="54.599999999999994" y="-0.9000000000000004"/>
      <point x="105.5" y="-10.0"/>
      <point x="150.8" y="-10.0" type="curve" smooth="yes"/>
      <point x="278.2" y="-10.0"/>
      <point x="342.7" y="69.1"/>
      <point x="342.7" y="180.7" type="curve" smooth="yes"/>
      <point x="342.7" y="289.1"/>
      <point x="287.5" y="346.2"/>
      <point x="235.0" y="392.4" type="curve" smooth="yes"/>
      <point x="187.7" y="435.2"/>
      <point x="142.8" y="468.0"/>
      <point x="142.8" y="521.0" type="curve" smooth="yes"/>
      <point x="142.8" y="562.6"/>
      <point x="166.3" y="582.8"/>
      <point x="208.3" y="582.8" type="curve" smooth="yes"/>
      <point x="236.0" y="582.8"/>
      <point x="265.1" y="578.8"/>
      <point x="301.0" y="564.5" type="curve"/>
    </contour>
  </outline>
</glyph>
<glyph name="T" format="2">
  <advance width="347.4"/>
  <unicode hex="0054"/>
  <anchor x="173.7" y="700.0" name="top"/>
  <anchor x="173.7" y="0.0" name="bottom"/>
  <outline>
    <contour>
      <point x="338.9" y="566.9" type="line"/>
      <point x="338.9" y="700.0" type="line"/>
      <point x="8.5" y="700.0" type="line"/>
      <point x="8.5" y="566.9" type="line"/>
      <point x="109.8" y="566.9" type="line"/>
      <point x="109.8" y="0.0" type="line"/>
      <point x="238.3" y="0.0" type="line"/>
      <point x="238.3" y="566.9" type="line"/>
    </contour>
  </outline>
</glyph>
<glyph name="U" format="2">
  <advance width="389.4"/>
  <unicode hex="0055"/>
  <anchor x="260.3" y="1.4" name="ogonek"/>
  <anchor x="195.2" y="700.0" name="top"/>
  <anchor x="364.0" y="700.0" name="topright"/>
  <anchor x="195.2" y="0.0" name="bottom"/>
  <outline>
    <contour>
      <point x="25.4" y="183.6" type="line"/>
      <point x="25.4" y="38.4"/>
      <point x="90.8" y="-10.0"/>
      <point x="193.8" y="-10.0" type="curve" smooth="yes"/>
      <point x="301.7" y="-10.0"/>
      <point x="364.0" y="38.4"/>
      <point x="364.0" y="183.6" type="curve" smooth="yes"/>
      <point x="364.0" y="700.0" type="line"/>
      <point x="234.1" y="700.0" type="line"/>
      <point x="234.1" y="166.1" type="line" smooth="yes"/>
      <point x="234.1" y="123.5"/>
      <point x="217.5" y="112.19999999999999"/>
      <point x="193.8" y="112.19999999999999" type="curve" smooth="yes"/>
      <point x="170.8" y="112.19999999999999"/>
      <point x="153.89999999999998" y="123.5"/>
      <point x="153.89999999999998" y="166.1" type="curve" smooth="yes"/>
      <point x="153.89999999999998" y="700.0" type="line"/>
      <point x="25.4" y="700.0" type="line"/>
    </contour>
  </outline>
</glyph>
<glyph name="V" format="2">
  <advance width="389.19999999999993"/>
  <unicode hex="0056"/>
  <outline>
    <contour>
      <point x="111.80000000000001" y="0.0" type="line"/>
      <point x="282.6" y="0.0" type="line"/>
      <point x="387.59999999999997" y="700.0" type="line"/>
      <point x="249.0" y="700.6" type="line"/>
      <point x="197.2" y="136.2" type="line"/>
      <point x="140.6" y="700.6" type="line"/>
      <point x="1.6000000000000005" y="700.0" type="line"/>
    </contour>
  </outline>
</glyph>
<glyph name="W" format="2">
  <advance width="514.4"/>
  <unicode hex="0057"/>
  <anchor x="257.4" y="700.0" name="top"/>
  <anchor x="257.4" y="0.0" name="bottom"/>
  <outline>
    <contour>
      <point x="437.4" y="0.0" type="line"/>
      <point x="512.8" y="700.0" type="line"/>
      <point x="371.4" y="700.6" type="line"/>
      <point x="357.40000000000003" y="154.0" type="line"/>
      <point x="305.4" y="660.8000000000001" type="line"/>
      <point x="211.39999999999998" y="660.8000000000001" type="line"/>
      <point x="159.39999999999998" y="154.39999999999998" type="line"/>
      <point x="143.0" y="700.6" type="line"/>
      <point x="1.6000000000000014" y="700.0" type="line"/>
      <point x="77.0" y="0.0" type="line"/>
      <point x="216.0" y="0.0" type="line"/>
      <point x="256.2" y="426.79999999999995" type="line"/>
      <point x="294.4" y="0.0" type="line"/>
    </contour>
  </outline>
</glyph>
<glyph name="X" format="2">
  <advance width="411.6"/>
  <unicode hex="0058"/>
  <outline>
    <contour>
      <point x="4.0" y="0.6000000000000001" type="line"/>
      <point x="156.39999999999998" y="-1.2000000000000002" type="line"/>
      <point x="205.89999999999998" y="267.3" type="line"/>
      <point x="254.2" y="-1.2000000000000002" type="line"/>
      <point x="407.29999999999995" y="0.6000000000000001" type="line"/>
      <point x="306.79999999999995" y="355.9" type="line"/>
      <point x="399.9" y="699.1" type="line"/>
      <point x="250.3" y="700.9" type="line"/>
      <point x="206.1" y="444.2" type="line"/>
      <point x="161.0" y="700.9" type="line"/>
      <point x="12.100000000000001" y="699.1" type="line"/>
      <point x="104.8" y="355.4" type="line"/>
    </contour>
  </outline>
</glyph>
<glyph name="Y" format="2">
  <advance width="387.2"/>
  <unicode hex="0059"/>
  <anchor x="193.89999999999998" y="700.0" name="top"/>
  <anchor x="193.6" y="0.0" name="bottom"/>
  <outline>
    <contour>
      <point x="129.3" y="0.0" type="line"/>
      <point x="257.8" y="0.0" type="line"/>
      <point x="257.8" y="240.10000000000002" type="line"/>
      <point x="384.7" y="699.1" type="line"/>
      <point x="238.6" y="700.9" type="line"/>
      <point x="193.89999999999998" y="337.0" type="line"/>
      <point x="147.39999999999998" y="700.9" type="line"/>
      <point x="1.3000000000000007" y="699.1" type="line"/>
      <point x="129.3" y="240.10000000000002" type="line"/>
    </contour>
  </outline>
</glyph>
<glyph name="Z" format="2">
  <advance width="355.0"/>
  <unicode hex="005A"/>
  <anchor x="179.8" y="350.0" name="center"/>
  <anchor x="179.8" y="0.0" name="bottom"/>
  <anchor x="183.4" y="700.0" name="top"/>
  <outline>
    <contour>
      <point x="11.8" y="0.0" type="line"/>
      <point x="343.8" y="0.0" type="line"/>
      <point x="343.8" y="126.4" type="line"/>
      <point x="140.79999999999998" y="126.4" type="line"/>
      <point x="140.79999999999998" y="127.39999999999999" type="line"/>
      <point x="337.79999999999995" y="569.8" type="line"/>
      <point x="337.79999999999995" y="700.0" type="line"/>
      <point x="20.0" y="700.0" type="line"/>
      <point x="20.0" y="574.2" type="line"/>
      <point x="207.4" y="574.2" type="line"/>
      <point x="207.4" y="572.6" type="line"/>
      <point x="11.8" y="130.8" type="line"/>
    </contour>
  </outline>
</glyph>
<glyph name="bracketleft" format="2">
  <advance width="218.6"/>
  <unicode hex="005B"/>
  <outline>
    <contour>
      <point x="123.9" y="-100.4" type="line"/>
      <point x="123.9" y="630.4" type="line"/>
      <point x="211.2" y="630.4" type="line"/>
      <point x="211.2" y="740.0" type="line"/>
      <point x="24.8" y="740.0" type="line"/>
      <point x="24.8" y="-210.0" type="line"/>
      <point x="211.2" y="-210.0" type="line"/>
      <point x="211.2" y="-100.4" type="line"/>
    </contour>
  </outline>
</glyph>
<glyph name="backslash" format="2">
  <advance width="330.0"/>
  <unicode hex="005C"/>
  <outline>
    <contour>
      <point x="104.3" y="740.0" type="line"/>
      <point x="-6.399999999999999" y="740.0" type="line"/>
      <point x="226.4" y="-210.0" type="line"/>
      <point x="336.4" y="-210.0" type="line"/>
    </contour>
  </outline>
</glyph>
<glyph name="bracketright" format="2">
  <advance width="218.6"/>
  <unicode hex="005D"/>
  <outline>
    <contour>
      <point x="7.4" y="-100.4" type="line"/>
      <point x="7.4" y="-210.0" type="line"/>
      <point x="193.8" y="-210.0" type="line"/>
      <point x="193.8" y="740.0" type="line"/>
      <point x="7.4" y="740.0" type="line"/>
      <point x="7.4" y="630.4" type="line"/>
      <point x="94.7" y="630.4" type="line"/>
      <point x="94.7" y="-100.4" type="line"/>
    </contour>
  </outline>
</glyph>
<glyph name="asciicircum" format="2">
  <advance width="405.0"/>
  <unicode hex="005E"/>
  <outline>
    <contour>
      <point x="45.6" y="253.1" type="line"/>
      <point x="139.39999999999998" y="253.1" type="line"/>
      <point x="202.5" y="567.6" type="line"/>
      <point x="266.3" y="253.1" type="line"/>
      <point x="359.4" y="253.1" type="line"/>
      <point x="267.8" y="703.0" type="line"/>
      <point x="137.2" y="703.0" type="line"/>
    </contour>
  </outline>
</glyph>
<glyph name="underscore" format="2">
  <advance width="620.6"/>
  <unicode hex="005F"/>
  <outline>
    <contour>
      <point x="14.0" y="-187.1" type="line"/>
      <point x="606.6" y="-187.1" type="line"/>
      <point x="606.6" y="-63.5" type="line"/>
      <point x="14.0" y="-63.5" type="line"/>
    </contour>
  </outline>
</glyph>
<glyph name="a" format="2">
  <advance width="367.19999999999993"/>
  <unicode hex="0061"/>
  <anchor x="366.0" y="10.2" name="ogonek"/>
  <anchor x="179.6" y="0.0" name="bottom"/>
  <anchor x="173.8" y="544.0" name="top"/>
  <outline>
    <contour>
      <point x="5.800000000000001" y="146.6" type="curve" smooth="yes"/>
      <point x="5.800000000000001" y="64.6"/>
      <point x="37.0" y="-10.0"/>
      <point x="116.0" y="-10.0" type="curve" smooth="yes"/>
      <point x="159.0" y="-10.0"/>
      <point x="181.6" y="4.200000000000001"/>
      <point x="208.0" y="32.0" type="curve"/>
      <point x="222.2" y="5.0"/>
      <point x="246.20000000000002" y="-10.0"/>
      <point x="289.2" y="-10.0" type="curve" smooth="yes"/>
      <point x="324.40000000000003" y="-10.0"/>
      <point x="346.8" y="-1.0000000000000009"/>
      <point x="366.0" y="10.2" type="curve"/>
      <point x="356.2" y="128.2" type="line"/>
      <point x="350.79999999999995" y="125.4"/>
      <point x="344.19999999999993" y="124.39999999999998"/>
      <point x="338.4" y="124.39999999999998" type="curve" smooth="yes"/>
      <point x="331.99999999999994" y="124.39999999999998"/>
      <point x="326.0" y="129.6"/>
      <point x="326.0" y="151.79999999999998" type="curve" smooth="yes"/>
      <point x="326.0" y="372.4" type="line" smooth="yes"/>
      <point x="326.0" y="487.0"/>
      <point x="281.4" y="554.0"/>
      <point x="156.8" y="554.0" type="curve" smooth="yes"/>
      <point x="119.39999999999999" y="554.0"/>
      <point x="64.0" y="543.0"/>
      <point x="23.8" y="525.4" type="curve"/>
      <point x="51.800000000000004" y="402.8" type="line"/>
      <point x="97.6" y="418.4"/>
      <point x="124.19999999999999" y="420.8"/>
      <point x="143.2" y="420.8" type="curve" smooth="yes"/>
      <point x="174.2" y="420.8"/>
      <point x="199.0" y="402.6"/>
      <point x="199.0" y="368.8" type="curve" smooth="yes"/>
      <point x="199.0" y="325.2" type="line"/>
      <point x="77.0" y="305.0"/>
      <point x="5.800000000000001" y="268.4"/>
    </contour>
    <contour>
      <point x="131.79999999999998" y="160.4" type="curve" smooth="yes"/>
      <point x="131.79999999999998" y="218.8"/>
      <point x="161.8" y="231.8"/>
      <point x="199.0" y="238.6" type="curve"/>
      <point x="199.0" y="112.99999999999999" type="line"/>
      <point x="191.8" y="102.4"/>
      <point x="178.39999999999998" y="94.4"/>
      <point x="164.6" y="94.4" type="curve" smooth="yes"/>
      <point x="145.0" y="94.4"/>
      <point x="131.79999999999998" y="113.6"/>
    </contour>
  </outline>
</glyph>
<glyph name="b" format="2">
  <advance width="367.3"/>
  <unicode hex="0062"/>
  <outline>
    <contour>
      <point x="26.5" y="14.5" type="line"/>
      <point x="69.8" y="-0.40000000000000036"/>
      <point x="123.8" y="-10.0"/>
      <point x="165.2" y="-10.0" type="curve" smooth="yes"/>
      <point x="301.7" y="-10.0"/>
      <point x="351.6" y="69.8"/>
      <point x="351.6" y="288.6" type="curve" smooth="yes"/>
      <point x="351.6" y="469.4"/>
      <point x="311.6" y="554.0"/>
      <point x="224.39999999999998" y="554.0" type="curve" smooth="yes"/>
      <point x="202.8" y="554.0"/>
      <point x="172.39999999999998" y="543.6"/>
      <point x="155.0" y="530.5" type="curve"/>
      <point x="155.0" y="740.0" type="line"/>
      <point x="26.5" y="740.0" type="line"/>
    </contour>
    <contour>
      <point x="155.0" y="101.8" type="curve"/>
      <point x="155.0" y="418.8" type="line"/>
      <point x="165.3" y="426.7"/>
      <point x="171.89999999999998" y="429.6"/>
      <point x="181.6" y="429.6" type="curve" smooth="yes"/>
      <point x="205.6" y="429.6"/>
      <point x="215.4" y="390.9"/>
      <point x="215.4" y="273.9" type="curve" smooth="yes"/>
      <point x="215.4" y="131.4"/>
      <point x="206.5" y="97.3"/>
      <point x="174.89999999999998" y="97.3" type="curve" smooth="yes"/>
      <point x="169.2" y="97.3"/>
      <point x="164.39999999999998" y="98.6"/>
    </contour>
  </outline>
</glyph>
<glyph name="c" format="2">
  <advance width="307.4"/>
  <unicode hex="0063"/>
  <anchor x="191.0" y="544.0" name="top"/>
  <anchor x="196.2" y="0.0" name="bottom"/>
  <outline>
    <contour>
      <point x="16.000000000000004" y="270.8" type="curve" smooth="yes"/>
      <point x="16.000000000000004" y="79.60000000000001"/>
      <point x="71.0" y="-10.0"/>
      <point x="186.99999999999997" y="-10.0" type="curve" smooth="yes"/>
      <point x="226.8" y="-10.0"/>
      <point x="277.0" y="-1.0000000000000004"/>
      <point x="299.8" y="10.0" type="curve"/>
      <point x="272.4" y="133.8" type="line"/>
      <point x="254.8" y="129.0"/>
      <point x="235.39999999999998" y="125.6"/>
      <point x="219.6" y="125.6" type="curve" smooth="yes"/>
      <point x="174.2" y="125.6"/>
      <point x="151.0" y="164.2"/>
      <point x="151.0" y="273.59999999999997" type="curve" smooth="yes"/>
      <point x="151.0" y="384.2"/>
      <point x="175.0" y="418.00000000000006"/>
      <point x="224.60000000000002" y="418.00000000000006" type="curve" smooth="yes"/>
      <point x="242.8" y="418.00000000000006"/>
      <point x="257.59999999999997" y="416.00000000000006"/>
      <point x="271.2" y="411.6" type="curve"/>
      <point x="293.8" y="540.0" type="line"/>
      <point x="272.8" y="548.8"/>
      <point x="233.0" y="554.0"/>
      <point x="196.8" y="554.0" type="curve" smooth="yes"/>
      <point x="74.2" y="554.0"/>
      <point x="16.000000000000004" y="463.0"/>
    </contour>
  </outline>
</glyph>
<glyph name="d" format="2">
  <advance width="368.0"/>
  <unicode hex="0064"/>
  <anchor x="182.6" y="275.0" name="center"/>
  <anchor x="180.3" y="740.0" name="top"/>
  <anchor x="381.4" y="740.0" name="topright"/>
  <anchor x="182.6" y="0.0" name="bottom"/>
  <outline>
    <contour>
      <point x="225.4" y="0.0" type="line"/>
      <point x="341.5" y="0.0" type="line"/>
      <point x="341.5" y="740.0" type="line"/>
      <point x="212.3" y="740.0" type="line"/>
      <point x="212.3" y="548.1" type="line"/>
      <point x="199.6" y="552.0"/>
      <point x="184.2" y="554.0"/>
      <point x="172.0" y="554.0" type="curve" smooth="yes"/>
      <point x="68.4" y="554.0"/>
      <point x="15.700000000000001" y="457.4"/>
      <point x="15.700000000000001" y="261.7" type="curve" smooth="yes"/>
      <point x="15.700000000000001" y="81.4"/>
      <point x="57.4" y="-10.0"/>
      <point x="139.9" y="-10.0" type="curve" smooth="yes"/>
      <point x="167.8" y="-10.0"/>
      <point x="197.4" y="-0.20000000000000018"/>
      <point x="215.8" y="14.899999999999999" type="curve"/>
    </contour>
    <contour>
      <point x="212.3" y="121.0" type="line"/>
      <point x="204.1" y="115.19999999999999"/>
      <point x="196.1" y="112.3"/>
      <point x="186.8" y="112.3" type="curve" smooth="yes"/>
      <point x="162.39999999999998" y="112.3"/>
      <point x="152.6" y="154.2"/>
      <point x="152.6" y="282.0" type="curve" smooth="yes"/>
      <point x="152.6" y="412.6"/>
      <point x="161.5" y="444.6"/>
      <point x="192.4" y="444.6" type="curve" smooth="yes"/>
      <point x="198.8" y="444.6"/>
      <point x="203.2" y="443.3"/>
      <point x="212.3" y="438.0" type="curve"/>
    </contour>
  </outline>
</glyph>
<glyph name="e" format="2">
  <advance width="357.4"/>
  <unicode hex="0065"/>
  <anchor x="298.8" y="7.999999999999999" name="ogonek"/>
  <anchor x="184.0" y="0.0" name="bottom"/>
  <anchor x="186.6" y="544.0" name="top"/>
  <outline>
    <contour>
      <point x="186.0" y="-10.0" type="curve" smooth="yes"/>
      <point x="242.99999999999997" y="-10.0"/>
      <point x="289.0" y="-0.40000000000000036"/>
      <point x="337.4" y="21.4" type="curve"/>
      <point x="319.4" y="134.2" type="line"/>
      <point x="285.8" y="123.6"/>
      <point x="251.8" y="115.39999999999999"/>
      <point x="220.6" y="115.39999999999999" type="curve" smooth="yes"/>
      <point x="162.2" y="115.39999999999999"/>
      <point x="148.0" y="143.2"/>
      <point x="148.0" y="213.8" type="curve" smooth="yes"/>
      <point x="148.0" y="218.0"/>
      <point x="148.0" y="221.8"/>
      <point x="148.0" y="226.00000000000003" type="curve"/>
      <point x="201.6" y="227.8"/>
      <point x="295.2" y="239.6"/>
      <point x="341.4" y="246.6" type="curve"/>
      <point x="341.8" y="262.2"/>
      <point x="342.8" y="294.8"/>
      <point x="342.8" y="306.8" type="curve" smooth="yes"/>
      <point x="342.8" y="483.8"/>
      <point x="297.0" y="554.0"/>
      <point x="191.6" y="554.0" type="curve" smooth="yes"/>
      <point x="74.0" y="554.0"/>
      <point x="16.000000000000004" y="478.40000000000003"/>
      <point x="16.000000000000004" y="262.2" type="curve" smooth="yes"/>
      <point x="16.000000000000004" y="70.4"/>
      <point x="70.2" y="-10.0"/>
    </contour>
    <contour>
      <point x="148.0" y="314.4" type="curve"/>
      <point x="150.4" y="426.2"/>
      <point x="163.4" y="447.4"/>
      <point x="185.0" y="447.4" type="curve" smooth="yes"/>
      <point x="205.6" y="447.4"/>
      <point x="216.39999999999998" y="422.40000000000003"/>
      <point x="216.39999999999998" y="319.40000000000003" type="curve"/>
      <point x="202.39999999999998" y="317.2"/>
      <point x="170.6" y="314.4"/>
    </contour>
  </outline>
</glyph>
<glyph name="f" format="2">
  <advance width="250.9"/>
  <unicode hex="0066"/>
  <outline>
    <contour>
      <point x="54.900000000000006" y="0.0" type="line"/>
      <point x="180.6" y="0.0" type="line"/>
      <point x="180.6" y="404.8" type="line"/>
      <point x="237.9" y="404.8" type="line"/>
      <point x="237.9" y="515.5" type="line"/>
      <point x="181.3" y="515.5" type="line"/>
      <point x="181.3" y="533.9" type="line" smooth="yes"/>
      <point x="181.3" y="604.0"/>
      <point x="196.7" y="631.6"/>
      <point x="230.3" y="631.6" type="curve" smooth="yes"/>
      <point x="240.5" y="631.6"/>
      <point x="250.7" y="629.9"/>
      <point x="267.8" y="624.2" type="curve"/>
      <point x="287.9" y="727.6" type="line"/>
      <point x="254.8" y="743.8"/>
      <point x="227.2" y="750.0"/>
      <point x="194.6" y="750.0" type="curve" smooth="yes"/>
      <point x="101.8" y="750.0"/>
      <point x="54.900000000000006" y="677.2"/>
      <point x="54.900000000000006" y="535.3" type="curve" smooth="yes"/>
      <point x="54.900000000000006" y="515.5" type="line"/>
      <point x="6.800000000000001" y="508.8" type="line"/>
      <point x="6.800000000000001" y="404.8" type="line"/>
      <point x="54.900000000000006" y="404.8" type="line"/>
    </contour>
  </outline>
</glyph>
<glyph name="g" format="2">
  <advance width="373.4"/>
  <unicode hex="0067"/>
  <anchor x="171.39999999999998" y="544.0" name="top"/>
  <anchor x="187.4" y="-210.0" name="bottom"/>
  <outline>
    <contour>
      <point x="171.2" y="-220.0" type="curve" smooth="yes"/>
      <point x="294.0" y="-220.0"/>
      <point x="360.0" y="-150.20000000000002"/>
      <point x="360.0" y="-36.00000000000001" type="curve" smooth="yes"/>
      <point x="360.0" y="59.0"/>
      <point x="314.2" y="115.0"/>
      <point x="233.8" y="115.0" type="curve" smooth="yes"/>
      <point x="159.8" y="115.0" type="line" smooth="yes"/>
      <point x="132.39999999999998" y="115.0"/>
      <point x="117.4" y="126.0"/>
      <point x="117.4" y="148.6" type="curve" smooth="yes"/>
      <point x="117.4" y="171.2"/>
      <point x="124.80000000000001" y="182.20000000000002"/>
      <point x="145.4" y="197.4" type="curve"/>
      <point x="79.19999999999999" y="219.8" type="line"/>
      <point x="48.2" y="194.4"/>
      <point x="24.6" y="159.6"/>
      <point x="24.6" y="107.80000000000001" type="curve" smooth="yes"/>
      <point x="24.6" y="43.8"/>
      <point x="67.6" y="-5.799999999999997"/>
      <point x="142.0" y="-5.799999999999997" type="curve" smooth="yes"/>
      <point x="203.79999999999998" y="-5.799999999999997" type="line" smooth="yes"/>
      <point x="230.6" y="-5.799999999999997"/>
      <point x="242.8" y="-21.2"/>
      <point x="242.8" y="-50.0" type="curve" smooth="yes"/>
      <point x="242.8" y="-83.2"/>
      <point x="222.4" y="-102.60000000000002"/>
      <point x="177.79999999999998" y="-102.60000000000002" type="curve" smooth="yes"/>
      <point x="129.6" y="-102.60000000000002"/>
      <point x="107.19999999999999" y="-85.80000000000001"/>
      <point x="107.19999999999999" y="-48.20000000000001" type="curve" smooth="yes"/>
      <point x="107.19999999999999" y="-23.200000000000003"/>
      <point x="116.6" y="-7.999999999999998"/>
      <point x="135.79999999999998" y="5.400000000000002" type="curve"/>
      <point x="66.2" y="33.800000000000004" type="line"/>
      <point x="33.0" y="11.8"/>
      <point x="9.4" y="-25.0"/>
      <point x="9.4" y="-81.8" type="curve" smooth="yes"/>
      <point x="9.4" y="-172.79999999999998"/>
      <point x="68.19999999999999" y="-220.0"/>
    </contour>
    <contour>
      <point x="174.79999999999998" y="173.20000000000002" type="curve" smooth="yes"/>
      <point x="274.2" y="173.20000000000002"/>
      <point x="325.59999999999997" y="237.6"/>
      <point x="325.59999999999997" y="363.6" type="curve" smooth="yes"/>
      <point x="325.59999999999997" y="489.6"/>
      <point x="274.2" y="554.0"/>
      <point x="174.79999999999998" y="554.0" type="curve" smooth="yes"/>
      <point x="74.8" y="554.0"/>
      <point x="23.400000000000002" y="489.6"/>
      <point x="23.400000000000002" y="363.6" type="curve" smooth="yes"/>
      <point x="23.400000000000002" y="237.6"/>
      <point x="74.8" y="173.20000000000002"/>
    </contour>
    <contour>
      <point x="174.79999999999998" y="273.4" type="curve" smooth="yes"/>
      <point x="154.2" y="273.4"/>
      <point x="145.4" y="294.40000000000003"/>
      <point x="145.4" y="363.6" type="curve" smooth="yes"/>
      <point x="145.4" y="432.8"/>
      <point x="154.2" y="453.8"/>
      <point x="174.79999999999998" y="453.8" type="curve" smooth="yes"/>
      <point x="195.4" y="453.8"/>
      <point x="203.60000000000002" y="432.8"/>
      <point x="203.60000000000002" y="363.6" type="curve" smooth="yes"/>
      <point x="203.60000000000002" y="294.40000000000003"/>
      <point x="195.4" y="273.4"/>
    </contour>
    <contour>
      <point x="301.0" y="418.8" type="line"/>
      <point x="310.4" y="439.6"/>
      <point x="321.99999999999994" y="450.20000000000005"/>
      <point x="335.59999999999997" y="450.20000000000005" type="curve" smooth="yes"/>
      <point x="344.8" y="450.20000000000005"/>
      <point x="350.0" y="448.8"/>
      <point x="356.2" y="447.4" type="curve"/>
      <point x="375.79999999999995" y="564.4" type="line"/>
      <point x="364.6" y="571.0"/>
      <point x="348.59999999999997" y="575.1999999999999"/>
      <point x="332.4" y="575.1999999999999" type="curve" smooth="yes"/>
      <point x="300.6" y="575.1999999999999"/>
      <point x="274.4" y="556.8"/>
      <point x="254.6" y="517.2" type="curve"/>
    </contour>
  </outline>
</glyph>
<glyph name="h" format="2">
  <advance width="369.5"/>
  <unicode hex="0068"/>
  <anchor x="184.9" y="395.0" name="center"/>
  <anchor x="184.9" y="0.0" name="bottom"/>
  <anchor x="190.3" y="740.0" name="top"/>
  <outline>
    <contour>
      <point x="26.5" y="0.0" type="line"/>
      <point x="155.0" y="0.0" type="line"/>
      <point x="155.0" y="414.8" type="line"/>
      <point x="164.6" y="422.8"/>
      <point x="177.3" y="427.5"/>
      <point x="188.2" y="427.5" type="curve" smooth="yes"/>
      <point x="203.6" y="427.5"/>
      <point x="215.2" y="418.0"/>
      <point x="215.2" y="393.5" type="curve" smooth="yes"/>
      <point x="215.2" y="0.0" type="line"/>
      <point x="344.4" y="0.0" type="line"/>
      <point x="344.4" y="428.5" type="line" smooth="yes"/>
      <point x="344.4" y="520.2"/>
      <point x="304.5" y="554.0"/>
      <point x="247.0" y="554.0" type="curve" smooth="yes"/>
      <point x="217.89999999999998" y="554.0"/>
      <point x="182.0" y="541.9"/>
      <point x="155.0" y="514.9" type="curve"/>
      <point x="155.0" y="740.0" type="line"/>
      <point x="26.5" y="740.0" type="line"/>
    </contour>
  </outline>
</glyph>
<glyph name="i" format="2">
  <advance width="181.5"/>
  <unicode hex="0069"/>
  <anchor x="155.0" y="0.0" name="ogonek"/>
  <anchor x="91.1" y="0.0" name="bottom"/>
  <outline>
    <contour>
      <point x="91.1" y="601.4" type="curve" smooth="yes"/>
      <point x="140.1" y="601.4"/>
      <point x="163.89999999999998" y="627.6"/>
      <point x="163.89999999999998" y="683.5" type="curve" smooth="yes"/>
      <point x="163.89999999999998" y="740.8"/>
      <point x="138.7" y="766.3"/>
      <point x="91.1" y="766.3" type="curve" smooth="yes"/>
      <point x="42.8" y="766.3"/>
      <point x="17.6" y="740.8"/>
      <point x="17.6" y="683.5" type="curve" smooth="yes"/>
      <point x="17.6" y="626.9"/>
      <point x="43.1" y="601.4"/>
    </contour>
    <contour>
      <point x="26.5" y="0.0" type="line"/>
      <point x="155.0" y="0.0" type="line"/>
      <point x="155.0" y="544.0" type="line"/>
      <point x="26.5" y="544.0" type="line"/>
    </contour>
  </outline>
</glyph>
<glyph name="j" format="2">
  <advance width="181.2"/>
  <unicode hex="006A"/>
  <outline>
    <contour>
      <point x="154.7" y="544.0" type="line"/>
      <point x="26.200000000000003" y="544.0" type="line"/>
      <point x="26.200000000000003" y="18.9" type="line" smooth="yes"/>
      <point x="26.200000000000003" y="-39.900000000000006"/>
      <point x="15.600000000000001" y="-67.5"/>
      <point x="-10.0" y="-77.10000000000001" type="curve" smooth="yes"/>
      <point x="-19.9" y="-78.60000000000001"/>
      <point x="-28.4" y="-77.7"/>
      <point x="-40.7" y="-75.10000000000001" type="curve"/>
      <point x="-56.9" y="-204.1" type="line"/>
      <point x="-29.299999999999997" y="-211.0"/>
      <point x="-4.8" y="-213.4"/>
      <point x="18.299999999999997" y="-211.6" type="curve" smooth="yes"/>
      <point x="117.19999999999999" y="-200.5"/>
      <point x="154.7" y="-129.2"/>
      <point x="154.7" y="7.7" type="curve" smooth="yes"/>
    </contour>
    <contour>
      <point x="90.8" y="601.4" type="curve" smooth="yes"/>
      <point x="139.5" y="601.4"/>
      <point x="163.6" y="627.6"/>
      <point x="163.6" y="683.5" type="curve" smooth="yes"/>
      <point x="163.6" y="740.8"/>
      <point x="138.1" y="766.3"/>
      <point x="90.8" y="766.3" type="curve" smooth="yes"/>
      <point x="42.5" y="766.3"/>
      <point x="17.3" y="740.8"/>
      <point x="17.3" y="683.5" type="curve" smooth="yes"/>
      <point x="17.3" y="626.9"/>
      <point x="42.8" y="601.4"/>
    </contour>
  </outline>
</glyph>
<glyph name="k" format="2">
  <advance width="352.0"/>
  <unicode hex="006B"/>
  <anchor x="87.2" y="740.0" name="top"/>
  <anchor x="186.39999999999998" y="0.0" name="bottom"/>
  <outline>
    <contour>
      <point x="312.79999999999995" y="-8.8" type="curve" smooth="yes"/>
      <point x="324.8" y="-8.8"/>
      <point x="336.4" y="-7.800000000000001"/>
      <point x="348.8" y="-4.4" type="curve"/>
      <point x="348.2" y="136.2" type="line"/>
      <point x="345.2" y="136.2"/>
      <point x="342.0" y="135.6"/>
      <point x="339.0" y="135.6" type="curve" smooth="yes"/>
      <point x="315.6" y="135.6"/>
      <point x="298.8" y="149.6"/>
      <point x="243.8" y="244.4" type="curve" smooth="yes"/>
      <point x="147.6" y="411.2" type="line"/>
      <point x="147.6" y="740.0" type="line"/>
      <point x="26.799999999999997" y="740.0" type="line"/>
      <point x="26.799999999999997" y="0.0" type="line"/>
      <point x="147.6" y="0.0" type="line"/>
      <point x="147.6" y="192.20000000000002" type="line"/>
      <point x="206.99999999999997" y="84.0" type="line" smooth="yes"/>
      <point x="248.8" y="8.6"/>
      <point x="271.0" y="-8.8"/>
    </contour>
    <contour>
      <point x="219.0" y="219.20000000000002" type="line"/>
      <point x="285.4" y="318.8"/>
      <point x="338.8" y="439.0"/>
      <point x="349.59999999999997" y="544.1999999999999" type="curve"/>
      <point x="225.4" y="553.0" type="line"/>
      <point x="218.8" y="447.40000000000003"/>
      <point x="190.2" y="379.0"/>
      <point x="140.8" y="305.0" type="curve"/>
    </contour>
  </outline>
</glyph>
<glyph name="l" format="2">
  <advance width="205.8"/>
  <unicode hex="006C"/>
  <anchor x="103.4" y="395.0" name="center"/>
  <anchor x="91.1" y="740.0" name="top"/>
  <anchor x="194.89999999999998" y="740.0" name="topright"/>
  <anchor x="117.4" y="0.0" name="bottom"/>
  <outline>
    <contour>
      <point x="155.0" y="740.0" type="line"/>
      <point x="26.5" y="740.0" type="line"/>
      <point x="26.5" y="149.39999999999998" type="line" smooth="yes"/>
      <point x="26.5" y="33.3"/>
      <point x="61.0" y="-10.0"/>
      <point x="138.6" y="-10.0" type="curve" smooth="yes"/>
      <point x="165.8" y="-10.0"/>
      <point x="191.1" y="0.3999999999999986"/>
      <point x="205.89999999999998" y="10.299999999999999" type="curve"/>
      <point x="197.7" y="123.1" type="line"/>
      <point x="189.7" y="120.89999999999999"/>
      <point x="183.1" y="119.89999999999999"/>
      <point x="178.5" y="119.89999999999999" type="curve" smooth="yes"/>
      <point x="164.2" y="119.89999999999999"/>
      <point x="155.0" y="128.39999999999998"/>
      <point x="155.0" y="168.3" type="curve" smooth="yes"/>
    </contour>
  </outline>
</glyph>
<glyph name="m" format="2">
  <advance width="556.0"/>
  <unicode hex="006D"/>
  <outline>
    <contour>
      <point x="26.5" y="0.0" type="line"/>
      <point x="155.7" y="0.0" type="line"/>
      <point x="155.7" y="416.0" type="line"/>
      <point x="164.6" y="422.7"/>
      <point x="176.8" y="427.5"/>
      <point x="187.1" y="427.5" type="curve" smooth="yes"/>
      <point x="202.5" y="427.5"/>
      <point x="214.1" y="418.0"/>
      <point x="214.1" y="393.5" type="curve" smooth="yes"/>
      <point x="214.1" y="0.0" type="line"/>
      <point x="343.29999999999995" y="0.0" type="line"/>
      <point x="343.29999999999995" y="399.1" type="line" smooth="yes"/>
      <point x="343.29999999999995" y="405.1"/>
      <point x="342.4" y="410.6"/>
      <point x="340.9" y="414.5" type="curve"/>
      <point x="351.6" y="422.7"/>
      <point x="363.8" y="427.5"/>
      <point x="374.7" y="427.5" type="curve" smooth="yes"/>
      <point x="390.1" y="427.5"/>
      <point x="401.7" y="418.0"/>
      <point x="401.7" y="393.5" type="curve" smooth="yes"/>
      <point x="401.7" y="0.0" type="line"/>
      <point x="530.9" y="0.0" type="line"/>
      <point x="530.9" y="432.0" type="line" smooth="yes"/>
      <point x="530.9" y="513.9"/>
      <point x="495.9" y="554.0"/>
      <point x="433.5" y="554.0" type="curve" smooth="yes"/>
      <point x="396.9" y="554.0"/>
      <point x="360.4" y="542.6"/>
      <point x="325.2" y="512.1" type="curve"/>
      <point x="309.1" y="539.4"/>
      <point x="282.2" y="554.0"/>
      <point x="245.89999999999998" y="554.0" type="curve" smooth="yes"/>
      <point x="213.2" y="554.0"/>
      <point x="178.5" y="545.0"/>
      <point x="143.8" y="515.8" type="curve"/>
      <point x="143.8" y="544.0" type="line"/>
      <point x="26.5" y="544.0" type="line"/>
    </contour>
  </outline>
</glyph>
<glyph name="n" format="2">
  <advance width="370.2"/>
  <unicode hex="006E"/>
  <anchor x="186.2" y="544.0" name="top"/>
  <anchor x="186.8" y="0.0" name="bottom"/>
  <outline>
    <contour>
      <point x="26.5" y="0.0" type="line"/>
      <point x="155.7" y="0.0" type="line"/>
      <point x="155.7" y="414.8" type="line"/>
      <point x="164.6" y="422.1"/>
      <point x="178.0" y="427.5"/>
      <point x="188.9" y="427.5" type="curve" smooth="yes"/>
      <point x="204.3" y="427.5"/>
      <point x="215.9" y="418.0"/>
      <point x="215.9" y="393.5" type="curve" smooth="yes"/>
      <point x="215.9" y="0.0" type="line"/>
      <point x="345.1" y="0.0" type="line"/>
      <point x="345.1" y="432.0" type="line" smooth="yes"/>
      <point x="345.1" y="513.9"/>
      <point x="310.1" y="554.0"/>
      <point x="247.7" y="554.0" type="curve" smooth="yes"/>
      <point x="214.39999999999998" y="554.0"/>
      <point x="178.5" y="544.7"/>
      <point x="143.8" y="514.9" type="curve"/>
      <point x="143.8" y="544.0" type="line"/>
      <point x="26.5" y="544.0" type="line"/>
    </contour>
  </outline>
</glyph>
<glyph name="o" format="2">
  <advance width="368.2"/>
  <unicode hex="006F"/>
  <anchor x="258.7" y="7.0" name="ogonek"/>
  <anchor x="184.1" y="544.0" name="top"/>
  <anchor x="280.0" y="534.0" name="topright"/>
  <anchor x="184.1" y="0.0" name="bottom"/>
  <outline>
    <contour>
      <point x="15.700000000000001" y="272.7" type="curve" smooth="yes"/>
      <point x="15.700000000000001" y="96.5"/>
      <point x="46.5" y="-10.0"/>
      <point x="184.1" y="-10.0" type="curve" smooth="yes"/>
      <point x="321.7" y="-10.0"/>
      <point x="352.5" y="96.5"/>
      <point x="352.5" y="272.7" type="curve" smooth="yes"/>
      <point x="352.5" y="448.9"/>
      <point x="321.7" y="554.0"/>
      <point x="184.1" y="554.0" type="curve" smooth="yes"/>
      <point x="46.5" y="554.0"/>
      <point x="15.700000000000001" y="448.9"/>
    </contour>
    <contour>
      <point x="150.5" y="272.7" type="curve" smooth="yes"/>
      <point x="150.5" y="410.5"/>
      <point x="158.5" y="431.0"/>
      <point x="184.1" y="431.0" type="curve" smooth="yes"/>
      <point x="209.0" y="431.0"/>
      <point x="217.7" y="410.5"/>
      <point x="217.7" y="272.7" type="curve" smooth="yes"/>
      <point x="217.7" y="134.89999999999998"/>
      <point x="209.0" y="113.69999999999999"/>
      <point x="184.1" y="113.69999999999999" type="curve" smooth="yes"/>
      <point x="158.5" y="113.69999999999999"/>
      <point x="150.5" y="134.89999999999998"/>
    </contour>
  </outline>
</glyph>
<glyph name="p" format="2">
  <advance width="368.0"/>
  <unicode hex="0070"/>
  <outline>
    <contour>
      <point x="26.5" y="-210.0" type="line"/>
      <point x="155.7" y="-210.0" type="line"/>
      <point x="155.7" y="-4.1" type="line"/>
      <point x="169.8" y="-8.0"/>
      <point x="185.5" y="-10.0"/>
      <point x="196.0" y="-10.0" type="curve" smooth="yes"/>
      <point x="299.6" y="-10.0"/>
      <point x="352.3" y="87.3"/>
      <point x="352.3" y="283.0" type="curve" smooth="yes"/>
      <point x="352.3" y="462.4"/>
      <point x="310.9" y="554.0"/>
      <point x="229.3" y="554.0" type="curve" smooth="yes"/>
      <point x="200.0" y="554.0"/>
      <point x="174.5" y="545.7"/>
      <point x="152.2" y="529.1" type="curve"/>
      <point x="143.8" y="547.0" type="line"/>
      <point x="26.5" y="547.0" type="line"/>
    </contour>
    <contour>
      <point x="175.6" y="100.1" type="curve" smooth="yes"/>
      <point x="169.2" y="100.1"/>
      <point x="164.39999999999998" y="102.1"/>
      <point x="155.7" y="106.69999999999999" type="curve"/>
      <point x="155.7" y="423.7" type="line"/>
      <point x="164.6" y="430.2"/>
      <point x="171.89999999999998" y="432.4"/>
      <point x="180.9" y="432.4" type="curve" smooth="yes"/>
      <point x="205.6" y="432.4"/>
      <point x="215.4" y="392.3"/>
      <point x="215.4" y="262.7" type="curve" smooth="yes"/>
      <point x="215.4" y="132.8"/>
      <point x="206.5" y="100.1"/>
    </contour>
  </outline>
</glyph>
<glyph name="q" format="2">
  <advance width="368.7"/>
  <unicode hex="0071"/>
  <outline>
    <contour>
      <point x="342.2" y="532.6" type="line"/>
      <point x="303.6" y="546.1"/>
      <point x="249.8" y="554.0"/>
      <point x="203.5" y="554.0" type="curve" smooth="yes"/>
      <point x="74.0" y="554.0"/>
      <point x="15.700000000000001" y="469.3"/>
      <point x="15.700000000000001" y="275.0" type="curve" smooth="yes"/>
      <point x="15.700000000000001" y="78.4"/>
      <point x="55.3" y="-10.0"/>
      <point x="144.3" y="-10.0" type="curve" smooth="yes"/>
      <point x="167.3" y="-10.0"/>
      <point x="197.7" y="0.3999999999999999"/>
      <point x="213.7" y="12.8" type="curve"/>
      <point x="213.7" y="-210.0" type="line"/>
      <point x="342.2" y="-210.0" type="line"/>
    </contour>
    <contour>
      <point x="213.0" y="440.5" type="curve"/>
      <point x="213.0" y="123.8" type="line"/>
      <point x="204.1" y="116.6"/>
      <point x="196.8" y="113.0"/>
      <point x="187.1" y="113.0" type="curve" smooth="yes"/>
      <point x="163.39999999999998" y="113.0"/>
      <point x="153.3" y="152.3"/>
      <point x="153.3" y="268.7" type="curve" smooth="yes"/>
      <point x="153.3" y="411.2"/>
      <point x="162.2" y="445.3"/>
      <point x="193.8" y="445.3" type="curve" smooth="yes"/>
      <point x="198.5" y="445.3"/>
      <point x="204.3" y="444.0"/>
    </contour>
  </outline>
</glyph>
<glyph name="r" format="2">
  <advance width="267.2"/>
  <unicode hex="0072"/>
  <anchor x="142.7" y="544.0" name="top"/>
  <anchor x="90.4" y="0.0" name="bottom"/>
  <outline>
    <contour>
      <point x="143.1" y="544.0" type="line"/>
      <point x="26.5" y="544.0" type="line"/>
      <point x="26.5" y="0.0" type="line"/>
      <point x="154.3" y="0.0" type="line"/>
      <point x="154.3" y="389.5" type="line"/>
      <point x="173.89999999999998" y="406.9"/>
      <point x="189.39999999999998" y="412.8"/>
      <point x="208.6" y="412.8" type="curve" smooth="yes"/>
      <point x="216.4" y="412.8"/>
      <point x="231.2" y="412.2"/>
      <point x="244.2" y="408.2" type="curve"/>
      <point x="267.4" y="545.6" type="line"/>
      <point x="249.89999999999998" y="552.7"/>
      <point x="237.3" y="554.0"/>
      <point x="226.8" y="554.0" type="curve" smooth="yes"/>
      <point x="189.89999999999998" y="554.0"/>
      <point x="169.1" y="538.4"/>
      <point x="143.1" y="502.6" type="curve"/>
    </contour>
  </outline>
</glyph>
<glyph name="s" format="2">
  <advance width="311.2"/>
  <unicode hex="0073"/>
  <anchor x="156.8" y="544.0" name="top"/>
  <anchor x="157.8" y="0.0" name="bottom"/>
  <outline>
    <contour>
      <point x="10.0" y="17.4" type="line"/>
      <point x="47.8" y="-1.2000000000000002"/>
      <point x="87.6" y="-10.0"/>
      <point x="138.0" y="-10.0" type="curve" smooth="yes"/>
      <point x="245.6" y="-10.0"/>
      <point x="303.8" y="50.2"/>
      <point x="303.8" y="157.6" type="curve" smooth="yes"/>
      <point x="303.8" y="272.0"/>
      <point x="249.2" y="304.8"/>
      <point x="194.8" y="331.40000000000003" type="curve" smooth="yes"/>
      <point x="155.0" y="351.0"/>
      <point x="126.39999999999999" y="364.6"/>
      <point x="126.39999999999999" y="395.0" type="curve" smooth="yes"/>
      <point x="126.39999999999999" y="420.6"/>
      <point x="143.8" y="431.4"/>
      <point x="173.0" y="431.4" type="curve" smooth="yes"/>
      <point x="202.6" y="431.4"/>
      <point x="235.79999999999998" y="425.0"/>
      <point x="267.2" y="413.8" type="curve"/>
      <point x="286.4" y="529.8000000000001" type="line"/>
      <point x="258.2" y="544.4"/>
      <point x="210.2" y="554.0"/>
      <point x="169.2" y="554.0" type="curve" smooth="yes"/>
      <point x="67.2" y="554.0"/>
      <point x="9.2" y="491.6"/>
      <point x="9.2" y="383.2" type="curve" smooth="yes"/>
      <point x="9.2" y="300.4"/>
      <point x="44.00000000000001" y="252.8"/>
      <point x="102.2" y="224.2" type="curve" smooth="yes"/>
      <point x="145.0" y="202.20000000000002"/>
      <point x="183.0" y="188.8"/>
      <point x="183.0" y="152.0" type="curve" smooth="yes"/>
      <point x="183.0" y="127.19999999999999"/>
      <point x="165.0" y="110.79999999999998"/>
      <point x="132.0" y="110.79999999999998" type="curve" smooth="yes"/>
      <point x="98.6" y="110.79999999999998"/>
      <point x="50.6" y="118.6"/>
      <point x="24.199999999999996" y="129.6" type="curve"/>
    </contour>
  </outline>
</glyph>
<glyph name="t" format="2">
  <advance width="257.9"/>
  <unicode hex="0074"/>
  <anchor x="126.5" y="275.0" name="center"/>
  <anchor x="120.19999999999999" y="657.3" name="top"/>
  <anchor x="216.5" y="757.5" name="topright"/>
  <anchor x="149.0" y="0.0" name="bottom"/>
  <outline>
    <contour>
      <point x="164.8" y="-10.0" type="curve" smooth="yes"/>
      <point x="190.4" y="-10.0"/>
      <point x="227.1" y="-7.3"/>
      <point x="261.6" y="9.6" type="curve"/>
      <point x="242.2" y="117.89999999999999" type="line"/>
      <point x="232.1" y="115.0"/>
      <point x="221.2" y="114.0"/>
      <point x="212.39999999999998" y="114.0" type="curve" smooth="yes"/>
      <point x="188.6" y="114.0"/>
      <point x="175.5" y="127.6"/>
      <point x="175.5" y="178.0" type="curve" smooth="yes"/>
      <point x="175.5" y="433.3" type="line"/>
      <point x="245.4" y="433.3" type="line"/>
      <point x="245.4" y="544.0" type="line"/>
      <point x="175.5" y="544.0" type="line"/>
      <point x="175.5" y="657.3" type="line"/>
      <point x="64.6" y="657.3" type="line"/>
      <point x="47.0" y="544.0" type="line"/>
      <point x="5.9" y="538.0" type="line"/>
      <point x="5.9" y="434.0" type="line"/>
      <point x="47.0" y="434.0" type="line"/>
      <point x="47.0" y="162.6" type="line" smooth="yes"/>
      <point x="47.0" y="50.7"/>
      <point x="82.1" y="-10.0"/>
    </contour>
  </outline>
</glyph>
<glyph name="u" format="2">
  <advance width="383.8"/>
  <unicode hex="0075"/>
  <anchor x="383.0" y="10.2" name="ogonek"/>
  <anchor x="183.9" y="544.0" name="top"/>
  <anchor x="343.0" y="544.0" name="topright"/>
  <anchor x="192.4" y="0.0" name="bottom"/>
  <outline>
    <contour>
      <point x="128.8" y="-10.0" type="curve" smooth="yes"/>
      <point x="166.3" y="-10.0"/>
      <point x="200.8" y="4.199999999999999"/>
      <point x="228.7" y="27.6" type="curve"/>
      <point x="244.3" y="6.3"/>
      <point x="268.4" y="-10.0"/>
      <point x="303.2" y="-10.0" type="curve" smooth="yes"/>
      <point x="338.4" y="-10.0"/>
      <point x="362.0" y="-1.0"/>
      <point x="383.0" y="10.2" type="curve"/>
      <point x="373.2" y="128.0" type="line"/>
      <point x="368.1" y="125.8"/>
      <point x="361.2" y="124.49999999999999"/>
      <point x="355.7" y="124.49999999999999" type="curve" smooth="yes"/>
      <point x="346.9" y="124.49999999999999"/>
      <point x="343.0" y="129.7"/>
      <point x="343.0" y="149.5" type="curve" smooth="yes"/>
      <point x="343.0" y="544.0" type="line"/>
      <point x="214.5" y="544.0" type="line"/>
      <point x="214.5" y="129.2" type="line"/>
      <point x="205.6" y="121.19999999999999"/>
      <point x="191.5" y="116.5"/>
      <point x="181.3" y="116.5" type="curve" smooth="yes"/>
      <point x="165.89999999999998" y="116.5"/>
      <point x="154.3" y="126.0"/>
      <point x="154.3" y="150.5" type="curve" smooth="yes"/>
      <point x="154.3" y="544.0" type="line"/>
      <point x="25.1" y="544.0" type="line"/>
      <point x="25.1" y="129.5" type="line" smooth="yes"/>
      <point x="25.1" y="23.799999999999997"/>
      <point x="71.3" y="-10.0"/>
    </contour>
  </outline>
</glyph>
<glyph name="v" format="2">
  <advance width="366.79999999999995"/>
  <unicode hex="0076"/>
  <outline>
    <contour>
      <point x="98.8" y="0.0" type="line"/>
      <point x="267.29999999999995" y="0.0" type="line"/>
      <point x="361.9" y="543.4" type="line"/>
      <point x="222.9" y="544.6" type="line"/>
      <point x="183.39999999999998" y="129.0" type="line"/>
      <point x="144.6" y="544.6" type="line"/>
      <point x="4.9" y="543.4" type="line"/>
    </contour>
  </outline>
</glyph>
<glyph name="w" format="2">
  <advance width="553.0"/>
  <unicode hex="0077"/>
  <anchor x="276.5" y="544.0" name="top"/>
  <anchor x="276.5" y="0.0" name="bottom"/>
  <outline>
    <contour>
      <point x="76.4" y="0.0" type="line"/>
      <point x="242.5" y="0.0" type="line"/>
      <point x="277.9" y="374.0" type="line"/>
      <point x="310.8" y="0.0" type="line"/>
      <point x="476.2" y="0.0" type="line"/>
      <point x="546.5" y="543.1" type="line"/>
      <point x="416.6" y="544.3" type="line"/>
      <point x="383.5" y="127.1" type="line"/>
      <point x="346.0" y="544.0" type="line"/>
      <point x="207.0" y="544.0" type="line"/>
      <point x="169.1" y="127.1" type="line"/>
      <point x="137.1" y="544.3" type="line"/>
      <point x="6.5" y="543.1" type="line"/>
    </contour>
  </outline>
</glyph>
<glyph name="x" format="2">
  <advance width="380.0"/>
  <unicode hex="0078"/>
  <outline>
    <contour>
      <point x="4.2" y="-1.8000000000000007" type="line"/>
      <point x="144.3" y="-3.0" type="line"/>
      <point x="190.39999999999998" y="208.8" type="line"/>
      <point x="238.1" y="-3.0" type="line"/>
      <point x="377.5" y="-1.8000000000000007" type="line"/>
      <point x="291.29999999999995" y="276.0" type="line"/>
      <point x="370.7" y="543.4" type="line"/>
      <point x="233.4" y="544.6" type="line"/>
      <point x="191.0" y="332.7" type="line"/>
      <point x="148.0" y="544.9" type="line"/>
      <point x="11.4" y="543.1" type="line"/>
      <point x="90.1" y="277.8" type="line"/>
    </contour>
  </outline>
</glyph>
<glyph name="y" format="2">
  <advance width="370.4"/>
  <unicode hex="0079"/>
  <anchor x="185.2" y="544.0" name="top"/>
  <anchor x="341.0" y="0.0" name="bottom"/>
  <outline>
    <contour>
      <point x="91.60000000000001" y="-209.4" type="line"/>
      <point x="232.0" y="-211.20000000000002" type="line"/>
      <point x="365.2" y="543.4" type="line"/>
      <point x="223.4" y="544.6" type="line"/>
      <point x="185.8" y="119.6" type="line"/>
      <point x="147.79999999999998" y="544.6" type="line"/>
      <point x="5.2" y="543.4" type="line"/>
      <point x="113.19999999999999" y="0.0" type="line"/>
      <point x="133.79999999999998" y="0.0" type="line"/>
    </contour>
  </outline>
</glyph>
<glyph name="z" format="2">
  <advance width="326.1"/>
  <unicode hex="007A"/>
  <anchor x="165.0" y="544.0" name="top"/>
  <outline>
    <contour>
      <point x="14.100000000000001" y="0.0" type="line"/>
      <point x="313.4" y="0.0" type="line"/>
      <point x="313.4" y="119.8" type="line"/>
      <point x="150.2" y="119.8" type="line"/>
      <point x="305.4" y="437.1" type="line"/>
      <point x="305.4" y="544.0" type="line"/>
      <point x="21.5" y="544.0" type="line"/>
      <point x="21.5" y="425.6" type="line"/>
      <point x="169.6" y="425.6" type="line"/>
      <point x="14.100000000000001" y="109.0" type="line"/>
    </contour>
  </outline>
</glyph>
<glyph name="braceleft" format="2">
  <advance width="225.5"/>
  <unicode hex="007B"/>
  <outline>
    <contour>
      <point x="38.900000000000006" y="-45.7" type="curve" smooth="yes"/>
      <point x="38.900000000000006" y="-158.6"/>
      <point x="90.3" y="-210.7"/>
      <point x="152.7" y="-210.7" type="curve" smooth="yes"/>
      <point x="211.2" y="-210.7" type="line"/>
      <point x="211.2" y="-101.10000000000001" type="line"/>
      <point x="183.5" y="-101.10000000000001" type="line" smooth="yes"/>
      <point x="156.1" y="-101.10000000000001"/>
      <point x="144.3" y="-71.60000000000001"/>
      <point x="144.3" y="-29.6" type="curve" smooth="yes"/>
      <point x="144.3" y="26.6"/>
      <point x="169.6" y="76.6"/>
      <point x="169.6" y="140.6" type="curve" smooth="yes"/>
      <point x="169.6" y="184.1"/>
      <point x="156.8" y="232.9"/>
      <point x="117.4" y="265.0" type="curve"/>
      <point x="156.8" y="296.5"/>
      <point x="169.6" y="345.2"/>
      <point x="169.6" y="388.7" type="curve" smooth="yes"/>
      <point x="169.6" y="450.6"/>
      <point x="144.3" y="500.6"/>
      <point x="144.3" y="558.9" type="curve" smooth="yes"/>
      <point x="144.3" y="600.9"/>
      <point x="156.1" y="630.4"/>
      <point x="183.5" y="630.4" type="curve" smooth="yes"/>
      <point x="211.2" y="630.4" type="line"/>
      <point x="211.2" y="740.0" type="line"/>
      <point x="152.7" y="740.0" type="line" smooth="yes"/>
      <point x="90.3" y="740.0"/>
      <point x="38.900000000000006" y="687.9"/>
      <point x="38.900000000000006" y="575.0" type="curve" smooth="yes"/>
      <point x="38.900000000000006" y="484.1"/>
      <point x="70.5" y="435.6"/>
      <point x="70.5" y="381.0" type="curve" smooth="yes"/>
      <point x="70.5" y="347.5"/>
      <point x="64.0" y="322.6"/>
      <point x="42.3" y="322.6" type="curve" smooth="yes"/>
      <point x="24.8" y="322.6" type="line"/>
      <point x="24.8" y="206.7" type="line"/>
      <point x="42.3" y="206.7" type="line" smooth="yes"/>
      <point x="64.0" y="206.7"/>
      <point x="70.5" y="182.1"/>
      <point x="70.5" y="148.3" type="curve" smooth="yes"/>
      <point x="70.5" y="92.8"/>
      <point x="38.900000000000006" y="43.099999999999994"/>
    </contour>
  </outline>
</glyph>
<glyph name="bar" format="2">
  <advance width="151.4"/>
  <unicode hex="007C"/>
  <outline>
    <contour>
      <point x="131.2" y="790.7" type="line"/>
      <point x="20.200000000000003" y="790.7" type="line"/>
      <point x="20.200000000000003" y="-210.0" type="line"/>
      <point x="131.2" y="-210.0" type="line"/>
    </contour>
  </outline>
</glyph>
<glyph name="braceright" format="2">
  <advance width="225.5"/>
  <unicode hex="007D"/>
  <outline>
    <contour>
      <point x="14.3" y="-101.10000000000001" type="line"/>
      <point x="14.3" y="-210.7" type="line"/>
      <point x="73.1" y="-210.7" type="line" smooth="yes"/>
      <point x="135.5" y="-210.7"/>
      <point x="186.9" y="-158.6"/>
      <point x="186.9" y="-45.7" type="curve" smooth="yes"/>
      <point x="186.9" y="43.099999999999994"/>
      <point x="155.3" y="92.8"/>
      <point x="155.3" y="148.3" type="curve" smooth="yes"/>
      <point x="155.3" y="182.1"/>
      <point x="161.8" y="206.7"/>
      <point x="183.5" y="206.7" type="curve" smooth="yes"/>
      <point x="200.7" y="206.7" type="line"/>
      <point x="200.7" y="322.6" type="line"/>
      <point x="183.5" y="322.6" type="line" smooth="yes"/>
      <point x="161.5" y="322.6"/>
      <point x="155.3" y="347.5"/>
      <point x="155.3" y="381.0" type="curve" smooth="yes"/>
      <point x="155.3" y="435.6"/>
      <point x="186.9" y="484.1"/>
      <point x="186.9" y="575.0" type="curve" smooth="yes"/>
      <point x="186.9" y="687.9"/>
      <point x="135.5" y="740.0"/>
      <point x="73.1" y="740.0" type="curve" smooth="yes"/>
      <point x="14.3" y="740.0" type="line"/>
      <point x="14.3" y="630.4" type="line"/>
      <point x="30.400000000000002" y="630.4" type="line" smooth="yes"/>
      <point x="57.5" y="630.4"/>
      <point x="69.6" y="600.9"/>
      <point x="69.6" y="558.9" type="curve" smooth="yes"/>
      <point x="69.6" y="500.6"/>
      <point x="44.3" y="450.6"/>
      <point x="44.3" y="388.7" type="curve" smooth="yes"/>
      <point x="44.3" y="345.2"/>
      <point x="56.8" y="296.5"/>
      <point x="96.5" y="265.0" type="curve"/>
      <point x="56.8" y="232.9"/>
      <point x="44.3" y="184.1"/>
      <point x="44.3" y="140.6" type="curve" smooth="yes"/>
      <point x="44.3" y="76.6"/>
      <point x="69.6" y="26.6"/>
      <point x="69.6" y="-29.6" type="curve" smooth="yes"/>
      <point x="69.6" y="-71.60000000000001"/>
      <point x="57.5" y="-101.10000000000001"/>
      <point x="30.400000000000002" y="-101.10000000000001" type="curve" smooth="yes"/>
    </contour>
  </outline>
</glyph>
<glyph name="asciitilde" format="2">
  <advance width="405.0"/>
  <unicode hex="007E"/>
  <outline>
    <contour>
      <point x="352.4" y="241.2" type="curve"/>
      <point x="352.4" y="357.9" type="line"/>
      <point x="329.1" y="333.3"/>
      <point x="307.0" y="324.4"/>
      <point x="281.8" y="324.4" type="curve" smooth="yes"/>
      <point x="217.9" y="324.4"/>
      <point x="194.8" y="405.5"/>
      <point x="128.7" y="405.5" type="curve" smooth="yes"/>
      <point x="92.1" y="405.5"/>
      <point x="60.9" y="385.3"/>
      <point x="52.9" y="373.5" type="curve"/>
      <point x="52.9" y="256.8" type="line"/>
      <point x="61.5" y="269.5"/>
      <point x="92.7" y="290.3"/>
      <point x="128.4" y="290.3" type="curve" smooth="yes"/>
      <point x="191.2" y="290.3"/>
      <point x="214.6" y="209.2"/>
      <point x="281.5" y="209.2" type="curve" smooth="yes"/>
      <point x="307.6" y="209.2"/>
      <point x="329.7" y="217.5"/>
    </contour>
  </outline>
</glyph>
<glyph name="exclamdown" format="2">
  <advance width="174.2"/>
  <unicode hex="00A1"/>
  <outline>
    <contour>
      <point x="144.0" y="283.5" type="line"/>
      <point x="31.6" y="283.5" type="line"/>
      <point x="20.400000000000002" y="-196.0" type="line"/>
      <point x="153.1" y="-196.0" type="line"/>
    </contour>
    <contour>
      <point x="156.39999999999998" y="464.0" type="curve" smooth="yes"/>
      <point x="156.39999999999998" y="523.4"/>
      <point x="136.8" y="551.0"/>
      <point x="87.1" y="551.0" type="curve" smooth="yes"/>
      <point x="37.7" y="551.0"/>
      <point x="17.8" y="523.4"/>
      <point x="17.8" y="464.0" type="curve" smooth="yes"/>
      <point x="17.8" y="403.9"/>
      <point x="37.4" y="376.3"/>
      <point x="87.1" y="376.3" type="curve" smooth="yes"/>
      <point x="136.8" y="376.3"/>
      <point x="156.39999999999998" y="403.9"/>
    </contour>
  </outline>
</glyph>
<glyph name="cent" format="2">
  <advance width="369.0"/>
  <unicode hex="00A2"/>
  <outline>
    <contour>
      <point x="216.7" y="-10.7" type="curve" smooth="yes"/>
      <point x="254.3" y="-10.7"/>
      <point x="293.3" y="-3.1000000000000005"/>
      <point x="320.5" y="10.299999999999999" type="curve"/>
      <point x="293.4" y="138.6" type="line"/>
      <point x="275.6" y="132.5"/>
      <point x="262.0" y="130.1"/>
      <point x="248.89999999999998" y="130.1" type="curve" smooth="yes"/>
      <point x="211.3" y="130.1"/>
      <point x="192.7" y="173.6"/>
      <point x="192.7" y="266.6" type="curve" smooth="yes"/>
      <point x="192.7" y="371.4"/>
      <point x="211.1" y="413.2"/>
      <point x="252.8" y="413.2" type="curve" smooth="yes"/>
      <point x="268.7" y="413.2"/>
      <point x="280.8" y="409.8"/>
      <point x="291.6" y="406.8" type="curve"/>
      <point x="314.79999999999995" y="540.0" type="line"/>
      <point x="297.2" y="545.7"/>
      <point x="255.8" y="555.4"/>
      <point x="215.7" y="555.4" type="curve" smooth="yes"/>
      <point x="90.2" y="555.4"/>
      <point x="56.5" y="431.2"/>
      <point x="56.5" y="262.4" type="curve" smooth="yes"/>
      <point x="56.5" y="78.6"/>
      <point x="106.0" y="-10.7"/>
    </contour>
    <contour>
      <point x="148.2" y="-105.7" type="line"/>
      <point x="266.9" y="-105.7" type="line"/>
      <point x="266.9" y="8.299999999999999" type="line"/>
      <point x="148.2" y="15.5" type="line"/>
    </contour>
    <contour>
      <point x="148.2" y="526.8" type="line"/>
      <point x="266.9" y="537.8" type="line"/>
      <point x="266.9" y="648.3" type="line"/>
      <point x="148.2" y="648.3" type="line"/>
    </contour>
  </outline>
</glyph>
<glyph name="sterling" format="2">
  <advance width="369.0"/>
  <unicode hex="00A3"/>
  <outline>
    <contour>
      <point x="50.199999999999996" y="0.0" type="line"/>
      <point x="325.0" y="0.0" type="line"/>
      <point x="325.0" y="118.0" type="line"/>
      <point x="188.2" y="118.0" type="line"/>
      <point x="217.8" y="158.4"/>
      <point x="250.2" y="196.8"/>
      <point x="250.2" y="265.4" type="curve" smooth="yes"/>
      <point x="250.2" y="344.2"/>
      <point x="206.4" y="407.8"/>
      <point x="206.4" y="480.2" type="curve" smooth="yes"/>
      <point x="206.4" y="553.4000000000001"/>
      <point x="233.8" y="579.0"/>
      <point x="266.79999999999995" y="579.0" type="curve" smooth="yes"/>
      <point x="281.8" y="579.0"/>
      <point x="292.2" y="576.0"/>
      <point x="303.2" y="571.4000000000001" type="curve"/>
      <point x="324.19999999999993" y="683.6" type="line"/>
      <point x="300.0" y="701.4000000000001"/>
      <point x="265.0" y="710.0"/>
      <point x="235.6" y="710.0" type="curve" smooth="yes"/>
      <point x="128.6" y="710.0"/>
      <point x="72.0" y="633.6"/>
      <point x="72.0" y="523.6" type="curve" smooth="yes"/>
      <point x="72.0" y="399.6"/>
      <point x="129.0" y="361.8"/>
      <point x="129.0" y="249.0" type="curve" smooth="yes"/>
      <point x="129.0" y="197.20000000000002"/>
      <point x="103.19999999999999" y="143.8"/>
      <point x="50.199999999999996" y="88.6" type="curve"/>
    </contour>
    <contour>
      <point x="42.199999999999996" y="320.8" type="line"/>
      <point x="313.2" y="320.8" type="line"/>
      <point x="313.2" y="396.8" type="line"/>
      <point x="42.199999999999996" y="396.8" type="line"/>
    </contour>
  </outline>
</glyph>
<glyph name="currency" format="2">
  <advance width="418.5"/>
  <unicode hex="00A4"/>
  <outline>
    <contour>
      <point x="21.5" y="395.0" type="line"/>
      <point x="74.5" y="341.0" type="line"/>
      <point x="67.4" y="326.4"/>
      <point x="63.1" y="309.7"/>
      <point x="63.1" y="291.8" type="curve" smooth="yes"/>
      <point x="63.1" y="273.2"/>
      <point x="67.4" y="255.1"/>
      <point x="75.5" y="239.8" type="curve"/>
      <point x="21.5" y="185.8" type="line"/>
      <point x="104.8" y="102.5" type="line"/>
      <point x="163.7" y="161.4" type="line"/>
      <point x="176.9" y="154.0"/>
      <point x="193.6" y="150.7"/>
      <point x="211.2" y="150.7" type="curve" smooth="yes"/>
      <point x="227.4" y="150.7"/>
      <point x="242.3" y="154.0"/>
      <point x="254.8" y="160.7" type="curve"/>
      <point x="313.7" y="102.5" type="line"/>
      <point x="397.0" y="185.8" type="line"/>
      <point x="345.8" y="236.3" type="line"/>
      <point x="354.6" y="253.0"/>
      <point x="359.6" y="271.8"/>
      <point x="359.6" y="291.8" type="curve" smooth="yes"/>
      <point x="359.6" y="310.4"/>
      <point x="354.6" y="328.5"/>
      <point x="346.5" y="344.5" type="curve"/>
      <point x="397.0" y="395.0" type="line"/>
      <point x="313.7" y="478.3" type="line"/>
      <point x="257.6" y="422.2" type="line"/>
      <point x="244.4" y="428.9"/>
      <point x="228.4" y="433.2"/>
      <point x="211.2" y="433.2" type="curve" smooth="yes"/>
      <point x="191.9" y="433.2"/>
      <point x="175.2" y="428.2"/>
      <point x="160.6" y="421.5" type="curve"/>
      <point x="104.8" y="478.3" type="line"/>
    </contour>
    <contour>
      <point x="211.2" y="237.2" type="curve" smooth="yes"/>
      <point x="179.3" y="237.2"/>
      <point x="157.3" y="259.2"/>
      <point x="157.3" y="291.1" type="curve" smooth="yes"/>
      <point x="157.3" y="321.9"/>
      <point x="179.3" y="346.0"/>
      <point x="211.2" y="346.0" type="curve" smooth="yes"/>
      <point x="243.4" y="346.0"/>
      <point x="265.4" y="321.9"/>
      <point x="265.4" y="291.1" type="curve" smooth="yes"/>
      <point x="265.4" y="259.2"/>
      <point x="243.4" y="237.2"/>
    </contour>
  </outline>
</glyph>
<glyph name="yen" format="2">
  <advance width="369.0"/>
  <unicode hex="00A5"/>
  <outline>
    <contour>
      <point x="36.800000000000004" y="303.6" type="line"/>
      <point x="120.8" y="303.6" type="line"/>
      <point x="120.8" y="258.8" type="line"/>
      <point x="36.800000000000004" y="258.8" type="line"/>
      <point x="36.800000000000004" y="182.79999999999998" type="line"/>
      <point x="120.8" y="182.79999999999998" type="line"/>
      <point x="120.8" y="0.0" type="line"/>
      <point x="249.6" y="0.0" type="line"/>
      <point x="249.6" y="182.79999999999998" type="line"/>
      <point x="333.59999999999997" y="182.79999999999998" type="line"/>
      <point x="333.59999999999997" y="258.8" type="line"/>
      <point x="249.6" y="258.8" type="line"/>
      <point x="249.6" y="303.6" type="line"/>
      <point x="333.59999999999997" y="303.6" type="line"/>
      <point x="333.59999999999997" y="379.0" type="line"/>
      <point x="249.6" y="379.0" type="line"/>
      <point x="364.59999999999997" y="698.8000000000001" type="line"/>
      <point x="220.79999999999998" y="701.1999999999999" type="line"/>
      <point x="185.39999999999998" y="469.79999999999995" type="line"/>
      <point x="148.2" y="701.1999999999999" type="line"/>
      <point x="4.400000000000006" y="698.8000000000001" type="line"/>
      <point x="120.8" y="379.0" type="line"/>
      <point x="36.800000000000004" y="379.0" type="line"/>
    </contour>
  </outline>
</glyph>
<glyph name="brokenbar" format="2">
  <advance width="150.7"/>
  <unicode hex="00A6"/>
  <outline>
    <contour>
      <point x="130.5" y="391.0" type="line"/>
      <point x="130.5" y="790.7" type="line"/>
      <point x="20.200000000000003" y="790.7" type="line"/>
      <point x="20.200000000000003" y="391.0" type="line"/>
    </contour>
    <contour>
      <point x="20.200000000000003" y="190.7" type="line"/>
      <point x="20.200000000000003" y="-210.0" type="line"/>
      <point x="130.5" y="-210.0" type="line"/>
      <point x="130.5" y="190.7" type="line"/>
    </contour>
  </outline>
</glyph>
<glyph name="section" format="2">
  <advance width="410.3"/>
  <unicode hex="00A7"/>
  <outline>
    <contour>
      <point x="160.2" y="-220.7" type="curve" smooth="yes"/>
      <point x="299.6" y="-220.7"/>
      <point x="382.4" y="-99.9"/>
      <point x="382.4" y="60.7" type="curve" smooth="yes"/>
      <point x="382.4" y="130.1"/>
      <point x="364.6" y="224.6"/>
      <point x="317.9" y="352.5" type="curve" smooth="yes"/>
      <point x="273.0" y="473.4"/>
      <point x="257.8" y="513.8"/>
      <point x="257.8" y="548.2" type="curve" smooth="yes"/>
      <point x="257.8" y="584.1"/>
      <point x="275.2" y="605.7"/>
      <point x="305.9" y="605.7" type="curve" smooth="yes"/>
      <point x="318.2" y="605.7"/>
      <point x="328.5" y="603.7"/>
      <point x="341.1" y="596.7" type="curve"/>
      <point x="369.4" y="725.8" type="line"/>
      <point x="346.5" y="740.4"/>
      <point x="306.1" y="749.7"/>
      <point x="265.0" y="749.7" type="curve" smooth="yes"/>
      <point x="122.7" y="749.7"/>
      <point x="27.2" y="647.8"/>
      <point x="31.8" y="483.9" type="curve" smooth="yes"/>
      <point x="33.9" y="408.9"/>
      <point x="41.8" y="334.9"/>
      <point x="102.4" y="178.5" type="curve" smooth="yes"/>
      <point x="145.3" y="64.3"/>
      <point x="163.9" y="20.099999999999994"/>
      <point x="163.9" y="-20.200000000000003" type="curve" smooth="yes"/>
      <point x="163.9" y="-59.2"/>
      <point x="143.3" y="-76.7"/>
      <point x="110.6" y="-76.7" type="curve" smooth="yes"/>
      <point x="93.2" y="-76.7"/>
      <point x="74.3" y="-71.2"/>
      <point x="58.099999999999994" y="-55.60000000000001" type="curve"/>
      <point x="32.099999999999994" y="-184.4" type="line"/>
      <point x="60.3" y="-207.5"/>
      <point x="108.5" y="-220.7"/>
    </contour>
    <contour>
      <point x="151.0" y="-135.60000000000002" type="curve" smooth="yes"/>
      <point x="135.0" y="-135.60000000000002"/>
      <point x="119.69999999999999" y="-131.5"/>
      <point x="102.9" y="-122.9" type="curve"/>
      <point x="141.3" y="-146.4" type="line"/>
      <point x="207.0" y="-141.9"/>
      <point x="249.8" y="-91.9"/>
      <point x="249.8" y="-16.30000000000001" type="curve" smooth="yes"/>
      <point x="249.8" y="36.89999999999999"/>
      <point x="236.1" y="97.8"/>
      <point x="190.39999999999998" y="221.6" type="curve" smooth="yes"/>
      <point x="140.8" y="357.9"/>
      <point x="124.3" y="415.2"/>
      <point x="124.3" y="490.9" type="curve" smooth="yes"/>
      <point x="124.3" y="580.8"/>
      <point x="169.3" y="646.2"/>
      <point x="225.3" y="646.2" type="curve" smooth="yes"/>
      <point x="239.8" y="646.2"/>
      <point x="249.8" y="642.7"/>
      <point x="260.7" y="632.6" type="curve"/>
      <point x="241.7" y="664.3" type="line"/>
      <point x="203.0" y="651.6"/>
      <point x="167.8" y="613.5"/>
      <point x="167.8" y="555.9" type="curve" smooth="yes"/>
      <point x="167.8" y="506.2"/>
      <point x="179.3" y="450.7"/>
      <point x="227.5" y="323.7" type="curve" smooth="yes"/>
      <point x="282.9" y="172.8"/>
      <point x="294.4" y="109.6"/>
      <point x="294.4" y="50.9" type="curve" smooth="yes"/>
      <point x="294.4" y="-62.1"/>
      <point x="237.4" y="-135.60000000000002"/>
    </contour>
  </outline>
</glyph>
<glyph name="copyright" format="2">
  <advance width="596.8"/>
  <unicode hex="00A9"/>
  <outline>
    <contour>
      <point x="298.4" y="33.599999999999994" type="curve" smooth="yes"/>
      <point x="149.3" y="33.599999999999994"/>
      <point x="75.9" y="146.2"/>
      <point x="75.9" y="350.7" type="curve" smooth="yes"/>
      <point x="75.9" y="555.5"/>
      <point x="149.3" y="667.8"/>
      <point x="298.4" y="667.8" type="curve" smooth="yes"/>
      <point x="449.6" y="667.8"/>
      <point x="520.2" y="555.5"/>
      <point x="520.2" y="350.7" type="curve" smooth="yes"/>
      <point x="520.2" y="146.2"/>
      <point x="449.6" y="33.599999999999994"/>
    </contour>
    <contour>
      <point x="298.4" y="710.0" type="curve" smooth="yes"/>
      <point x="122.0" y="710.0"/>
      <point x="31.6" y="575.0"/>
      <point x="31.6" y="350.7" type="curve" smooth="yes"/>
      <point x="31.6" y="127.4"/>
      <point x="122.0" y="-10.0"/>
      <point x="298.4" y="-10.0" type="curve" smooth="yes"/>
      <point x="474.79999999999995" y="-10.0"/>
      <point x="565.2" y="127.4"/>
      <point x="565.2" y="350.7" type="curve" smooth="yes"/>
      <point x="565.2" y="575.0"/>
      <point x="474.79999999999995" y="710.0"/>
    </contour>
    <contour>
      <point x="182.2" y="350.0" type="curve" smooth="yes"/>
      <point x="182.2" y="202.7"/>
      <point x="224.8" y="132.4"/>
      <point x="307.29999999999995" y="132.4" type="curve" smooth="yes"/>
      <point x="330.0" y="132.4"/>
      <point x="353.7" y="133.7"/>
      <point x="380.5" y="145.5" type="curve"/>
      <point x="366.0" y="232.8" type="line"/>
      <point x="345.0" y="226.6"/>
      <point x="331.5" y="224.9"/>
      <point x="317.79999999999995" y="224.9" type="curve" smooth="yes"/>
      <point x="286.6" y="224.9"/>
      <point x="279.9" y="258.6"/>
      <point x="279.9" y="345.1" type="curve" smooth="yes"/>
      <point x="279.9" y="446.6"/>
      <point x="290.6" y="479.4"/>
      <point x="321.9" y="479.4" type="curve" smooth="yes"/>
      <point x="333.4" y="479.4"/>
      <point x="355.4" y="475.2"/>
      <point x="368.6" y="471.5" type="curve"/>
      <point x="385.2" y="556.0" type="line"/>
      <point x="364.7" y="567.4"/>
      <point x="332.7" y="571.9"/>
      <point x="305.1" y="571.9" type="curve" smooth="yes"/>
      <point x="230.2" y="571.9"/>
      <point x="182.2" y="517.2"/>
    </contour>
  </outline>
</glyph>
<glyph name="ordfeminine" format="2">
  <advance width="262.5"/>
  <unicode hex="00AA"/>
  <outline>
    <contour>
      <point x="23.7" y="259.3" type="line"/>
      <point x="239.0" y="259.3" type="line"/>
      <point x="239.0" y="324.9" type="line"/>
      <point x="23.7" y="324.9" type="line"/>
    </contour>
    <component base="a.superior" xOffset="9.2"/>
  </outline>
</glyph>
<glyph name="logicalnot" format="2">
  <advance width="405.0"/>
  <unicode hex="00AC"/>
  <outline>
    <contour>
      <point x="42.3" y="316.1" type="line"/>
      <point x="245.0" y="316.1" type="line"/>
      <point x="245.0" y="178.4" type="line"/>
      <point x="363.0" y="178.4" type="line"/>
      <point x="363.0" y="434.1" type="line"/>
      <point x="42.3" y="434.1" type="line"/>
    </contour>
  </outline>
</glyph>
<glyph name="registered" format="2">
  <advance width="569.7"/>
  <unicode hex="00AE"/>
  <outline>
    <contour>
      <point x="285.0" y="208.0" type="curve" smooth="yes"/>
      <point x="452.5" y="208.0"/>
      <point x="538.0999999999999" y="338.6"/>
      <point x="538.0999999999999" y="550.7" type="curve" smooth="yes"/>
      <point x="538.0999999999999" y="763.8"/>
      <point x="452.5" y="892.0"/>
      <point x="285.0" y="892.0" type="curve" smooth="yes"/>
      <point x="117.5" y="892.0"/>
      <point x="31.6" y="763.8"/>
      <point x="31.6" y="550.7" type="curve" smooth="yes"/>
      <point x="31.6" y="338.6"/>
      <point x="117.5" y="208.0"/>
    </contour>
    <contour>
      <point x="285.0" y="249.2" type="curve" smooth="yes"/>
      <point x="143.1" y="249.2"/>
      <point x="73.8" y="356.4"/>
      <point x="73.8" y="550.7" type="curve" smooth="yes"/>
      <point x="73.8" y="745.3"/>
      <point x="143.1" y="852.2"/>
      <point x="285.0" y="852.2" type="curve" smooth="yes"/>
      <point x="429.0" y="852.2"/>
      <point x="495.5" y="745.3"/>
      <point x="495.5" y="550.7" type="curve" smooth="yes"/>
      <point x="495.5" y="356.4"/>
      <point x="429.0" y="249.2"/>
    </contour>
    <contour>
      <point x="387.2" y="353.4" type="curve" smooth="yes"/>
      <point x="392.29999999999995" y="353.4"/>
      <point x="399.6" y="353.4"/>
      <point x="405.29999999999995" y="354.4" type="curve"/>
      <point x="404.4" y="447.3" type="line"/>
      <point x="402.4" y="447.0"/>
      <point x="400.0" y="447.0"/>
      <point x="398.0" y="447.0" type="curve" smooth="yes"/>
      <point x="373.4" y="447.0"/>
      <point x="363.4" y="475.3"/>
      <point x="354.29999999999995" y="515.5" type="curve"/>
      <point x="387.29999999999995" y="533.6"/>
      <point x="398.0" y="582.6"/>
      <point x="398.0" y="636.2" type="curve" smooth="yes"/>
      <point x="398.0" y="722.1"/>
      <point x="358.6" y="760.8"/>
      <point x="293.4" y="760.8" type="curve" smooth="yes"/>
      <point x="255.79999999999998" y="760.8"/>
      <point x="225.0" y="758.1"/>
      <point x="192.89999999999998" y="754.8" type="curve"/>
      <point x="192.89999999999998" y="358.2" type="line"/>
      <point x="274.2" y="358.2" type="line"/>
      <point x="274.2" y="487.0" type="line"/>
      <point x="276.29999999999995" y="486.7"/>
      <point x="279.1" y="486.4"/>
      <point x="280.9" y="486.4" type="curve" smooth="yes"/>
      <point x="282.79999999999995" y="486.4"/>
      <point x="284.0" y="486.4"/>
      <point x="285.9" y="486.7" type="curve"/>
      <point x="316.0" y="356.2"/>
      <point x="346.29999999999995" y="353.4"/>
    </contour>
    <contour>
      <point x="287.4" y="545.7" type="curve" smooth="yes"/>
      <point x="283.1" y="545.7"/>
      <point x="279.2" y="545.7"/>
      <point x="274.2" y="546.7" type="curve"/>
      <point x="274.2" y="679.6" type="line"/>
      <point x="281.1" y="681.6"/>
      <point x="287.7" y="681.9"/>
      <point x="290.9" y="681.9" type="curve" smooth="yes"/>
      <point x="311.79999999999995" y="681.9"/>
      <point x="313.9" y="660.7"/>
      <point x="313.9" y="621.6" type="curve" smooth="yes"/>
      <point x="313.9" y="570.8"/>
      <point x="310.4" y="545.7"/>
    </contour>
  </outline>
</glyph>
<glyph name="degree" format="2">
  <advance width="289.4"/>
  <unicode hex="00B0"/>
  <outline>
    <contour>
      <point x="144.4" y="416.4" type="curve" smooth="yes"/>
      <point x="227.89999999999998" y="416.4"/>
      <point x="266.4" y="481.3"/>
      <point x="266.4" y="565.6" type="curve" smooth="yes"/>
      <point x="266.4" y="645.0"/>
      <point x="232.1" y="715.4"/>
      <point x="144.4" y="715.4" type="curve" smooth="yes"/>
      <point x="56.7" y="715.4"/>
      <point x="23.0" y="645.0"/>
      <point x="23.0" y="565.6" type="curve" smooth="yes"/>
      <point x="23.0" y="481.3"/>
      <point x="60.9" y="416.4"/>
    </contour>
    <contour>
      <point x="144.4" y="510.6" type="curve" smooth="yes"/>
      <point x="120.9" y="510.6"/>
      <point x="108.8" y="532.9"/>
      <point x="108.8" y="564.9" type="curve" smooth="yes"/>
      <point x="108.8" y="595.5"/>
      <point x="120.19999999999999" y="618.4"/>
      <point x="144.4" y="618.4" type="curve" smooth="yes"/>
      <point x="168.6" y="618.4"/>
      <point x="180.6" y="595.5"/>
      <point x="180.6" y="564.9" type="curve" smooth="yes"/>
      <point x="180.6" y="532.9"/>
      <point x="167.9" y="510.6"/>
    </contour>
  </outline>
</glyph>
<glyph name="plusminus" format="2">
  <advance width="414.6"/>
  <unicode hex="00B1"/>
  <outline>
    <contour>
      <point x="41.1" y="21.6" type="line"/>
      <point x="373.5" y="21.6" type="line"/>
      <point x="373.5" y="139.6" type="line"/>
      <point x="266.3" y="139.6" type="line"/>
      <point x="266.3" y="258.1" type="line"/>
      <point x="373.5" y="258.1" type="line"/>
      <point x="373.5" y="376.1" type="line"/>
      <point x="266.3" y="376.1" type="line"/>
      <point x="266.3" y="492.9" type="line"/>
      <point x="148.3" y="492.9" type="line"/>
      <point x="148.3" y="376.1" type="line"/>
      <point x="41.1" y="376.1" type="line"/>
      <point x="41.1" y="258.1" type="line"/>
      <point x="148.3" y="258.1" type="line"/>
      <point x="148.3" y="139.6" type="line"/>
      <point x="41.1" y="139.6" type="line"/>
    </contour>
  </outline>
</glyph>
<glyph name="uni00B2" format="2">
  <advance width="251.5"/>
  <unicode hex="00B2"/>
  <outline>
    <contour>
      <point x="37.6" y="370.0" type="line"/>
      <point x="221.9" y="370.0" type="line"/>
      <point x="221.9" y="438.5" type="line"/>
      <point x="127.8" y="438.5" type="line"/>
      <point x="193.3" y="544.4"/>
      <point x="213.7" y="594.6"/>
      <point x="213.7" y="653.6" type="curve" smooth="yes"/>
      <point x="213.7" y="733.4"/>
      <point x="178.0" y="775.3"/>
      <point x="115.8" y="775.3" type="curve" smooth="yes"/>
      <point x="81.1" y="775.3"/>
      <point x="53.3" y="765.1"/>
      <point x="23.3" y="741.8" type="curve"/>
      <point x="53.7" y="665.4" type="line"/>
      <point x="69.4" y="678.6"/>
      <point x="81.7" y="682.3"/>
      <point x="97.3" y="682.3" type="curve" smooth="yes"/>
      <point x="117.4" y="682.3"/>
      <point x="131.3" y="660.9"/>
      <point x="131.3" y="631.7" type="curve" smooth="yes"/>
      <point x="131.3" y="591.4"/>
      <point x="92.1" y="519.0"/>
      <point x="36.7" y="432.3" type="curve"/>
    </contour>
  </outline>
</glyph>
<glyph name="uni00B3" format="2">
  <advance width="260.6"/>
  <unicode hex="00B3"/>
  <outline>
    <contour>
      <point x="27.8" y="391.0" type="line"/>
      <point x="59.3" y="371.5"/>
      <point x="82.2" y="364.2"/>
      <point x="116.7" y="364.2" type="curve" smooth="yes"/>
      <point x="186.2" y="364.2"/>
      <point x="227.9" y="409.9"/>
      <point x="227.9" y="486.3" type="curve" smooth="yes"/>
      <point x="227.9" y="531.3"/>
      <point x="209.3" y="566.6"/>
      <point x="175.8" y="583.6" type="curve"/>
      <point x="204.4" y="603.3"/>
      <point x="221.0" y="638.3"/>
      <point x="221.0" y="675.3" type="curve" smooth="yes"/>
      <point x="221.0" y="737.2"/>
      <point x="182.0" y="776.1"/>
      <point x="119.2" y="776.1" type="curve" smooth="yes"/>
      <point x="83.7" y="776.1"/>
      <point x="52.7" y="766.3"/>
      <point x="28.1" y="746.3" type="curve"/>
      <point x="55.7" y="681.4" type="line"/>
      <point x="65.7" y="688.6"/>
      <point x="82.0" y="692.6"/>
      <point x="99.0" y="692.6" type="curve" smooth="yes"/>
      <point x="125.1" y="692.6"/>
      <point x="139.6" y="676.4"/>
      <point x="139.6" y="648.0" type="curve" smooth="yes"/>
      <point x="139.6" y="624.4"/>
      <point x="130.0" y="606.0"/>
      <point x="105.4" y="606.0" type="curve" smooth="yes"/>
      <point x="77.5" y="606.0" type="line"/>
      <point x="77.5" y="541.0" type="line"/>
      <point x="108.2" y="541.0" type="line" smooth="yes"/>
      <point x="136.3" y="541.0"/>
      <point x="145.2" y="522.8"/>
      <point x="145.2" y="494.7" type="curve" smooth="yes"/>
      <point x="145.2" y="461.9"/>
      <point x="129.4" y="442.8"/>
      <point x="103.8" y="442.8" type="curve" smooth="yes"/>
      <point x="86.3" y="442.8"/>
      <point x="74.3" y="446.7"/>
      <point x="58.1" y="457.6" type="curve"/>
    </contour>
  </outline>
</glyph>
<glyph name="uni00B5" format="2">
  <advance width="385.2"/>
  <unicode hex="00B5"/>
  <outline>
    <contour>
      <point x="26.5" y="-210.0" type="line"/>
      <point x="148.7" y="-210.0" type="line"/>
      <point x="148.7" y="1.9000000000000021" type="line"/>
      <point x="155.7" y="-5.4"/>
      <point x="165.89999999999998" y="-8.6"/>
      <point x="178.5" y="-8.6" type="curve" smooth="yes"/>
      <point x="199.2" y="-8.6"/>
      <point x="223.9" y="4.199999999999999"/>
      <point x="237.8" y="19.2" type="curve"/>
      <point x="252.7" y="2.8"/>
      <point x="264.2" y="-10.0"/>
      <point x="304.6" y="-10.0" type="curve" smooth="yes"/>
      <point x="339.8" y="-10.0"/>
      <point x="363.4" y="-1.0"/>
      <point x="384.4" y="10.2" type="curve"/>
      <point x="374.6" y="120.3" type="line"/>
      <point x="369.5" y="118.1"/>
      <point x="362.6" y="116.8"/>
      <point x="357.1" y="116.8" type="curve" smooth="yes"/>
      <point x="348.3" y="116.8"/>
      <point x="344.4" y="122.0"/>
      <point x="344.4" y="141.8" type="curve" smooth="yes"/>
      <point x="344.4" y="544.0" type="line"/>
      <point x="215.9" y="544.0" type="line"/>
      <point x="215.9" y="125.69999999999999" type="line"/>
      <point x="207.0" y="117.69999999999999"/>
      <point x="192.9" y="113.0"/>
      <point x="182.7" y="113.0" type="curve" smooth="yes"/>
      <point x="167.3" y="113.0"/>
      <point x="155.7" y="122.5"/>
      <point x="155.7" y="147.0" type="curve" smooth="yes"/>
      <point x="155.7" y="544.0" type="line"/>
      <point x="26.5" y="544.0" type="line"/>
    </contour>
  </outline>
</glyph>
<glyph name="paragraph" format="2">
  <advance width="502.2"/>
  <unicode hex="00B6"/>
  <outline>
    <contour>
      <point x="373.1" y="-210.0" type="line"/>
      <point x="474.29999999999995" y="-210.0" type="line"/>
      <point x="474.29999999999995" y="740.0" type="line"/>
      <point x="373.1" y="740.0" type="line"/>
    </contour>
    <contour>
      <point x="208.2" y="322.4" type="line"/>
      <point x="171.1" y="331.9"/>
      <point x="138.89999999999998" y="391.7"/>
      <point x="138.89999999999998" y="480.2" type="curve" smooth="yes"/>
      <point x="138.89999999999998" y="558.3"/>
      <point x="168.3" y="619.7"/>
      <point x="226.7" y="621.2" type="curve"/>
      <point x="226.7" y="-210.0" type="line"/>
      <point x="327.9" y="-210.0" type="line"/>
      <point x="327.9" y="740.0" type="line"/>
      <point x="264.6" y="740.0" type="line" smooth="yes"/>
      <point x="78.6" y="740.0"/>
      <point x="23.7" y="616.3"/>
      <point x="23.7" y="483.7" type="curve" smooth="yes"/>
      <point x="23.7" y="357.8"/>
      <point x="76.6" y="260.3"/>
      <point x="193.2" y="233.1" type="curve"/>
    </contour>
  </outline>
</glyph>
<glyph name="periodcentered" format="2">
  <advance width="167.0"/>
  <unicode hex="00B7"/>
  <outline>
    <contour>
      <point x="14.2" y="316.0" type="curve" smooth="yes"/>
      <point x="14.2" y="256.6"/>
      <point x="34.400000000000006" y="229.0"/>
      <point x="83.8" y="229.0" type="curve" smooth="yes"/>
      <point x="133.2" y="229.0"/>
      <point x="152.79999999999998" y="256.6"/>
      <point x="152.79999999999998" y="316.0" type="curve" smooth="yes"/>
      <point x="152.79999999999998" y="375.79999999999995"/>
      <point x="133.2" y="403.40000000000003"/>
      <point x="83.8" y="403.40000000000003" type="curve" smooth="yes"/>
      <point x="33.800000000000004" y="403.40000000000003"/>
      <point x="14.2" y="375.79999999999995"/>
    </contour>
  </outline>
</glyph>
<glyph name="uni00B9" format="2">
  <advance width="230.8"/>
  <unicode hex="00B9"/>
  <outline>
    <contour>
      <point x="25.9" y="370.0" type="line"/>
      <point x="214.7" y="370.0" type="line"/>
      <point x="214.7" y="438.8" type="line"/>
      <point x="165.0" y="438.8" type="line"/>
      <point x="165.0" y="769.3" type="line"/>
      <point x="123.5" y="769.3" type="line"/>
      <point x="18.200000000000003" y="728.3" type="line"/>
      <point x="32.5" y="650.3" type="line"/>
      <point x="82.3" y="673.4" type="line"/>
      <point x="82.3" y="438.8" type="line"/>
      <point x="25.9" y="438.8" type="line"/>
    </contour>
  </outline>
</glyph>
<glyph name="ordmasculine" format="2">
  <advance width="266.6"/>
  <unicode hex="00BA"/>
  <outline>
    <contour>
      <point x="28.8" y="259.3" type="line"/>
      <point x="244.1" y="259.3" type="line"/>
      <point x="244.1" y="324.9" type="line"/>
      <point x="28.8" y="324.9" type="line"/>
    </contour>
    <component base="o.superior" xOffset="11.600000000000001"/>
  </outline>
</glyph>
<glyph name="questiondown" format="2">
  <advance width="322.3"/>
  <unicode hex="00BF"/>
  <outline>
    <contour>
      <point x="248.39999999999998" y="275.8" type="line"/>
      <point x="135.3" y="275.8" type="line"/>
      <point x="135.3" y="201.3" type="line"/>
      <point x="61.0" y="150.4"/>
      <point x="28.8" y="78.0"/>
      <point x="28.8" y="-21.400000000000002" type="curve" smooth="yes"/>
      <point x="28.8" y="-146.4"/>
      <point x="92.3" y="-213.0"/>
      <point x="202.4" y="-213.0" type="curve" smooth="yes"/>
      <point x="253.8" y="-213.0"/>
      <point x="301.1" y="-192.7"/>
      <point x="334.1" y="-163.5" type="curve"/>
      <point x="286.4" y="-43.400000000000006" type="line"/>
      <point x="258.8" y="-67.30000000000001"/>
      <point x="241.7" y="-71.5"/>
      <point x="222.7" y="-71.5" type="curve" smooth="yes"/>
      <point x="184.7" y="-71.5"/>
      <point x="162.5" y="-39.80000000000001"/>
      <point x="162.5" y="4.599999999999994" type="curve" smooth="yes"/>
      <point x="162.5" y="51.8"/>
      <point x="178.1" y="95.6"/>
      <point x="251.2" y="144.0" type="curve"/>
    </contour>
    <contour>
      <point x="261.1" y="456.3" type="curve" smooth="yes"/>
      <point x="261.1" y="515.7"/>
      <point x="241.3" y="543.3"/>
      <point x="191.5" y="543.3" type="curve" smooth="yes"/>
      <point x="142.8" y="543.3"/>
      <point x="122.2" y="515.7"/>
      <point x="122.2" y="456.3" type="curve" smooth="yes"/>
      <point x="122.2" y="396.2"/>
      <point x="142.8" y="368.6"/>
      <point x="191.5" y="368.6" type="curve" smooth="yes"/>
      <point x="241.89999999999998" y="368.6"/>
      <point x="261.1" y="396.2"/>
    </contour>
  </outline>
</glyph>
<glyph name="AE" format="2">
  <advance width="578.8"/>
  <unicode hex="00C6"/>
  <anchor x="333.3" y="700.0" name="top"/>
  <outline>
    <contour>
      <point x="7.4" y="0.0" type="line"/>
      <point x="148.5" y="-0.30000000000000004" type="line"/>
      <point x="189.9" y="168.5" type="line"/>
      <point x="282.0" y="168.5" type="line"/>
      <point x="282.0" y="0.0" type="line"/>
      <point x="567.1" y="0.0" type="line"/>
      <point x="567.1" y="130.6" type="line"/>
      <point x="406.29999999999995" y="130.6" type="line"/>
      <point x="406.29999999999995" y="282.3" type="line"/>
      <point x="535.8" y="282.3" type="line"/>
      <point x="535.8" y="405.9" type="line"/>
      <point x="406.29999999999995" y="405.9" type="line"/>
      <point x="406.29999999999995" y="565.9" type="line"/>
      <point x="556.4" y="565.9" type="line"/>
      <point x="556.4" y="700.0" type="line"/>
      <point x="191.0" y="700.0" type="line"/>
    </contour>
    <contour>
      <point x="213.1" y="296.7" type="line"/>
      <point x="280.6" y="610.3" type="line"/>
      <point x="280.6" y="296.7" type="line"/>
    </contour>
  </outline>
</glyph>
<glyph name="multiply" format="2">
  <advance width="399.0"/>
  <unicode hex="00D7"/>
  <outline>
    <contour>
      <point x="122.4" y="136.2" type="line"/>
      <point x="199.2" y="239.7" type="line"/>
      <point x="276.6" y="136.5" type="line"/>
      <point x="361.1" y="218.29999999999998" type="line"/>
      <point x="281.9" y="325.1" type="line"/>
      <point x="360.8" y="432.5" type="line"/>
      <point x="276.3" y="514.3" type="line"/>
      <point x="199.2" y="410.8" type="line"/>
      <point x="122.4" y="514.3" type="line"/>
      <point x="37.900000000000006" y="432.5" type="line"/>
      <point x="116.80000000000001" y="325.1" type="line"/>
      <point x="37.900000000000006" y="218.0" type="line"/>
    </contour>
  </outline>
</glyph>
<glyph name="Oslash" format="2">
  <advance width="385.0"/>
  <unicode hex="00D8"/>
  <anchor x="193.79999999999998" y="700.0" name="top"/>
  <outline>
    <contour>
      <point x="85.39999999999999" y="-10.0" type="line"/>
      <point x="120.6" y="79.19999999999999" type="line"/>
      <point x="128.4" y="78.19999999999999" type="line"/>
      <point x="305.79999999999995" y="577.1999999999999" type="line"/>
      <point x="313.0" y="575.2" type="line"/>
      <point x="367.4" y="717.0" type="line"/>
      <point x="302.79999999999995" y="717.0" type="line"/>
      <point x="266.2" y="622.2" type="line"/>
      <point x="258.4" y="623.2" type="line"/>
      <point x="83.39999999999999" y="134.6" type="line"/>
      <point x="76.8" y="136.6" type="line"/>
      <point x="20.400000000000002" y="-10.0" type="line"/>
    </contour>
    <contour>
      <point x="193.79999999999998" y="107.4" type="curve" smooth="yes"/>
      <point x="151.8" y="107.4"/>
      <point x="142.8" y="148.4"/>
      <point x="142.8" y="349.0" type="curve" smooth="yes"/>
      <point x="142.8" y="550.1999999999999"/>
      <point x="152.2" y="592.6"/>
      <point x="193.79999999999998" y="592.6" type="curve" smooth="yes"/>
      <point x="236.39999999999998" y="592.6"/>
      <point x="245.4" y="551.6"/>
      <point x="245.4" y="350.40000000000003" type="curve" smooth="yes"/>
      <point x="245.4" y="149.8"/>
      <point x="236.0" y="107.4"/>
    </contour>
    <contour>
      <point x="193.39999999999998" y="-10.0" type="curve" smooth="yes"/>
      <point x="317.59999999999997" y="-10.0"/>
      <point x="371.4" y="72.19999999999999"/>
      <point x="371.4" y="351.4" type="curve" smooth="yes"/>
      <point x="371.4" y="629.1999999999999"/>
      <point x="318.59999999999997" y="710.0"/>
      <point x="193.79999999999998" y="710.0" type="curve" smooth="yes"/>
      <point x="69.60000000000001" y="710.0"/>
      <point x="16.4" y="627.8000000000001"/>
      <point x="16.4" y="348.6" type="curve" smooth="yes"/>
      <point x="16.4" y="70.8"/>
      <point x="69.2" y="-10.0"/>
    </contour>
  </outline>
</glyph>
<glyph name="Thorn" format="2">
  <advance width="380.29999999999995"/>
  <unicode hex="00DE"/>
  <outline>
    <contour>
      <point x="28.3" y="0.0" type="line"/>
      <point x="157.5" y="0.0" type="line"/>
      <point x="157.5" y="123.30000000000001" type="line"/>
      <point x="180.1" y="120.2"/>
      <point x="187.39999999999998" y="120.2"/>
      <point x="207.6" y="120.2" type="curve" smooth="yes"/>
      <point x="318.2" y="120.2"/>
      <point x="368.5" y="205.3"/>
      <point x="368.5" y="385.1" type="curve" smooth="yes"/>
      <point x="368.5" y="557.8"/>
      <point x="321.7" y="634.9"/>
      <point x="180.5" y="634.9" type="curve" smooth="yes"/>
      <point x="173.5" y="634.9"/>
      <point x="165.8" y="634.6"/>
      <point x="158.2" y="634.0" type="curve"/>
      <point x="158.2" y="700.0" type="line"/>
      <point x="28.3" y="700.0" type="line"/>
    </contour>
    <contour>
      <point x="184.8" y="248.7" type="curve" smooth="yes"/>
      <point x="175.1" y="248.7"/>
      <point x="168.39999999999998" y="248.7"/>
      <point x="158.2" y="250.4" type="curve"/>
      <point x="158.2" y="508.6" type="line"/>
      <point x="170.7" y="511.6"/>
      <point x="182.2" y="511.9"/>
      <point x="189.2" y="511.9" type="curve" smooth="yes"/>
      <point x="228.7" y="511.9"/>
      <point x="239.3" y="476.3"/>
      <point x="239.3" y="392.6" type="curve" smooth="yes"/>
      <point x="239.3" y="305.5"/>
      <point x="227.1" y="248.7"/>
    </contour>
  </outline>
</glyph>
<glyph name="germandbls" format="2">
  <advance width="497.19999999999993"/>
  <unicode hex="00DF"/>
  <outline>
    <contour>
      <point x="53.8" y="0.0" type="line"/>
      <point x="182.0" y="0.0" type="line"/>
      <point x="182.0" y="521.2" type="line" smooth="yes"/>
      <point x="182.0" y="590.4"/>
      <point x="208.60000000000002" y="628.4"/>
      <point x="267.8" y="628.4" type="curve" smooth="yes"/>
      <point x="308.2" y="628.4"/>
      <point x="326.2" y="612.6"/>
      <point x="326.2" y="581.0" type="curve" smooth="yes"/>
      <point x="326.2" y="556.4000000000001"/>
      <point x="317.6" y="543.1999999999999"/>
      <point x="281.0" y="516.1999999999999" type="curve" smooth="yes"/>
      <point x="238.0" y="485.0"/>
      <point x="213.8" y="446.20000000000005"/>
      <point x="213.8" y="382.0" type="curve" smooth="yes"/>
      <point x="213.8" y="290.2"/>
      <point x="247.4" y="251.4"/>
      <point x="314.2" y="216.4" type="curve" smooth="yes"/>
      <point x="362.4" y="189.79999999999998"/>
      <point x="373.59999999999997" y="178.2"/>
      <point x="373.59999999999997" y="153.79999999999998" type="curve" smooth="yes"/>
      <point x="373.59999999999997" y="128.0"/>
      <point x="357.6" y="109.6"/>
      <point x="317.8" y="109.6" type="curve" smooth="yes"/>
      <point x="279.8" y="109.6"/>
      <point x="250.8" y="117.19999999999999"/>
      <point x="218.79999999999998" y="127.19999999999999" type="curve"/>
      <point x="201.6" y="15.6" type="line"/>
      <point x="234.6" y="-1.6"/>
      <point x="281.4" y="-10.0"/>
      <point x="327.4" y="-10.0" type="curve" smooth="yes"/>
      <point x="433.4" y="-10.0"/>
      <point x="493.59999999999997" y="52.4"/>
      <point x="493.59999999999997" y="161.39999999999998" type="curve" smooth="yes"/>
      <point x="493.59999999999997" y="243.0"/>
      <point x="462.79999999999995" y="291.59999999999997"/>
      <point x="389.6" y="326.59999999999997" type="curve" smooth="yes"/>
      <point x="344.4" y="350.4"/>
      <point x="335.6" y="368.0"/>
      <point x="335.6" y="391.4" type="curve" smooth="yes"/>
      <point x="335.6" y="412.79999999999995"/>
      <point x="345.8" y="426.40000000000003"/>
      <point x="377.59999999999997" y="446.2" type="curve" smooth="yes"/>
      <point x="441.79999999999995" y="483.8"/>
      <point x="463.0" y="522.2"/>
      <point x="463.0" y="583.8000000000001" type="curve" smooth="yes"/>
      <point x="463.0" y="690.0"/>
      <point x="392.6" y="750.0"/>
      <point x="261.4" y="750.0" type="curve" smooth="yes"/>
      <point x="129.79999999999998" y="750.0"/>
      <point x="53.8" y="672.8"/>
      <point x="53.8" y="543.6" type="curve" smooth="yes"/>
      <point x="53.8" y="515.8" type="line"/>
      <point x="6.8" y="508.8" type="line"/>
      <point x="6.8" y="404.8" type="line"/>
      <point x="53.8" y="404.8" type="line"/>
    </contour>
  </outline>
</glyph>
<glyph name="ae" format="2">
  <advance width="532.7"/>
  <unicode hex="00E6"/>
  <anchor x="266.5" y="544.0" name="top"/>
  <outline>
    <contour>
      <point x="123.0" y="-10.0" type="curve" smooth="yes"/>
      <point x="172.3" y="-10.0"/>
      <point x="208.3" y="7.7"/>
      <point x="250.7" y="50.8" type="curve"/>
      <point x="251.7" y="50.8" type="line"/>
      <point x="283.4" y="9.5"/>
      <point x="322.3" y="-10.0"/>
      <point x="377.6" y="-10.0" type="curve" smooth="yes"/>
      <point x="424.1" y="-10.0"/>
      <point x="468.3" y="0.5999999999999996"/>
      <point x="514.1" y="21.4" type="curve"/>
      <point x="495.79999999999995" y="138.1" type="line"/>
      <point x="462.3" y="127.39999999999999"/>
      <point x="421.9" y="119.6"/>
      <point x="401.7" y="119.6" type="curve" smooth="yes"/>
      <point x="350.3" y="119.6"/>
      <point x="326.7" y="144.7"/>
      <point x="326.7" y="219.5" type="curve" smooth="yes"/>
      <point x="326.7" y="223.4"/>
      <point x="326.7" y="226.6"/>
      <point x="326.7" y="230.5" type="curve"/>
      <point x="389.3" y="234.0"/>
      <point x="477.9" y="246.3"/>
      <point x="516.4" y="252.3" type="curve"/>
      <point x="517.1" y="267.9"/>
      <point x="518.1" y="291.5"/>
      <point x="518.1" y="306.8" type="curve" smooth="yes"/>
      <point x="518.1" y="483.4"/>
      <point x="473.79999999999995" y="554.0"/>
      <point x="362.9" y="554.0" type="curve" smooth="yes"/>
      <point x="321.5" y="554.0"/>
      <point x="290.7" y="534.3"/>
      <point x="265.0" y="498.4" type="curve"/>
      <point x="264.0" y="498.4" type="line"/>
      <point x="237.0" y="535.6"/>
      <point x="203.8" y="554.0"/>
      <point x="156.5" y="554.0" type="curve" smooth="yes"/>
      <point x="117.5" y="554.0"/>
      <point x="62.4" y="542.0"/>
      <point x="23.8" y="525.4" type="curve"/>
      <point x="51.8" y="403.4" type="line"/>
      <point x="97.6" y="418.7"/>
      <point x="126.9" y="419.9"/>
      <point x="145.3" y="419.9" type="curve" smooth="yes"/>
      <point x="176.6" y="419.9"/>
      <point x="196.4" y="401.9"/>
      <point x="196.4" y="368.5" type="curve" smooth="yes"/>
      <point x="196.4" y="330.0" type="line"/>
      <point x="58.1" y="308.7"/>
      <point x="5.5" y="259.8"/>
      <point x="5.5" y="146.6" type="curve" smooth="yes"/>
      <point x="5.5" y="49.099999999999994"/>
      <point x="50.1" y="-10.0"/>
    </contour>
    <contour>
      <point x="163.5" y="97.19999999999999" type="curve" smooth="yes"/>
      <point x="143.6" y="97.19999999999999"/>
      <point x="130.5" y="118.39999999999999"/>
      <point x="130.5" y="160.7" type="curve" smooth="yes"/>
      <point x="130.5" y="210.9"/>
      <point x="150.1" y="237.0"/>
      <point x="197.1" y="248.7" type="curve"/>
      <point x="197.1" y="237.6"/>
      <point x="197.1" y="224.7"/>
      <point x="197.1" y="213.6" type="curve" smooth="yes"/>
      <point x="197.1" y="179.4"/>
      <point x="199.2" y="147.9"/>
      <point x="201.3" y="123.6" type="curve"/>
      <point x="192.2" y="108.0"/>
      <point x="175.9" y="97.19999999999999"/>
    </contour>
    <contour>
      <point x="325.3" y="311.5" type="curve"/>
      <point x="323.2" y="414.7"/>
      <point x="334.8" y="447.1"/>
      <point x="357.0" y="447.1" type="curve" smooth="yes"/>
      <point x="380.7" y="447.1"/>
      <point x="390.3" y="412.7"/>
      <point x="391.7" y="318.0" type="curve"/>
      <point x="379.9" y="314.6"/>
      <point x="344.9" y="311.5"/>
    </contour>
  </outline>
</glyph>
<glyph name="eth" format="2">
  <advance width="360.8"/>
  <unicode hex="00F0"/>
  <outline>
    <contour>
      <point x="232.8" y="429.59999999999997" type="curve"/>
      <point x="240.0" y="524.8" type="line"/>
      <point x="220.0" y="534.0"/>
      <point x="197.2" y="539.6"/>
      <point x="175.6" y="539.6" type="curve" smooth="yes"/>
      <point x="58.0" y="539.6"/>
      <point x="16.000000000000004" y="449.59999999999997"/>
      <point x="16.000000000000004" y="248.6" type="curve" smooth="yes"/>
      <point x="16.000000000000004" y="68.0"/>
      <point x="65.39999999999999" y="-10.0"/>
      <point x="175.99999999999997" y="-10.0" type="curve" smooth="yes"/>
      <point x="305.0" y="-10.0"/>
      <point x="346.59999999999997" y="73.60000000000001"/>
      <point x="346.59999999999997" y="341.4" type="curve" smooth="yes"/>
      <point x="346.59999999999997" y="611.6"/>
      <point x="279.59999999999997" y="738.0"/>
      <point x="122.6" y="738.0" type="curve" smooth="yes"/>
      <point x="83.8" y="738.0"/>
      <point x="48.8" y="728.0"/>
      <point x="19.2" y="716.4000000000001" type="curve"/>
      <point x="34.6" y="630.8" type="line"/>
      <point x="52.2" y="636.8"/>
      <point x="71.2" y="642.6"/>
      <point x="92.6" y="642.6" type="curve" smooth="yes"/>
      <point x="192.0" y="642.6"/>
      <point x="215.6" y="586.0"/>
      <point x="215.6" y="361.8" type="curve" smooth="yes"/>
      <point x="215.6" y="121.6"/>
      <point x="209.4" y="86.0"/>
      <point x="181.6" y="86.0" type="curve" smooth="yes"/>
      <point x="155.4" y="86.0"/>
      <point x="149.0" y="123.99999999999999"/>
      <point x="149.0" y="249.0" type="curve" smooth="yes"/>
      <point x="149.0" y="408.8"/>
      <point x="162.2" y="440.4"/>
      <point x="197.99999999999997" y="440.4" type="curve" smooth="yes"/>
      <point x="207.6" y="440.4"/>
      <point x="219.6" y="437.8"/>
    </contour>
    <contour>
      <point x="128.6" y="557.1999999999999" type="line"/>
      <point x="216.0" y="629.8000000000001" type="line"/>
      <point x="218.2" y="635.8" type="line"/>
      <point x="344.0" y="739.4000000000001" type="line"/>
      <point x="252.79999999999998" y="739.8000000000001" type="line"/>
      <point x="179.6" y="680.1999999999999" type="line"/>
      <point x="181.20000000000002" y="675.8000000000001" type="line"/>
      <point x="39.400000000000006" y="557.6" type="line"/>
    </contour>
  </outline>
</glyph>
<glyph name="divide" format="2">
  <advance width="405.0"/>
  <unicode hex="00F7"/>
  <outline>
    <contour>
      <point x="135.6" y="134.6" type="curve" smooth="yes"/>
      <point x="135.6" y="89.2"/>
      <point x="155.20000000000002" y="67.60000000000001"/>
      <point x="202.8" y="67.60000000000001" type="curve" smooth="yes"/>
      <point x="249.39999999999998" y="67.60000000000001"/>
      <point x="270.0" y="89.2"/>
      <point x="270.0" y="134.6" type="curve" smooth="yes"/>
      <point x="270.0" y="180.4"/>
      <point x="249.39999999999998" y="202.0"/>
      <point x="202.8" y="202.0" type="curve" smooth="yes"/>
      <point x="155.20000000000002" y="202.0"/>
      <point x="135.6" y="180.4"/>
    </contour>
    <contour>
      <point x="135.6" y="500.40000000000003" type="curve" smooth="yes"/>
      <point x="135.6" y="455.0"/>
      <point x="155.20000000000002" y="434.0"/>
      <point x="202.8" y="434.0" type="curve" smooth="yes"/>
      <point x="249.39999999999998" y="434.0"/>
      <point x="270.0" y="455.0"/>
      <point x="270.0" y="500.40000000000003" type="curve" smooth="yes"/>
      <point x="270.0" y="546.8"/>
      <point x="249.39999999999998" y="567.8000000000001"/>
      <point x="202.8" y="567.8000000000001" type="curve" smooth="yes"/>
      <point x="155.20000000000002" y="567.8000000000001"/>
      <point x="135.6" y="546.8"/>
    </contour>
    <contour>
      <point x="41.400000000000006" y="259.40000000000003" type="line"/>
      <point x="364.2" y="259.40000000000003" type="line"/>
      <point x="364.2" y="377.40000000000003" type="line"/>
      <point x="41.400000000000006" y="377.40000000000003" type="line"/>
    </contour>
  </outline>
</glyph>
<glyph name="oslash" format="2">
  <advance width="368.79999999999995"/>
  <unicode hex="00F8"/>
  <anchor x="182.79999999999998" y="544.0" name="top"/>
  <outline>
    <contour>
      <point x="182.79999999999998" y="-10.0" type="curve" smooth="yes"/>
      <point x="45.2" y="-10.0"/>
      <point x="15.400000000000002" y="96.80000000000001"/>
      <point x="15.400000000000002" y="273.0" type="curve" smooth="yes"/>
      <point x="15.400000000000002" y="449.2"/>
      <point x="45.2" y="554.0"/>
      <point x="182.79999999999998" y="554.0" type="curve" smooth="yes"/>
      <point x="320.4" y="554.0"/>
      <point x="351.2" y="449.2"/>
      <point x="351.2" y="273.0" type="curve" smooth="yes"/>
      <point x="351.2" y="96.80000000000001"/>
      <point x="320.4" y="-10.0"/>
    </contour>
    <contour>
      <point x="183.39999999999998" y="103.19999999999999" type="curve" smooth="yes"/>
      <point x="214.6" y="103.19999999999999"/>
      <point x="224.0" y="125.39999999999999"/>
      <point x="224.0" y="273.0" type="curve" smooth="yes"/>
      <point x="224.0" y="420.6"/>
      <point x="214.6" y="441.8"/>
      <point x="183.39999999999998" y="441.8" type="curve" smooth="yes"/>
      <point x="150.79999999999998" y="441.8"/>
      <point x="142.79999999999998" y="420.6"/>
      <point x="142.79999999999998" y="273.0" type="curve" smooth="yes"/>
      <point x="142.79999999999998" y="125.39999999999999"/>
      <point x="150.79999999999998" y="103.19999999999999"/>
    </contour>
    <contour>
      <point x="13.000000000000002" y="-3.000000000000001" type="line"/>
      <point x="80.79999999999998" y="136.0" type="line"/>
      <point x="85.6" y="134.8" type="line"/>
      <point x="245.39999999999998" y="480.20000000000005" type="line"/>
      <point x="251.39999999999998" y="479.0" type="line"/>
      <point x="289.59999999999997" y="554.0" type="line"/>
      <point x="353.6" y="554.0" type="line"/>
      <point x="292.6" y="431.8" type="line"/>
      <point x="287.2" y="433.0" type="line"/>
      <point x="123.0" y="77.0" type="line"/>
      <point x="117.0" y="78.2" type="line"/>
      <point x="76.6" y="-3.000000000000001" type="line"/>
    </contour>
  </outline>
</glyph>
<glyph name="thorn" format="2">
  <advance width="367.3"/>
  <unicode hex="00FE"/>
  <outline>
    <contour>
      <point x="26.5" y="-210.0" type="line"/>
      <point x="153.6" y="-210.0" type="line"/>
      <point x="153.6" y="-7.6" type="line"/>
      <point x="161.39999999999998" y="-9.4"/>
      <point x="167.3" y="-10.0"/>
      <point x="173.6" y="-10.0" type="curve" smooth="yes"/>
      <point x="303.8" y="-10.0"/>
      <point x="351.6" y="70.5"/>
      <point x="351.6" y="288.6" type="curve" smooth="yes"/>
      <point x="351.6" y="469.4"/>
      <point x="311.6" y="554.0"/>
      <point x="224.39999999999998" y="554.0" type="curve" smooth="yes"/>
      <point x="202.8" y="554.0"/>
      <point x="172.39999999999998" y="543.6"/>
      <point x="155.0" y="530.5" type="curve"/>
      <point x="155.0" y="740.0" type="line"/>
      <point x="26.5" y="740.0" type="line"/>
    </contour>
    <contour>
      <point x="174.89999999999998" y="97.3" type="curve" smooth="yes"/>
      <point x="169.89999999999998" y="97.3"/>
      <point x="165.1" y="98.6"/>
      <point x="155.7" y="101.8" type="curve"/>
      <point x="155.7" y="418.8" type="line"/>
      <point x="166.0" y="426.7"/>
      <point x="171.2" y="429.6"/>
      <point x="181.6" y="429.6" type="curve" smooth="yes"/>
      <point x="205.6" y="429.6"/>
      <point x="215.4" y="390.9"/>
      <point x="215.4" y="273.9" type="curve" smooth="yes"/>
      <point x="215.4" y="131.4"/>
      <point x="206.5" y="97.3"/>
    </contour>
  </outline>
</glyph>
<glyph name="Dcroat" format="2">
  <advance width="392.7"/>
  <unicode hex="0110"/>
  <outline>
    <contour>
      <point x="0.0" y="292.6" type="line"/>
      <point x="204.5" y="292.6" type="line"/>
      <point x="204.5" y="412.7" type="line"/>
      <point x="0.0" y="412.7" type="line"/>
    </contour>
    <component base="D" xOffset="2.1000000000000005"/>
  </outline>
</glyph>
<glyph name="dcroat" format="2">
  <advance width="372.9"/>
  <unicode hex="0111"/>
  <outline>
    <contour>
      <point x="135.0" y="608.9" type="line"/>
      <point x="380.7" y="608.9" type="line"/>
      <point x="380.7" y="687.1" type="line"/>
      <point x="135.0" y="687.1" type="line"/>
    </contour>
    <component base="d"/>
  </outline>
</glyph>
<glyph name="Hbar" format="2">
  <advance width="395.5"/>
  <unicode hex="0126"/>
  <outline>
    <contour>
      <point x="1.8000000000000007" y="502.7" type="line"/>
      <point x="28.3" y="502.7" type="line"/>
      <point x="28.3" y="0.0" type="line"/>
      <point x="156.8" y="0.0" type="line"/>
      <point x="156.8" y="246.9" type="line"/>
      <point x="238.7" y="246.9" type="line"/>
      <point x="238.7" y="0.0" type="line"/>
      <point x="367.2" y="0.0" type="line"/>
      <point x="367.2" y="502.7" type="line"/>
      <point x="393.7" y="502.7" type="line"/>
      <point x="393.7" y="610.7" type="line"/>
      <point x="367.2" y="610.7" type="line"/>
      <point x="367.2" y="700.0" type="line"/>
      <point x="238.7" y="700.0" type="line"/>
      <point x="238.7" y="610.7" type="line"/>
      <point x="156.8" y="610.7" type="line"/>
      <point x="156.8" y="700.0" type="line"/>
      <point x="28.3" y="700.0" type="line"/>
      <point x="28.3" y="610.7" type="line"/>
      <point x="1.8000000000000007" y="610.7" type="line"/>
    </contour>
    <contour>
      <point x="156.8" y="382.1" type="line"/>
      <point x="156.8" y="502.7" type="line"/>
      <point x="238.7" y="502.7" type="line"/>
      <point x="238.7" y="382.1" type="line"/>
    </contour>
  </outline>
</glyph>
<glyph name="hbar" format="2">
  <advance width="369.5"/>
  <unicode hex="0127"/>
  <outline>
    <contour>
      <point x="-4.699999999999999" y="608.9" type="line"/>
      <point x="226.3" y="608.9" type="line"/>
      <point x="226.3" y="687.1" type="line"/>
      <point x="-4.699999999999999" y="687.1" type="line"/>
    </contour>
    <component base="h"/>
  </outline>
</glyph>
<glyph name="Idotaccent" format="2">
  <advance width="185.1"/>
  <unicode hex="0130"/>
  <outline>
    <contour>
      <point x="93.6" y="745.4" type="curve" smooth="yes"/>
      <point x="142.6" y="745.4"/>
      <point x="166.39999999999998" y="771.6"/>
      <point x="166.39999999999998" y="827.5" type="curve" smooth="yes"/>
      <point x="166.39999999999998" y="884.8"/>
      <point x="141.2" y="910.3"/>
      <point x="93.6" y="910.3" type="curve" smooth="yes"/>
      <point x="45.3" y="910.3"/>
      <point x="20.1" y="884.8"/>
      <point x="20.1" y="827.5" type="curve" smooth="yes"/>
      <point x="20.1" y="770.9"/>
      <point x="45.6" y="745.4"/>
    </contour>
    <component base="I"/>
  </outline>
</glyph>
<glyph name="dotlessi" format="2">
  <advance width="183.6"/>
  <unicode hex="0131"/>
  <anchor x="154.3" y="7.0" name="ogonek"/>
  <anchor x="93.19999999999999" y="0.0" name="bottom"/>
  <anchor x="91.8" y="544.0" name="top"/>
  <outline>
    <contour>
      <point x="26.5" y="0.0" type="line"/>
      <point x="157.1" y="0.0" type="line"/>
      <point x="157.1" y="544.0" type="line"/>
      <point x="26.5" y="544.0" type="line"/>
    </contour>
  </outline>
</glyph>
<glyph name="kgreenlandic" format="2">
  <advance width="352.0"/>
  <unicode hex="0138"/>
  <anchor x="182.2" y="544.0" name="top"/>
  <anchor x="182.2" y="0.0" name="bottom"/>
  <outline>
    <contour>
      <point x="312.79999999999995" y="-8.8" type="curve" smooth="yes"/>
      <point x="324.8" y="-8.8"/>
      <point x="336.4" y="-7.800000000000001"/>
      <point x="348.8" y="-4.4" type="curve"/>
      <point x="348.2" y="136.2" type="line"/>
      <point x="345.2" y="136.2"/>
      <point x="342.0" y="135.6"/>
      <point x="339.0" y="135.6" type="curve" smooth="yes"/>
      <point x="315.6" y="135.6"/>
      <point x="299.4" y="149.6"/>
      <point x="243.8" y="244.4" type="curve" smooth="yes"/>
      <point x="147.6" y="408.2" type="line"/>
      <point x="147.6" y="544.0" type="line"/>
      <point x="26.799999999999997" y="544.0" type="line"/>
      <point x="26.799999999999997" y="0.0" type="line"/>
      <point x="147.6" y="0.0" type="line"/>
      <point x="147.6" y="192.20000000000002" type="line"/>
      <point x="206.99999999999997" y="84.0" type="line" smooth="yes"/>
      <point x="248.8" y="8.6"/>
      <point x="271.0" y="-8.8"/>
    </contour>
    <contour>
      <point x="219.0" y="219.20000000000002" type="line"/>
      <point x="285.4" y="318.8"/>
      <point x="338.8" y="433.4"/>
      <point x="349.59999999999997" y="538.5999999999999" type="curve"/>
      <point x="225.4" y="547.4" type="line"/>
      <point x="218.8" y="441.8"/>
      <point x="190.2" y="379.0"/>
      <point x="140.8" y="305.0" type="curve"/>
    </contour>
  </outline>
</glyph>
<glyph name="Ldot" format="2">
  <advance width="303.9"/>
  <unicode hex="013F"/>
  <outline>
    <contour>
      <point x="200.0" y="384.3" type="curve" smooth="yes"/>
      <point x="200.0" y="344.5"/>
      <point x="212.89999999999998" y="326.7"/>
      <point x="245.5" y="326.7" type="curve" smooth="yes"/>
      <point x="279.1" y="326.7"/>
      <point x="291.7" y="344.5"/>
      <point x="291.7" y="384.3" type="curve" smooth="yes"/>
      <point x="291.7" y="424.8"/>
      <point x="279.1" y="442.6"/>
      <point x="245.5" y="442.6" type="curve" smooth="yes"/>
      <point x="212.6" y="442.6"/>
      <point x="200.0" y="424.8"/>
    </contour>
    <component base="L"/>
  </outline>
</glyph>
<glyph name="ldot" format="2">
  <advance width="292.6"/>
  <unicode hex="0140"/>
  <outline>
    <contour>
      <point x="235.89999999999998" y="311.3" type="curve" smooth="yes"/>
      <point x="266.0" y="311.3"/>
      <point x="282.79999999999995" y="327.7"/>
      <point x="282.79999999999995" y="370.3" type="curve" smooth="yes"/>
      <point x="282.79999999999995" y="413.6"/>
      <point x="266.0" y="430.0"/>
      <point x="235.89999999999998" y="430.0" type="curve" smooth="yes"/>
      <point x="206.5" y="430.0"/>
      <point x="189.7" y="413.6"/>
      <point x="189.7" y="370.3" type="curve" smooth="yes"/>
      <point x="189.7" y="327.7"/>
      <point x="206.8" y="311.3"/>
    </contour>
    <component base="l"/>
  </outline>
</glyph>
<glyph name="Lslash" format="2">
  <advance width="323.0"/>
  <unicode hex="0141"/>
  <outline>
    <contour>
      <point x="11.4" y="211.9" type="line"/>
      <point x="47.400000000000006" y="238.4" type="line"/>
      <point x="47.400000000000006" y="0.0" type="line"/>
      <point x="314.8" y="0.0" type="line"/>
      <point x="314.8" y="130.3" type="line"/>
      <point x="176.6" y="130.3" type="line"/>
      <point x="176.6" y="307.5" type="line"/>
      <point x="276.4" y="377.1" type="line"/>
      <point x="276.4" y="506.7" type="line"/>
      <point x="176.6" y="437.4" type="line"/>
      <point x="176.6" y="700.0" type="line"/>
      <point x="47.400000000000006" y="700.0" type="line"/>
      <point x="47.400000000000006" y="368.3" type="line"/>
      <point x="11.4" y="341.8" type="line"/>
    </contour>
  </outline>
</glyph>
<glyph name="lslash" format="2">
  <advance width="224.0"/>
  <unicode hex="0142"/>
  <outline>
    <contour>
      <point x="147.7" y="-10.0" type="curve" smooth="yes"/>
      <point x="174.89999999999998" y="-10.0"/>
      <point x="200.2" y="0.3999999999999986"/>
      <point x="215.0" y="10.299999999999999" type="curve"/>
      <point x="206.8" y="137.1" type="line"/>
      <point x="198.8" y="134.89999999999998"/>
      <point x="192.2" y="133.89999999999998"/>
      <point x="187.6" y="133.89999999999998" type="curve" smooth="yes"/>
      <point x="173.3" y="133.89999999999998"/>
      <point x="164.1" y="142.39999999999998"/>
      <point x="164.1" y="191.3" type="curve" smooth="yes"/>
      <point x="164.1" y="337.1" type="line"/>
      <point x="215.6" y="384.1" type="line"/>
      <point x="215.6" y="497.6" type="line"/>
      <point x="164.1" y="450.6" type="line"/>
      <point x="164.1" y="740.0" type="line"/>
      <point x="35.6" y="740.0" type="line"/>
      <point x="35.6" y="337.9" type="line"/>
      <point x="2.0999999999999996" y="307.5" type="line"/>
      <point x="2.0999999999999996" y="194.3" type="line"/>
      <point x="35.6" y="224.4" type="line"/>
      <point x="35.6" y="158.4" type="line" smooth="yes"/>
      <point x="35.6" y="33.3"/>
      <point x="70.1" y="-10.0"/>
    </contour>
  </outline>
</glyph>
<glyph name="Eng" format="2">
  <advance width="407.3"/>
  <unicode hex="014A"/>
  <outline>
    <contour>
      <point x="28.3" y="0.0" type="line"/>
      <point x="142.1" y="0.0" type="line"/>
      <point x="142.1" y="380.5" type="line"/>
      <point x="253.3" y="-2.799999999999999" type="line"/>
      <point x="253.3" y="-9.5" type="line" smooth="yes"/>
      <point x="253.3" y="-38.900000000000006"/>
      <point x="238.2" y="-53.0"/>
      <point x="209.6" y="-53.0" type="curve" smooth="yes"/>
      <point x="199.9" y="-53.0"/>
      <point x="190.6" y="-53.0"/>
      <point x="176.7" y="-46.7" type="curve"/>
      <point x="153.6" y="-167.9" type="line"/>
      <point x="174.5" y="-181.2"/>
      <point x="199.9" y="-192.39999999999998"/>
      <point x="242.5" y="-192.39999999999998" type="curve" smooth="yes"/>
      <point x="336.0" y="-192.39999999999998"/>
      <point x="379.0" y="-128.2"/>
      <point x="379.0" y="-14.2" type="curve" smooth="yes"/>
      <point x="379.0" y="700.0" type="line"/>
      <point x="265.2" y="700.0" type="line"/>
      <point x="265.2" y="298.29999999999995" type="line"/>
      <point x="164.89999999999998" y="700.0" type="line"/>
      <point x="28.3" y="700.0" type="line"/>
    </contour>
  </outline>
</glyph>
<glyph name="eng" format="2">
  <advance width="370.2"/>
  <unicode hex="014B"/>
  <outline>
    <contour>
      <point x="345.1" y="17.5" type="curve"/>
      <point x="345.1" y="435.5" type="line" smooth="yes"/>
      <point x="345.1" y="511.8"/>
      <point x="310.79999999999995" y="554.0"/>
      <point x="247.7" y="554.0" type="curve" smooth="yes"/>
      <point x="208.8" y="554.0"/>
      <point x="172.2" y="539.8"/>
      <point x="143.8" y="514.9" type="curve"/>
      <point x="143.8" y="544.0" type="line"/>
      <point x="26.5" y="544.0" type="line"/>
      <point x="26.5" y="0.0" type="line"/>
      <point x="155.7" y="0.0" type="line"/>
      <point x="155.7" y="414.8" type="line"/>
      <point x="163.89999999999998" y="421.4"/>
      <point x="177.3" y="427.5"/>
      <point x="188.9" y="427.5" type="curve" smooth="yes"/>
      <point x="206.4" y="427.5"/>
      <point x="215.9" y="415.9"/>
      <point x="215.9" y="393.5" type="curve" smooth="yes"/>
      <point x="215.9" y="13.3" type="line" smooth="yes"/>
      <point x="215.9" y="-30.1"/>
      <point x="208.1" y="-54.900000000000006"/>
      <point x="193.0" y="-64.50000000000001" type="curve" smooth="yes"/>
      <point x="189.4" y="-66.00000000000001"/>
      <point x="183.7" y="-66.50000000000001"/>
      <point x="180.5" y="-66.7" type="curve"/>
      <point x="177.6" y="-211.8" type="line"/>
      <point x="192.6" y="-213.8"/>
      <point x="208.7" y="-213.4"/>
      <point x="228.3" y="-211.6" type="curve" smooth="yes"/>
      <point x="302.0" y="-200.5"/>
      <point x="345.1" y="-118.7"/>
    </contour>
  </outline>
</glyph>
<glyph name="OE" format="2">
  <advance width="530.6"/>
  <unicode hex="0152"/>
  <outline>
    <contour>
      <point x="518.9" y="0.0" type="line"/>
      <point x="518.9" y="130.6" type="line"/>
      <point x="363.0" y="130.6" type="line"/>
      <point x="363.0" y="290.7" type="line"/>
      <point x="487.6" y="290.7" type="line"/>
      <point x="487.6" y="414.3" type="line"/>
      <point x="363.0" y="414.3" type="line"/>
      <point x="363.0" y="565.9" type="line"/>
      <point x="508.2" y="565.9" type="line"/>
      <point x="508.2" y="700.0" type="line"/>
      <point x="327.3" y="700.0" type="line"/>
      <point x="289.4" y="706.5"/>
      <point x="251.8" y="708.2"/>
      <point x="219.9" y="708.2" type="curve" smooth="yes"/>
      <point x="72.0" y="708.2"/>
      <point x="14.700000000000001" y="609.2"/>
      <point x="14.700000000000001" y="352.8" type="curve" smooth="yes"/>
      <point x="14.700000000000001" y="67.4"/>
      <point x="83.7" y="-8.8"/>
      <point x="213.1" y="-8.8" type="curve" smooth="yes"/>
      <point x="249.1" y="-8.8"/>
      <point x="303.5" y="-7.5"/>
      <point x="362.3" y="0.0" type="curve"/>
    </contour>
    <contour>
      <point x="233.8" y="118.89999999999999" type="line"/>
      <point x="225.1" y="116.89999999999999"/>
      <point x="214.4" y="115.19999999999999"/>
      <point x="206.3" y="115.19999999999999" type="curve" smooth="yes"/>
      <point x="164.1" y="115.19999999999999"/>
      <point x="148.39999999999998" y="163.1"/>
      <point x="148.39999999999998" y="350.0" type="curve" smooth="yes"/>
      <point x="148.39999999999998" y="541.9"/>
      <point x="162.6" y="583.1"/>
      <point x="209.5" y="583.1" type="curve" smooth="yes"/>
      <point x="218.7" y="583.1"/>
      <point x="222.3" y="581.4"/>
      <point x="233.8" y="579.4" type="curve"/>
    </contour>
  </outline>
</glyph>
<glyph name="oe" format="2">
  <advance width="561.3"/>
  <unicode hex="0153"/>
  <outline>
    <contour>
      <point x="15.700000000000001" y="272.7" type="curve" smooth="yes"/>
      <point x="15.700000000000001" y="96.5"/>
      <point x="45.8" y="-10.0"/>
      <point x="183.4" y="-10.0" type="curve" smooth="yes"/>
      <point x="231.3" y="-10.0"/>
      <point x="260.9" y="12.3"/>
      <point x="283.7" y="49.60000000000001" type="curve"/>
      <point x="311.8" y="12.600000000000001"/>
      <point x="346.4" y="-10.0"/>
      <point x="407.8" y="-10.0" type="curve" smooth="yes"/>
      <point x="455.5" y="-10.0"/>
      <point x="501.2" y="1.5999999999999996"/>
      <point x="541.3" y="21.4" type="curve"/>
      <point x="523.0" y="139.5" type="line"/>
      <point x="478.5" y="125.69999999999999"/>
      <point x="440.1" y="121.0"/>
      <point x="426.1" y="121.0" type="curve" smooth="yes"/>
      <point x="387.5" y="121.0"/>
      <point x="349.7" y="137.2"/>
      <point x="349.7" y="210.5" type="curve" smooth="yes"/>
      <point x="349.7" y="217.7"/>
      <point x="349.7" y="224.5"/>
      <point x="349.7" y="231.7" type="curve"/>
      <point x="416.5" y="235.2"/>
      <point x="511.4" y="247.0"/>
      <point x="545.0" y="252.3" type="curve"/>
      <point x="545.7" y="266.5"/>
      <point x="546.7" y="290.1"/>
      <point x="546.7" y="306.8" type="curve" smooth="yes"/>
      <point x="546.7" y="471.6"/>
      <point x="507.29999999999995" y="554.0"/>
      <point x="384.2" y="554.0" type="curve" smooth="yes"/>
      <point x="339.6" y="554.0"/>
      <point x="310.5" y="530.3"/>
      <point x="287.1" y="491.3" type="curve"/>
      <point x="259.1" y="532.1"/>
      <point x="227.8" y="554.0"/>
      <point x="183.4" y="554.0" type="curve" smooth="yes"/>
      <point x="45.8" y="554.0"/>
      <point x="15.700000000000001" y="448.9"/>
    </contour>
    <contour>
      <point x="149.1" y="272.7" type="curve" smooth="yes"/>
      <point x="149.1" y="411.9"/>
      <point x="156.39999999999998" y="432.4"/>
      <point x="183.4" y="432.4" type="curve" smooth="yes"/>
      <point x="209.7" y="432.4"/>
      <point x="217.7" y="411.9"/>
      <point x="217.7" y="272.7" type="curve" smooth="yes"/>
      <point x="217.7" y="133.5"/>
      <point x="209.7" y="112.3"/>
      <point x="183.4" y="112.3" type="curve" smooth="yes"/>
      <point x="156.39999999999998" y="112.3"/>
      <point x="149.1" y="133.5"/>
    </contour>
    <contour>
      <point x="349.7" y="312.7" type="curve"/>
      <point x="351.8" y="432.2"/>
      <point x="362.7" y="447.1"/>
      <point x="383.5" y="447.1" type="curve" smooth="yes"/>
      <point x="402.6" y="447.1"/>
      <point x="418.9" y="420.3"/>
      <point x="418.9" y="318.0" type="curve"/>
      <point x="404.6" y="315.5"/>
      <point x="373.6" y="312.7"/>
    </contour>
  </outline>
</glyph>
<glyph name="uni0162" format="2">
  <advance width="347.4"/>
  <unicode hex="0162"/>
  <outline>
    <contour>
      <point x="81.5" y="-123.60000000000001" type="curve"/>
      <point x="80.1" y="-210.0" type="line"/>
      <point x="100.8" y="-218.0"/>
      <point x="119.7" y="-220.0"/>
      <point x="138.1" y="-220.0" type="curve" smooth="yes"/>
      <point x="209.2" y="-220.0"/>
      <point x="232.0" y="-175.6"/>
      <point x="232.0" y="-118.0" type="curve" smooth="yes"/>
      <point x="232.0" y="-81.6"/>
      <point x="215.39999999999998" y="-25.0"/>
      <point x="204.7" y="4.199999999999999" type="curve"/>
      <point x="128.7" y="4.199999999999999" type="line"/>
      <point x="142.2" y="-25.1"/>
      <point x="153.1" y="-64.2"/>
      <point x="153.1" y="-85.80000000000001" type="curve" smooth="yes"/>
      <point x="153.1" y="-113.4"/>
      <point x="136.2" y="-128.8"/>
      <point x="115.9" y="-128.8" type="curve" smooth="yes"/>
      <point x="105.5" y="-128.8"/>
      <point x="96.5" y="-127.2"/>
    </contour>
    <component base="T"/>
  </outline>
</glyph>
<glyph name="Tbar" format="2">
  <advance width="347.4"/>
  <unicode hex="0166"/>
  <outline>
    <contour>
      <point x="44.5" y="281.1" type="line"/>
      <point x="109.8" y="281.1" type="line"/>
      <point x="109.8" y="0.0" type="line"/>
      <point x="238.3" y="0.0" type="line"/>
      <point x="238.3" y="281.1" type="line"/>
      <point x="301.5" y="281.1" type="line"/>
      <point x="301.5" y="401.9" type="line"/>
      <point x="238.3" y="401.9" type="line"/>
      <point x="238.3" y="566.9" type="line"/>
      <point x="338.9" y="566.9" type="line"/>
      <point x="338.9" y="700.0" type="line"/>
      <point x="8.5" y="700.0" type="line"/>
      <point x="8.5" y="566.9" type="line"/>
      <point x="109.8" y="566.9" type="line"/>
      <point x="109.8" y="401.9" type="line"/>
      <point x="44.5" y="401.9" type="line"/>
    </contour>
  </outline>
</glyph>
<glyph name="tbar" format="2">
  <advance width="258.8"/>
  <unicode hex="0167"/>
  <outline>
    <contour>
      <point x="175.8" y="261.8" type="line"/>
      <point x="236.39999999999998" y="261.8" type="line"/>
      <point x="236.39999999999998" y="358.2" type="line"/>
      <point x="175.8" y="358.2" type="line"/>
      <point x="175.8" y="433.6" type="line"/>
      <point x="245.99999999999997" y="433.6" type="line"/>
      <point x="245.99999999999997" y="544.0" type="line"/>
      <point x="175.8" y="544.0" type="line"/>
      <point x="175.8" y="657.6" type="line"/>
      <point x="65.2" y="657.6" type="line"/>
      <point x="47.6" y="544.0" type="line"/>
      <point x="6.200000000000001" y="538.0" type="line"/>
      <point x="6.200000000000001" y="434.0" type="line"/>
      <point x="47.6" y="434.0" type="line"/>
      <point x="47.6" y="358.2" type="line"/>
      <point x="12.8" y="358.2" type="line"/>
      <point x="12.8" y="261.8" type="line"/>
      <point x="47.6" y="261.8" type="line"/>
      <point x="47.6" y="162.6" type="line" smooth="yes"/>
      <point x="47.6" y="50.4"/>
      <point x="82.4" y="-10.0"/>
      <point x="164.79999999999998" y="-10.0" type="curve" smooth="yes"/>
      <point x="191.0" y="-10.0"/>
      <point x="227.39999999999998" y="-7.6"/>
      <point x="262.2" y="9.599999999999998" type="curve"/>
      <point x="242.2" y="118.19999999999999" type="line"/>
      <point x="226.8" y="114.6"/>
      <point x="217.6" y="114.0"/>
      <point x="212.99999999999997" y="114.0" type="curve" smooth="yes"/>
      <point x="189.2" y="114.0"/>
      <point x="175.8" y="127.6"/>
      <point x="175.8" y="178.0" type="curve" smooth="yes"/>
    </contour>
  </outline>
</glyph>
<glyph name="uogonek" format="2">
  <advance width="383.8"/>
  <unicode hex="0173"/>
  <outline>
    <contour>
      <point x="331.1" y="-209.8" type="curve" smooth="yes"/>
      <point x="356.5" y="-209.8"/>
      <point x="372.9" y="-206.1"/>
      <point x="387.9" y="-199.0" type="curve"/>
      <point x="380.5" y="-98.9" type="line"/>
      <point x="376.6" y="-100.80000000000001"/>
      <point x="371.6" y="-101.80000000000001"/>
      <point x="364.9" y="-101.80000000000001" type="curve" smooth="yes"/>
      <point x="351.6" y="-101.80000000000001"/>
      <point x="341.0" y="-92.80000000000001"/>
      <point x="341.0" y="-72.5" type="curve" smooth="yes"/>
      <point x="341.0" y="-44.5"/>
      <point x="351.9" y="-21.800000000000004"/>
      <point x="383.0" y="10.2" type="curve"/>
      <point x="373.2" y="128.0" type="line"/>
      <point x="368.1" y="125.8"/>
      <point x="361.2" y="124.49999999999999"/>
      <point x="355.7" y="124.49999999999999" type="curve" smooth="yes"/>
      <point x="346.9" y="124.49999999999999"/>
      <point x="343.0" y="129.7"/>
      <point x="343.0" y="149.5" type="curve" smooth="yes"/>
      <point x="343.0" y="544.0" type="line"/>
      <point x="214.5" y="544.0" type="line"/>
      <point x="214.5" y="129.2" type="line"/>
      <point x="205.6" y="121.19999999999999"/>
      <point x="191.5" y="116.5"/>
      <point x="181.3" y="116.5" type="curve" smooth="yes"/>
      <point x="165.89999999999998" y="116.5"/>
      <point x="154.3" y="126.0"/>
      <point x="154.3" y="150.5" type="curve" smooth="yes"/>
      <point x="154.3" y="544.0" type="line"/>
      <point x="25.1" y="544.0" type="line"/>
      <point x="25.1" y="129.5" type="line" smooth="yes"/>
      <point x="25.1" y="23.799999999999997"/>
      <point x="71.3" y="-10.0"/>
      <point x="128.8" y="-10.0" type="curve" smooth="yes"/>
      <point x="166.3" y="-10.0"/>
      <point x="200.8" y="4.199999999999999"/>
      <point x="228.7" y="27.6" type="curve"/>
      <point x="244.3" y="6.3"/>
      <point x="268.4" y="-10.0"/>
      <point x="303.2" y="-10.0" type="curve" smooth="yes"/>
      <point x="314.8" y="-10.0"/>
      <point x="326.0" y="-9.0"/>
      <point x="336.1" y="-7.0" type="curve"/>
      <point x="312.7" y="6.7" type="line"/>
      <point x="264.6" y="-25.800000000000004"/>
      <point x="235.5" y="-71.4"/>
      <point x="235.5" y="-119.0" type="curve" smooth="yes"/>
      <point x="235.5" y="-179.1"/>
      <point x="271.4" y="-209.8"/>
    </contour>
  </outline>
</glyph>
<glyph name="longs" format="2">
  <advance width="220.2"/>
  <unicode hex="017F"/>
  <outline>
    <contour>
      <point x="182.0" y="516.1" type="line"/>
      <point x="182.0" y="608.5"/>
      <point x="201.5" y="627.4"/>
      <point x="230.3" y="627.4" type="curve" smooth="yes"/>
      <point x="237.7" y="627.4"/>
      <point x="258.4" y="624.3"/>
      <point x="269.2" y="620.0" type="curve"/>
      <point x="289.3" y="727.6" type="line"/>
      <point x="260.4" y="740.3"/>
      <point x="230.7" y="750.0"/>
      <point x="189.0" y="750.0" type="curve" smooth="yes"/>
      <point x="93.8" y="750.0"/>
      <point x="53.5" y="665.2"/>
      <point x="53.5" y="526.6" type="curve" smooth="yes"/>
      <point x="53.5" y="515.5" type="line"/>
      <point x="6.800000000000001" y="508.8" type="line"/>
      <point x="6.800000000000001" y="404.8" type="line"/>
      <point x="53.5" y="404.8" type="line"/>
      <point x="53.5" y="0.0" type="line"/>
      <point x="182.0" y="0.0" type="line"/>
    </contour>
  </outline>
</glyph>
<glyph name="uni018F" format="2">
  <advance width="355.59999999999997"/>
  <unicode hex="018F"/>
  <outline>
    <contour>
      <point x="50.599999999999994" y="557.0" type="line"/>
      <point x="86.6" y="571.6"/>
      <point x="112.19999999999999" y="578.2"/>
      <point x="135.2" y="578.2" type="curve" smooth="yes"/>
      <point x="180.0" y="578.2"/>
      <point x="201.2" y="534.4"/>
      <point x="206.4" y="427.59999999999997" type="curve" smooth="yes"/>
      <point x="206.8" y="419.4"/>
      <point x="206.8" y="412.2"/>
      <point x="206.8" y="403.6" type="curve"/>
      <point x="134.20000000000002" y="396.6"/>
      <point x="74.6" y="386.4"/>
      <point x="17.4" y="377.0" type="curve"/>
      <point x="16.400000000000002" y="354.6"/>
      <point x="15.400000000000002" y="322.0"/>
      <point x="15.400000000000002" y="305.2" type="curve" smooth="yes"/>
      <point x="15.400000000000002" y="90.2"/>
      <point x="66.4" y="-10.0"/>
      <point x="176.0" y="-10.0" type="curve" smooth="yes"/>
      <point x="289.59999999999997" y="-10.0"/>
      <point x="340.59999999999997" y="104.6"/>
      <point x="340.59999999999997" y="362.59999999999997" type="curve" smooth="yes"/>
      <point x="340.59999999999997" y="594.0"/>
      <point x="284.0" y="709.6"/>
      <point x="173.39999999999998" y="709.6" type="curve" smooth="yes"/>
      <point x="120.2" y="709.6"/>
      <point x="72.8" y="697.0"/>
      <point x="30.6" y="670.0" type="curve"/>
    </contour>
    <contour>
      <point x="211.0" y="298.2" type="curve"/>
      <point x="209.20000000000002" y="164.2"/>
      <point x="197.8" y="108.0"/>
      <point x="171.0" y="108.0" type="curve" smooth="yes"/>
      <point x="144.6" y="108.0"/>
      <point x="134.79999999999998" y="149.8"/>
      <point x="134.79999999999998" y="289.0" type="curve"/>
      <point x="157.4" y="294.6"/>
      <point x="180.20000000000002" y="297.2"/>
    </contour>
  </outline>
</glyph>
<glyph name="florin" format="2">
  <advance width="369.0"/>
  <unicode hex="0192"/>
  <outline>
    <contour>
      <point x="71.1" y="397.3" type="line"/>
      <point x="53.4" y="291.8" type="line"/>
      <point x="98.4" y="291.8" type="line"/>
      <point x="18.9" y="-210.0" type="line"/>
      <point x="138.39999999999998" y="-210.0" type="line"/>
      <point x="217.89999999999998" y="291.8" type="line"/>
      <point x="266.7" y="291.8" type="line"/>
      <point x="284.4" y="402.2" type="line"/>
      <point x="235.6" y="402.2" type="line"/>
      <point x="246.3" y="469.2" type="line" smooth="yes"/>
      <point x="259.8" y="550.8"/>
      <point x="273.9" y="577.2"/>
      <point x="301.7" y="577.2" type="curve" smooth="yes"/>
      <point x="309.7" y="577.2"/>
      <point x="317.0" y="575.9"/>
      <point x="331.1" y="570.5" type="curve"/>
      <point x="372.7" y="687.6" type="line"/>
      <point x="343.1" y="703.8"/>
      <point x="318.8" y="710.0"/>
      <point x="286.5" y="710.0" type="curve" smooth="yes"/>
      <point x="206.7" y="710.0"/>
      <point x="154.9" y="639.5"/>
      <point x="129.6" y="486.0" type="curve" smooth="yes"/>
      <point x="116.1" y="402.2" type="line"/>
    </contour>
  </outline>
</glyph>
<glyph name="uni0237" format="2">
  <advance width="181.2"/>
  <unicode hex="0237"/>
  <anchor x="90.1" y="544.0" name="top"/>
  <outline>
    <contour>
      <point x="154.7" y="7.7" type="curve" smooth="yes"/>
      <point x="154.7" y="544.0" type="line"/>
      <point x="26.200000000000003" y="544.0" type="line"/>
      <point x="26.200000000000003" y="18.9" type="line"/>
      <point x="26.200000000000003" y="-39.900000000000006"/>
      <point x="15.600000000000001" y="-67.5"/>
      <point x="-10.0" y="-77.10000000000001" type="curve" smooth="yes"/>
      <point x="-19.9" y="-78.60000000000001"/>
      <point x="-28.4" y="-77.7"/>
      <point x="-40.7" y="-75.10000000000001" type="curve"/>
      <point x="-56.9" y="-204.1" type="line"/>
      <point x="-29.299999999999997" y="-211.0"/>
      <point x="-4.8" y="-213.4"/>
      <point x="18.299999999999997" y="-211.6" type="curve" smooth="yes"/>
      <point x="117.19999999999999" y="-200.5"/>
      <point x="154.7" y="-129.2"/>
    </contour>
  </outline>
</glyph>
<glyph name="uni0259" format="2">
  <advance width="357.6"/>
  <unicode hex="0259"/>
  <outline>
    <contour>
      <point x="15.3" y="291.7" type="curve"/>
      <point x="14.3" y="275.3"/>
      <point x="13.6" y="251.4"/>
      <point x="13.6" y="237.2" type="curve" smooth="yes"/>
      <point x="13.6" y="72.4"/>
      <point x="53.0" y="-10.0"/>
      <point x="176.1" y="-10.0" type="curve" smooth="yes"/>
      <point x="290.5" y="-10.0"/>
      <point x="341.9" y="79.6"/>
      <point x="341.9" y="282.1" type="curve" smooth="yes"/>
      <point x="341.9" y="469.4"/>
      <point x="290.6" y="554.0"/>
      <point x="174.39999999999998" y="554.0" type="curve" smooth="yes"/>
      <point x="113.19999999999999" y="554.0"/>
      <point x="64.5" y="543.3"/>
      <point x="19.0" y="522.6" type="curve"/>
      <point x="37.3" y="404.5" type="line"/>
      <point x="81.8" y="418.3"/>
      <point x="120.8" y="423.0"/>
      <point x="134.2" y="423.0" type="curve" smooth="yes"/>
      <point x="174.0" y="423.0"/>
      <point x="207.1" y="405.0"/>
      <point x="207.1" y="324.5" type="curve" smooth="yes"/>
      <point x="207.1" y="320.3"/>
      <point x="207.1" y="316.5"/>
      <point x="207.1" y="312.3" type="curve"/>
      <point x="140.3" y="308.8"/>
      <point x="48.9" y="297.0"/>
    </contour>
    <contour>
      <point x="208.5" y="229.9" type="curve"/>
      <point x="206.4" y="113.19999999999999"/>
      <point x="196.2" y="98.3"/>
      <point x="176.8" y="98.3" type="curve" smooth="yes"/>
      <point x="158.39999999999998" y="98.3"/>
      <point x="143.5" y="125.1"/>
      <point x="143.5" y="224.6" type="curve"/>
      <point x="155.0" y="227.1"/>
      <point x="186.0" y="229.9"/>
    </contour>
  </outline>
</glyph>
<glyph name="gravecomb" format="2">
  <unicode hex="0300"/>
  <anchor x="-246.8" y="765.3" name="top"/>
  <anchor x="-187.6" y="544.0" name="_top"/>
  <outline>
    <contour>
      <point x="-239.3" y="595.3" type="line"/>
      <point x="-134.9" y="595.3" type="line"/>
      <point x="-193.6" y="789.3" type="line"/>
      <point x="-328.6" y="789.3" type="line"/>
    </contour>
  </outline>
</glyph>
<glyph name="acutecomb" format="2">
  <unicode hex="0301"/>
  <anchor x="-141.3" y="765.3" name="top"/>
  <anchor x="-187.6" y="544.0" name="_top"/>
  <outline>
    <contour>
      <point x="-235.7" y="595.3" type="line"/>
      <point x="-137.6" y="595.3" type="line"/>
      <point x="-47.6" y="789.3" type="line"/>
      <point x="-176.7" y="789.3" type="line"/>
    </contour>
  </outline>
</glyph>
<glyph name="uni0302" format="2">
  <unicode hex="0302"/>
  <anchor x="-187.6" y="770.8" name="top"/>
  <anchor x="-187.6" y="544.0" name="_top"/>
  <anchor x="-19.0" y="657.3" name="top_viet"/>
  <outline>
    <contour>
      <point x="-317.1" y="595.3" type="line"/>
      <point x="-213.0" y="595.3" type="line"/>
      <point x="-187.6" y="724.3" type="line"/>
      <point x="-162.5" y="595.3" type="line"/>
      <point x="-58.1" y="595.3" type="line"/>
      <point x="-117.4" y="789.3" type="line"/>
      <point x="-257.5" y="789.3" type="line"/>
    </contour>
  </outline>
</glyph>
<glyph name="tildecomb" format="2">
  <unicode hex="0303"/>
  <anchor x="-187.6" y="724.1999999999999" name="top"/>
  <anchor x="-187.6" y="544.0" name="_top"/>
  <outline>
    <contour>
      <point x="-319.4" y="598.0" type="curve"/>
      <point x="-247.39999999999998" y="598.0" type="line"/>
      <point x="-248.6" y="602.4000000000001"/>
      <point x="-248.8" y="610.1999999999999"/>
      <point x="-248.8" y="617.0" type="curve" smooth="yes"/>
      <point x="-248.8" y="633.6"/>
      <point x="-242.8" y="646.6"/>
      <point x="-230.2" y="646.6" type="curve" smooth="yes"/>
      <point x="-214.8" y="646.6"/>
      <point x="-160.79999999999998" y="603.6"/>
      <point x="-129.0" y="603.6" type="curve" smooth="yes"/>
      <point x="-81.2" y="603.6"/>
      <point x="-52.599999999999994" y="635.6"/>
      <point x="-52.599999999999994" y="714.8" type="curve" smooth="yes"/>
      <point x="-52.599999999999994" y="730.1999999999999"/>
      <point x="-53.599999999999994" y="746.6"/>
      <point x="-56.199999999999996" y="763.0" type="curve"/>
      <point x="-127.6" y="763.0" type="line"/>
      <point x="-126.4" y="758.4000000000001"/>
      <point x="-125.79999999999998" y="751.1999999999999"/>
      <point x="-125.79999999999998" y="745.6" type="curve" smooth="yes"/>
      <point x="-125.79999999999998" y="729.8"/>
      <point x="-131.4" y="713.5999999999999"/>
      <point x="-144.39999999999998" y="713.5999999999999" type="curve" smooth="yes"/>
      <point x="-163.6" y="713.5999999999999"/>
      <point x="-193.4" y="756.0"/>
      <point x="-244.6" y="756.0" type="curve" smooth="yes"/>
      <point x="-294.2" y="756.0"/>
      <point x="-323.0" y="720.4000000000001"/>
      <point x="-323.0" y="646.1999999999999" type="curve" smooth="yes"/>
      <point x="-323.0" y="631.8"/>
      <point x="-322.4" y="614.8"/>
    </contour>
  </outline>
</glyph>
<glyph name="uni0304" format="2">
  <unicode hex="0304"/>
  <anchor x="-187.6" y="746.3" name="top"/>
  <anchor x="-187.6" y="544.0" name="_top"/>
  <outline>
    <contour>
      <point x="-297.0" y="625.5" type="line"/>
      <point x="-78.2" y="625.5" type="line"/>
      <point x="-78.2" y="732.3" type="line"/>
      <point x="-297.0" y="732.3" type="line"/>
    </contour>
  </outline>
</glyph>
<glyph name="uni0306" format="2">
  <unicode hex="0306"/>
  <anchor x="-187.6" y="742.2" name="top"/>
  <anchor x="-187.6" y="544.0" name="_top"/>
  <outline>
    <contour>
      <point x="-186.9" y="601.2" type="curve" smooth="yes"/>
      <point x="-92.9" y="601.2"/>
      <point x="-54.2" y="635.0"/>
      <point x="-54.2" y="735.1" type="curve" smooth="yes"/>
      <point x="-54.2" y="742.6"/>
      <point x="-54.2" y="750.5"/>
      <point x="-54.9" y="758.7" type="curve"/>
      <point x="-128.89999999999998" y="759.3" type="line"/>
      <point x="-128.89999999999998" y="756.7"/>
      <point x="-128.89999999999998" y="754.5"/>
      <point x="-128.89999999999998" y="752.2" type="curve" smooth="yes"/>
      <point x="-128.89999999999998" y="718.8"/>
      <point x="-139.5" y="694.1"/>
      <point x="-186.9" y="694.1" type="curve" smooth="yes"/>
      <point x="-235.0" y="694.1"/>
      <point x="-245.6" y="718.8"/>
      <point x="-245.6" y="752.2" type="curve" smooth="yes"/>
      <point x="-245.6" y="754.5"/>
      <point x="-245.6" y="756.7"/>
      <point x="-245.6" y="759.3" type="curve"/>
      <point x="-320.3" y="758.7" type="line"/>
      <point x="-321.0" y="750.5"/>
      <point x="-321.0" y="742.6"/>
      <point x="-321.0" y="735.1" type="curve" smooth="yes"/>
      <point x="-321.0" y="622.4"/>
      <point x="-265.5" y="601.2"/>
    </contour>
  </outline>
</glyph>
<glyph name="uni0307" format="2">
  <unicode hex="0307"/>
  <anchor x="-187.6" y="713.9" name="top"/>
  <anchor x="-187.6" y="544.0" name="_top"/>
  <outline>
    <contour>
      <point x="-187.6" y="615.1" type="curve" smooth="yes"/>
      <point x="-154.6" y="615.1"/>
      <point x="-133.0" y="629.4"/>
      <point x="-133.0" y="681.4" type="curve" smooth="yes"/>
      <point x="-133.0" y="733.4"/>
      <point x="-154.6" y="747.7"/>
      <point x="-187.6" y="747.7" type="curve" smooth="yes"/>
      <point x="-220.0" y="747.7"/>
      <point x="-242.2" y="733.4"/>
      <point x="-242.2" y="681.4" type="curve" smooth="yes"/>
      <point x="-242.2" y="629.4"/>
      <point x="-220.0" y="615.1"/>
    </contour>
  </outline>
</glyph>
<glyph name="uni0308" format="2">
  <unicode hex="0308"/>
  <anchor x="-187.6" y="713.9" name="top"/>
  <anchor x="-187.6" y="544.0" name="_top"/>
  <outline>
    <contour>
      <point x="-112.5" y="619.3" type="curve" smooth="yes"/>
      <point x="-79.8" y="619.3"/>
      <point x="-58.9" y="632.9"/>
      <point x="-58.9" y="684.9" type="curve" smooth="yes"/>
      <point x="-58.9" y="737.6"/>
      <point x="-79.8" y="751.9"/>
      <point x="-112.5" y="751.9" type="curve" smooth="yes"/>
      <point x="-145.2" y="751.9"/>
      <point x="-166.8" y="737.6"/>
      <point x="-166.8" y="684.9" type="curve" smooth="yes"/>
      <point x="-166.8" y="632.9"/>
      <point x="-145.2" y="619.3"/>
    </contour>
    <contour>
      <point x="-262.7" y="619.3" type="curve" smooth="yes"/>
      <point x="-230.0" y="619.3"/>
      <point x="-208.4" y="632.9"/>
      <point x="-208.4" y="684.9" type="curve" smooth="yes"/>
      <point x="-208.4" y="737.6"/>
      <point x="-230.0" y="751.9"/>
      <point x="-262.7" y="751.9" type="curve" smooth="yes"/>
      <point x="-295.4" y="751.9"/>
      <point x="-316.3" y="737.6"/>
      <point x="-316.3" y="684.9" type="curve" smooth="yes"/>
      <point x="-316.3" y="632.9"/>
      <point x="-295.4" y="619.3"/>
    </contour>
  </outline>
</glyph>
<glyph name="hookabovecomb" format="2">
  <unicode hex="0309"/>
  <anchor x="-194.4" y="799.2" name="top"/>
  <anchor x="-186.39999999999998" y="544.0" name="_top"/>
  <outline>
    <contour>
      <point x="-209.8" y="594.1999999999999" type="line"/>
      <point x="-125.6" y="613.0"/>
      <point x="-98.39999999999999" y="657.6"/>
      <point x="-98.39999999999999" y="706.1999999999999" type="curve" smooth="yes"/>
      <point x="-98.39999999999999" y="767.2"/>
      <point x="-137.6" y="798.8"/>
      <point x="-194.4" y="798.8" type="curve" smooth="yes"/>
      <point x="-223.2" y="798.8"/>
      <point x="-249.2" y="793.5999999999999"/>
      <point x="-266.2" y="785.6" type="curve"/>
      <point x="-256.6" y="707.0" type="line"/>
      <point x="-243.20000000000002" y="711.1999999999999"/>
      <point x="-236.2" y="713.8000000000001"/>
      <point x="-221.2" y="713.8000000000001" type="curve" smooth="yes"/>
      <point x="-199.2" y="713.8000000000001"/>
      <point x="-187.20000000000002" y="703.8"/>
      <point x="-187.20000000000002" y="688.4" type="curve" smooth="yes"/>
      <point x="-187.20000000000002" y="673.4000000000001"/>
      <point x="-196.2" y="664.0"/>
      <point x="-222.39999999999998" y="655.6" type="curve"/>
    </contour>
  </outline>
</glyph>
